  0
SECTION
  2
HEADER
  9
$ACADVER
  1
AC1024
  9
$ACADMAINTVER
 70
     6
  9
$DWGCODEPAGE
  3
UNDEFINED
  9
$INSBASE
 10
0.0
 20
0.0
 30
0.0
  9
$EXTMIN
 10
1.000000000000000E+20
 20
1.000000000000000E+20
 30
1.000000000000000E+20
  9
$EXTMAX
 10
-1.000000000000000E+20
 20
-1.000000000000000E+20
 30
-1.000000000000000E+20
  9
$LIMMIN
 10
0.0
 20
0.0
  9
$LIMMAX
 10
12.0
 20
9.0
  9
$ORTHOMODE
 70
     0
  9
$REGENMODE
 70
     1
  9
$FILLMODE
 70
     1
  9
$QTEXTMODE
 70
     0
  9
$MIRRTEXT
 70
     1
  9
$LTSCALE
 40
1.0
  9
$ATTMODE
 70
     1
  9
$TEXTSIZE
 40
0.2
  9
$TRACEWID
 40
0.05
  9
$TEXTSTYLE
  7
Standard
  9
$CLAYER
  8
0
  9
$CELTYPE
  6
ByLayer
  9
$CECOLOR
 62
   256
  9
$CELTSCALE
 40
1.0
  9
$DISPSILH
 70
     0
  9
$DIMSCALE
 40
1.0
  9
$DIMASZ
 40
0.18
  9
$DIMEXO
 40
0.0625
  9
$DIMDLI
 40
0.38
  9
$DIMRND
 40
0.0
  9
$DIMDLE
 40
0.0
  9
$DIMEXE
 40
0.18
  9
$DIMTP
 40
0.0
  9
$DIMTM
 40
0.0
  9
$DIMTXT
 40
0.18
  9
$DIMCEN
 40
0.09
  9
$DIMTSZ
 40
0.0
  9
$DIMTOL
 70
     0
  9
$DIMLIM
 70
     0
  9
$DIMTIH
 70
     1
  9
$DIMTOH
 70
     1
  9
$DIMSE1
 70
     0
  9
$DIMSE2
 70
     0
  9
$DIMTAD
 70
     0
  9
$DIMZIN
 70
     0
  9
$DIMBLK
  1

  9
$DIMASO
 70
     1
  9
$DIMSHO
 70
     1
  9
$DIMPOST
  1

  9
$DIMAPOST
  1

  9
$DIMALT
 70
     0
  9
$DIMALTD
 70
     2
  9
$DIMALTF
 40
25.4
  9
$DIMLFAC
 40
1.0
  9
$DIMTOFL
 70
     0
  9
$DIMTVP
 40
0.0
  9
$DIMTIX
 70
     0
  9
$DIMSOXD
 70
     0
  9
$DIMSAH
 70
     0
  9
$DIMBLK1
  1

  9
$DIMBLK2
  1

  9
$DIMSTYLE
  2
Standard
  9
$DIMCLRD
 70
     0
  9
$DIMCLRE
 70
     0
  9
$DIMCLRT
 70
     0
  9
$DIMTFAC
 40
1.0
  9
$DIMGAP
 40
0.09
  9
$DIMJUST
 70
     0
  9
$DIMSD1
 70
     0
  9
$DIMSD2
 70
     0
  9
$DIMTOLJ
 70
     1
  9
$DIMTZIN
 70
     0
  9
$DIMALTZ
 70
     0
  9
$DIMALTTZ
 70
     0
  9
$DIMUPT
 70
     0
  9
$DIMDEC
 70
     4
  9
$DIMTDEC
 70
     4
  9
$DIMALTU
 70
     2
  9
$DIMALTTD
 70
     2
  9
$DIMTXSTY
  7
Standard
  9
$DIMAUNIT
 70
     0
  9
$DIMADEC
 70
     0
  9
$DIMALTRND
 40
0.0
  9
$DIMAZIN
 70
     0
  9
$DIMDSEP
 70
    46
  9
$DIMATFIT
 70
     3
  9
$DIMFRAC
 70
     0
  9
$DIMLDRBLK
  1

  9
$DIMLUNIT
 70
     2
  9
$DIMLWD
 70
    -2
  9
$DIMLWE
 70
    -2
  9
$DIMTMOVE
 70
     0
  9
$DIMFXL
 40
1.0
  9
$DIMFXLON
 70
     0
  9
$DIMJOGANG
 40
0.7853981633974483
  9
$DIMTFILL
 70
     0
  9
$DIMTFILLCLR
 70
     0
  9
$DIMARCSYM
 70
     0
  9
$DIMLTYPE
  6

  9
$DIMLTEX1
  6

  9
$DIMLTEX2
  6

  9
$DIMTXTDIRECTION
 70
     0
  9
$LUNITS
 70
     2
  9
$LUPREC
 70
     4
  9
$SKETCHINC
 40
0.1
  9
$FILLETRAD
 40
0.5
  9
$AUNITS
 70
     0
  9
$AUPREC
 70
     0
  9
$MENU
  1
.
  9
$ELEVATION
 40
0.0
  9
$PELEVATION
 40
0.0
  9
$THICKNESS
 40
0.0
  9
$LIMCHECK
 70
     0
  9
$CHAMFERA
 40
0.5
  9
$CHAMFERB
 40
0.5
  9
$CHAMFERC
 40
1.0
  9
$CHAMFERD
 40
0.0
  9
$SKPOLY
 70
     0
  9
$TDCREATE
 40
2458161.608113414
  9
$TDUCREATE
 40
2458161.566446759
  9
$TDUPDATE
 40
2458161.608113414
  9
$TDUUPDATE
 40
2458161.566446759
  9
$TDINDWG
 40
0.0000000116
  9
$TDUSRTIMER
 40
0.0000000116
  9
$USRTIMER
 70
     1
  9
$ANGBASE
 50
0.0
  9
$ANGDIR
 70
     0
  9
$PDMODE
 70
     0
  9
$PDSIZE
 40
0.0
  9
$PLINEWID
 40
0.0
  9
$SPLFRAME
 70
     0
  9
$SPLINETYPE
 70
     6
  9
$SPLINESEGS
 70
     8
  9
$HANDSEED
  5
47
  9
$SURFTAB1
 70
     6
  9
$SURFTAB2
 70
     6
  9
$SURFTYPE
 70
     6
  9
$SURFU
 70
     6
  9
$SURFV
 70
     6
  9
$UCSBASE
  2

  9
$UCSNAME
  2

  9
$UCSORG
 10
0.0
 20
0.0
 30
0.0
  9
$UCSXDIR
 10
1.0
 20
0.0
 30
0.0
  9
$UCSYDIR
 10
0.0
 20
1.0
 30
0.0
  9
$UCSORTHOREF
  2

  9
$UCSORTHOVIEW
 70
     0
  9
$UCSORGTOP
 10
0.0
 20
0.0
 30
0.0
  9
$UCSORGBOTTOM
 10
0.0
 20
0.0
 30
0.0
  9
$UCSORGLEFT
 10
0.0
 20
0.0
 30
0.0
  9
$UCSORGRIGHT
 10
0.0
 20
0.0
 30
0.0
  9
$UCSORGFRONT
 10
0.0
 20
0.0
 30
0.0
  9
$UCSORGBACK
 10
0.0
 20
0.0
 30
0.0
  9
$PUCSBASE
  2

  9
$PUCSNAME
  2

  9
$PUCSORG
 10
0.0
 20
0.0
 30
0.0
  9
$PUCSXDIR
 10
1.0
 20
0.0
 30
0.0
  9
$PUCSYDIR
 10
0.0
 20
1.0
 30
0.0
  9
$PUCSORTHOREF
  2

  9
$PUCSORTHOVIEW
 70
     0
  9
$PUCSORGTOP
 10
0.0
 20
0.0
 30
0.0
  9
$PUCSORGBOTTOM
 10
0.0
 20
0.0
 30
0.0
  9
$PUCSORGLEFT
 10
0.0
 20
0.0
 30
0.0
  9
$PUCSORGRIGHT
 10
0.0
 20
0.0
 30
0.0
  9
$PUCSORGFRONT
 10
0.0
 20
0.0
 30
0.0
  9
$PUCSORGBACK
 10
0.0
 20
0.0
 30
0.0
  9
$USERI1
 70
     0
  9
$USERI2
 70
     0
  9
$USERI3
 70
     0
  9
$USERI4
 70
     0
  9
$USERI5
 70
     0
  9
$USERR1
 40
0.0
  9
$USERR2
 40
0.0
  9
$USERR3
 40
0.0
  9
$USERR4
 40
0.0
  9
$USERR5
 40
0.0
  9
$WORLDVIEW
 70
     1
  9
$SHADEDGE
 70
     3
  9
$SHADEDIF
 70
    70
  9
$TILEMODE
 70
     1
  9
$MAXACTVP
 70
    64
  9
$PINSBASE
 10
0.0
 20
0.0
 30
0.0
  9
$PLIMCHECK
 70
     0
  9
$PEXTMIN
 10
1.000000000000000E+20
 20
1.000000000000000E+20
 30
1.000000000000000E+20
  9
$PEXTMAX
 10
-1.000000000000000E+20
 20
-1.000000000000000E+20
 30
-1.000000000000000E+20
  9
$PLIMMIN
 10
0.0
 20
0.0
  9
$PLIMMAX
 10
12.0
 20
9.0
  9
$UNITMODE
 70
     0
  9
$VISRETAIN
 70
     1
  9
$PLINEGEN
 70
     0
  9
$PSLTSCALE
 70
     1
  9
$TREEDEPTH
 70
  3020
  9
$CMLSTYLE
  2
Standard
  9
$CMLJUST
 70
     0
  9
$CMLSCALE
 40
1.0
  9
$PROXYGRAPHICS
 70
     1
  9
$MEASUREMENT
 70
     0
  9
$CELWEIGHT
370
    -1
  9
$ENDCAPS
280
     0
  9
$JOINSTYLE
280
     0
  9
$LWDISPLAY
290
     1
  9
$INSUNITS
 70
     1
  9
$HYPERLINKBASE
  1

  9
$STYLESHEET
  1

  9
$XEDIT
290
     1
  9
$CEPSNTYPE
380
     0
  9
$PSTYLEMODE
290
     1
  9
$FINGERPRINTGUID
  2
{460BB2E9-3EDF-D79E-A813-345CD758BB96}
  9
$VERSIONGUID
  2
{FAEB1C32-E019-11D5-929B-00C0DF256EC4}
  9
$EXTNAMES
290
     1
  9
$PSVPSCALE
 40
0.0
  9
$OLESTARTUP
290
     0
  9
$SORTENTS
280
   127
  9
$INDEXCTL
280
     0
  9
$HIDETEXT
280
     1
  9
$XCLIPFRAME
280
     2
  9
$HALOGAP
280
     0
  9
$OBSCOLOR
 70
   257
  9
$OBSLTYPE
280
     0
  9
$INTERSECTIONDISPLAY
280
     0
  9
$INTERSECTIONCOLOR
 70
   257
  9
$DIMASSOC
280
     2
  9
$PROJECTNAME
  1

  9
$CAMERADISPLAY
290
     0
  9
$LENSLENGTH
 40
50.0
  9
$CAMERAHEIGHT
 40
0.0
  9
$STEPSPERSEC
 40
2.0
  9
$STEPSIZE
 40
6.0
  9
$3DDWFPREC
 40
2.0
  9
$PSOLWIDTH
 40
0.25
  9
$PSOLHEIGHT
 40
4.0
  9
$LOFTANG1
 40
1.570796326794897
  9
$LOFTANG2
 40
1.570796326794897
  9
$LOFTMAG1
 40
0.0
  9
$LOFTMAG2
 40
0.0
  9
$LOFTPARAM
 70
     7
  9
$LOFTNORMALS
280
     1
  9
$LATITUDE
 40
37.795
  9
$LONGITUDE
 40
-122.394
  9
$NORTHDIRECTION
 40
0.0
  9
$TIMEZONE
 70
 -8000
  9
$LIGHTGLYPHDISPLAY
280
     1
  9
$TILEMODELIGHTSYNCH
280
     1
  9
$CMATERIAL
347
3C
  9
$SOLIDHIST
280
     1
  9
$SHOWHIST
280
     1
  9
$DWFFRAME
280
     2
  9
$DGNFRAME
280
     2
  9
$REALWORLDSCALE
290
     1
  9
$INTERFERECOLOR
 62
   256
  9
$CSHADOW
280
     0
  9
$SHADOWPLANELOCATION
 40
0.0
  0
ENDSEC
  0
SECTION
  2
CLASSES
  0
CLASS
  1
ACDBDICTIONARYWDFLT
  2
AcDbDictionaryWithDefault
  3
ObjectDBX Classes
 90
        0
 91
        4
280
     0
281
     0
  0
CLASS
  1
VISUALSTYLE
  2
AcDbVisualStyle
  3
ObjectDBX Classes
 90
     4095
 91
        4
280
     0
281
     0
  0
CLASS
  1
MATERIAL
  2
AcDbMaterial
  3
ObjectDBX Classes
 90
     1153
 91
        4
280
     0
281
     0
  0
CLASS
  1
SUN
  2
AcDbSun
  3
SCENEOE
 90
     1024
 91
        4
280
     0
281
     0
  0
ENDSEC
  0
SECTION
  2
TABLES
  0
TABLE
  2
VPORT
  5
8
330
0
100
AcDbSymbolTable
 70
     1
  0
VPORT
  5
29
330
8
100
AcDbSymbolTableRecord
100
AcDbViewportTableRecord
  2
*Active
 70
     0
 10
0.0
 20
0.0
 11
1.0
 21
1.0
 12
0.0
 22
0.0
 13
0.0
 23
0.0
 14
0.5
 24
0.5
 15
0.5
 25
0.5
 16
0.0
 26
0.0
 36
1.0
 17
56.83544303797498
 27
-324.8101265822779
 37
0.0
 40
649.6202531645558
 41
0.1749805144193309
 42
50.0
 43
0.0
 44
0.0
 50
0.0
 51
0.0
 71
     0
 72
   100
 73
     1
 74
     3
 75
     0
 76
     0
 77
     0
 78
     0
281
     0
 65
     1
110
0.0
120
0.0
130
0.0
111
1.0
121
0.0
131
0.0
112
0.0
122
1.0
132
0.0
 79
     0
146
0.0
 60
     3
 61
     5
292
     1
282
     1
141
0.0
142
0.0
 63
   250
361
3F
  0
ENDTAB
  0
TABLE
  2
LTYPE
  5
5
330
0
100
AcDbSymbolTable
 70
     1
  0
LTYPE
  5
14
330
5
100
AcDbSymbolTableRecord
100
AcDbLinetypeTableRecord
  2
ByBlock
 70
     0
  3

 72
    65
 73
     0
 40
0.0
  0
LTYPE
  5
15
330
5
100
AcDbSymbolTableRecord
100
AcDbLinetypeTableRecord
  2
ByLayer
 70
     0
  3

 72
    65
 73
     0
 40
0.0
  0
LTYPE
  5
16
330
5
100
AcDbSymbolTableRecord
100
AcDbLinetypeTableRecord
  2
Continuous
 70
     0
  3
Solid line
 72
    65
 73
     0
 40
0.0
  0
ENDTAB
  0
TABLE
  2
LAYER
  5
2
330
0
100
AcDbSymbolTable
 70
     3
  0
LAYER
  5
10
330
2
100
AcDbSymbolTableRecord
100
AcDbLayerTableRecord
  2
0
 70
     0
 62
     7
  6
Continuous
370
    -3
390
F
347
3E
  0
LAYER
  5
40
330
2
100
AcDbSymbolTableRecord
100
AcDbLayerTableRecord
  2
Layer 2
 70
     1
 62
     7
  6
Continuous
370
    -3
390
F
347
3E
  0
LAYER
  5
41
330
2
100
AcDbSymbolTableRecord
100
AcDbLayerTableRecord
  2
Layer 1
 70
     0
 62
     7
  6
Continuous
370
    -3
390
F
347
3E
  0
ENDTAB
  0
TABLE
  2
STYLE
  5
3
330
0
100
AcDbSymbolTable
 70
     1
  0
STYLE
  5
11
330
3
100
AcDbSymbolTableRecord
100
AcDbTextStyleTableRecord
  2
Standard
 70
     0
 40
0.0
 41
1.0
 50
0.0
 71
     0
 42
0.2
  3
txt
  4

  0
ENDTAB
  0
TABLE
  2
VIEW
  5
6
330
0
100
AcDbSymbolTable
 70
     0
  0
ENDTAB
  0
TABLE
  2
UCS
  5
7
330
0
100
AcDbSymbolTable
 70
     0
  0
ENDTAB
  0
TABLE
  2
APPID
  5
9
330
0
100
AcDbSymbolTable
 70
     1
  0
APPID
  5
12
330
9
100
AcDbSymbolTableRecord
100
AcDbRegAppTableRecord
  2
ACAD
 70
     0
  0
ENDTAB
  0
TABLE
  2
DIMSTYLE
  5
A
330
0
100
AcDbSymbolTable
 70
     1
100
AcDbDimStyleTable
  0
DIMSTYLE
105
27
330
A
100
AcDbSymbolTableRecord
100
AcDbDimStyleTableRecord
  2
Standard
 70
     0
178
     0
340
11
  0
ENDTAB
  0
TABLE
  2
BLOCK_RECORD
  5
1
330
0
100
AcDbSymbolTable
 70
     1
  0
BLOCK_RECORD
  5
1F
330
1
100
AcDbSymbolTableRecord
100
AcDbBlockTableRecord
  2
*Model_Space
340
22
 70
     0
280
     1
281
     0
  0
BLOCK_RECORD
  5
1B
330
1
100
AcDbSymbolTableRecord
100
AcDbBlockTableRecord
  2
*Paper_Space
340
1E
 70
     0
280
     1
281
     0
  0
BLOCK_RECORD
  5
23
330
1
100
AcDbSymbolTableRecord
100
AcDbBlockTableRecord
  2
*Paper_Space0
340
26
 70
     0
280
     1
281
     0
  0
ENDTAB
  0
ENDSEC
  0
SECTION
  2
BLOCKS
  0
BLOCK
  5
20
330
1F
100
AcDbEntity
  8
0
100
AcDbBlockBegin
  2
*Model_Space
 70
     0
 10
0.0
 20
0.0
 30
0.0
  3
*Model_Space
  1

  0
ENDBLK
  5
21
330
1F
100
AcDbEntity
  8
0
100
AcDbBlockEnd
  0
BLOCK
  5
1C
330
1B
100
AcDbEntity
 67
     1
  8
0
100
AcDbBlockBegin
  2
*Paper_Space
 70
     0
 10
0.0
 20
0.0
 30
0.0
  3
*Paper_Space
  1

  0
ENDBLK
  5
1D
330
1B
100
AcDbEntity
 67
     1
  8
0
100
AcDbBlockEnd
  0
BLOCK
  5
24
330
23
100
AcDbEntity
  8
0
100
AcDbBlockBegin
  2
*Paper_Space0
 70
     0
 10
0.0
 20
0.0
 30
0.0
  3
*Paper_Space0
  1

  0
ENDBLK
  5
25
330
23
100
AcDbEntity
  8
0
100
AcDbBlockEnd
  0
ENDSEC
  0
SECTION
  2
ENTITIES
  0
SPLINE
  5
42
330
1F
100
AcDbEntity
  8
Layer 1
370
     0
100
AcDbSpline
210
0.0
220
0.0
230
1.0
 70
    11
 71
     3
 72
   323
 73
   319
 74
     0
 42
0.0000000001
 43
0.0000000001
 12
1.0
 22
0.0
 32
0.0
 13
1.0
 23
0.0
 33
0.0
 40
0.0
 40
0.0
 40
0.0
 40
0.0
 40
1.0
 40
1.0
 40
1.0
 40
2.0
 40
2.0
 40
2.0
 40
3.0
 40
3.0
 40
3.0
 40
4.0
 40
4.0
 40
4.0
 40
5.0
 40
5.0
 40
5.0
 40
6.0
 40
6.0
 40
6.0
 40
7.0
 40
7.0
 40
7.0
 40
8.0
 40
8.0
 40
8.0
 40
9.0
 40
9.0
 40
9.0
 40
10.0
 40
10.0
 40
10.0
 40
11.0
 40
11.0
 40
11.0
 40
12.0
 40
12.0
 40
12.0
 40
13.0
 40
13.0
 40
13.0
 40
14.0
 40
14.0
 40
14.0
 40
15.0
 40
15.0
 40
15.0
 40
16.0
 40
16.0
 40
16.0
 40
17.0
 40
17.0
 40
17.0
 40
18.0
 40
18.0
 40
18.0
 40
19.0
 40
19.0
 40
19.0
 40
20.0
 40
20.0
 40
20.0
 40
21.0
 40
21.0
 40
21.0
 40
22.0
 40
22.0
 40
22.0
 40
23.0
 40
23.0
 40
23.0
 40
24.0
 40
24.0
 40
24.0
 40
25.0
 40
25.0
 40
25.0
 40
26.0
 40
26.0
 40
26.0
 40
27.0
 40
27.0
 40
27.0
 40
28.0
 40
28.0
 40
28.0
 40
29.0
 40
29.0
 40
29.0
 40
30.0
 40
30.0
 40
30.0
 40
31.0
 40
31.0
 40
31.0
 40
32.0
 40
32.0
 40
32.0
 40
33.0
 40
33.0
 40
33.0
 40
34.0
 40
34.0
 40
34.0
 40
35.0
 40
35.0
 40
35.0
 40
36.0
 40
36.0
 40
36.0
 40
37.0
 40
37.0
 40
37.0
 40
38.0
 40
38.0
 40
38.0
 40
39.0
 40
39.0
 40
39.0
 40
40.0
 40
40.0
 40
40.0
 40
41.0
 40
41.0
 40
41.0
 40
42.0
 40
42.0
 40
42.0
 40
43.0
 40
43.0
 40
43.0
 40
44.0
 40
44.0
 40
44.0
 40
45.0
 40
45.0
 40
45.0
 40
46.0
 40
46.0
 40
46.0
 40
47.0
 40
47.0
 40
47.0
 40
48.0
 40
48.0
 40
48.0
 40
49.0
 40
49.0
 40
49.0
 40
50.0
 40
50.0
 40
50.0
 40
51.0
 40
51.0
 40
51.0
 40
52.0
 40
52.0
 40
52.0
 40
53.0
 40
53.0
 40
53.0
 40
54.0
 40
54.0
 40
54.0
 40
55.0
 40
55.0
 40
55.0
 40
56.0
 40
56.0
 40
56.0
 40
57.0
 40
57.0
 40
57.0
 40
58.0
 40
58.0
 40
58.0
 40
59.0
 40
59.0
 40
59.0
 40
60.0
 40
60.0
 40
60.0
 40
61.0
 40
61.0
 40
61.0
 40
62.0
 40
62.0
 40
62.0
 40
63.0
 40
63.0
 40
63.0
 40
64.0
 40
64.0
 40
64.0
 40
65.0
 40
65.0
 40
65.0
 40
66.0
 40
66.0
 40
66.0
 40
67.0
 40
67.0
 40
67.0
 40
68.0
 40
68.0
 40
68.0
 40
69.0
 40
69.0
 40
69.0
 40
70.0
 40
70.0
 40
70.0
 40
71.0
 40
71.0
 40
71.0
 40
72.0
 40
72.0
 40
72.0
 40
73.0
 40
73.0
 40
73.0
 40
74.0
 40
74.0
 40
74.0
 40
75.0
 40
75.0
 40
75.0
 40
76.0
 40
76.0
 40
76.0
 40
77.0
 40
77.0
 40
77.0
 40
78.0
 40
78.0
 40
78.0
 40
79.0
 40
79.0
 40
79.0
 40
80.0
 40
80.0
 40
80.0
 40
81.0
 40
81.0
 40
81.0
 40
82.0
 40
82.0
 40
82.0
 40
83.0
 40
83.0
 40
83.0
 40
84.0
 40
84.0
 40
84.0
 40
85.0
 40
85.0
 40
85.0
 40
86.0
 40
86.0
 40
86.0
 40
87.0
 40
87.0
 40
87.0
 40
88.0
 40
88.0
 40
88.0
 40
89.0
 40
89.0
 40
89.0
 40
90.0
 40
90.0
 40
90.0
 40
91.0
 40
91.0
 40
91.0
 40
92.0
 40
92.0
 40
92.0
 40
93.0
 40
93.0
 40
93.0
 40
94.0
 40
94.0
 40
94.0
 40
95.0
 40
95.0
 40
95.0
 40
96.0
 40
96.0
 40
96.0
 40
97.0
 40
97.0
 40
97.0
 40
98.0
 40
98.0
 40
98.0
 40
99.0
 40
99.0
 40
99.0
 40
100.0
 40
100.0
 40
100.0
 40
101.0
 40
101.0
 40
101.0
 40
102.0
 40
102.0
 40
102.0
 40
103.0
 40
103.0
 40
103.0
 40
104.0
 40
104.0
 40
104.0
 40
105.0
 40
105.0
 40
105.0
 40
106.0
 40
106.0
 40
106.0
 40
106.0
 10
83.76889125570597
 20
-146.9891592934227
 30
0.0
 10
79.90035609945335
 20
-151.7951651527983
 30
0.0
 10
78.13958461508082
 20
-156.9318448402983
 30
0.0
 10
77.40739711507922
 20
-162.4669913246735
 30
0.0
 10
76.17874477132864
 20
-171.7549210121733
 30
0.0
 10
77.29861781820364
 20
-180.4955264809232
 30
0.0
 10
83.89009242758038
 20
-187.7144522621729
 30
0.0
 10
86.6280611775801
 20
-190.7130167152982
 30
0.0
 10
89.74308070883126
 20
-193.373260855923
 30
0.0
 10
92.74513149007907
 20
-196.1235342934233
 30
0.0
 10
98.53053188070407
 20
-201.4236026527979
 30
0.0
 10
101.3481002400804
 20
-208.0903995277986
 30
0.0
 10
101.7915084432061
 20
-215.806288199673
 30
0.0
 10
102.3543014119532
 20
-225.599823355923
 30
0.0
 10
99.09994594320597
 20
-234.6356241371732
 30
0.0
 10
96.29096156820378
 20
-243.8044327309235
 30
0.0
 10
93.93555141195611
 20
-251.4926651527985
 30
0.0
 10
91.70491664632937
 20
-259.284315543423
 30
0.0
 10
90.32400844320364
 20
-267.1882608559235
 30
0.0
 10
88.83180141195407
 20
-275.7290030434224
 30
0.0
 10
88.1588228963301
 20
-284.4367960121735
 30
0.0
 10
87.54144984945378
 20
-293.1011124184233
 30
0.0
 10
86.4868795369548
 20
-307.9014835121734
 30
0.0
 10
85.77001430257951
 20
-322.7257022621743
 30
0.0
 10
84.88234828695568
 20
-337.5382022621743
 30
0.0
 10
83.9185103963282
 20
-353.622128043422
 30
0.0
 10
82.98282680258126
 20
-369.7081631996725
 30
0.0
 10
81.90634242758097
 20
-385.7847061684215
 30
0.0
 10
81.52354945883053
 20
-391.5014053871737
 30
0.0
 10
80.6282369588298
 20
-397.1827725746725
 30
0.0
 10
80.20557094320611
 20
-402.8980069496711
 30
0.0
 10
79.45334438070495
 20
-413.0698233559224
 30
0.0
 10
79.0098189900782
 20
-423.2651358559224
 30
0.0
 10
78.20427211507922
 20
-433.4322061684206
 30
0.0
 10
77.21456508382835
 20
-445.9238663246715
 30
0.0
 10
75.89034633382835
 20
-458.388924918424
 30
0.0
 10
74.8865475057064
 20
-470.879530387173
 30
0.0
 10
73.78835414633068
 20
-484.5448233559209
 30
0.0
 10
72.91811977132966
 20
-498.228280387174
 30
0.0
 10
71.89697719320611
 20
-511.8999600746711
 30
0.0
 10
71.1433736775798
 20
-521.9903311684238
 30
0.0
 10
70.26590297445364
 20
-532.0715616371735
 30
0.0
 10
69.51657680257995
 20
-542.1622256996743
 30
0.0
 10
68.19874477132907
 20
-559.9085733559223
 30
0.0
 10
66.9172994588298
 20
-577.6577335121729
 30
0.0
 10
65.6580904744551
 20
-595.4083585121734
 30
0.0
 10
64.80071742758082
 20
-607.494549918425
 30
0.0
 10
62.34147914632922
 20
-619.2453506996717
 30
0.0
 10
58.34365688070466
 20
-630.6707803871723
 30
0.0
 10
57.88583461508097
 20
-631.979296012174
 30
0.0
 10
56.96087367758082
 20
-633.1243350746736
 30
0.0
 10
56.2525045369548
 20
-634.3451944496737
 30
0.0
 10
56.0027486775798
 20
-634.331600699672
 30
0.0
 10
55.7529928182048
 20
-634.3180655434226
 30
0.0
 10
55.5032369588298
 20
-634.3044717934245
 30
0.0
 10
55.5032369588298
 20
-630.3752335121717
 30
0.0
 10
55.46145961507864
 20
-626.4454092934247
 30
0.0
 10
55.51085414633053
 20
-622.5168155434221
 30
0.0
 10
55.67644008382922
 20
-609.3524991371742
 30
0.0
 10
55.91819789633155
 20
-596.1890616371747
 30
0.0
 10
56.04095180258082
 20
-583.0244522621724
 30
0.0
 10
56.09819789633184
 20
-576.8823038246737
 30
0.0
 10
55.87888149007995
 20
-570.7379288246739
 30
0.0
 10
55.90735805258009
 20
-564.595135855925
 30
0.0
 10
55.97951625570568
 20
-549.0291788246723
 30
0.0
 10
56.0056783650798
 20
-533.4615811684225
 30
0.0
 10
56.27148891195611
 20
-517.8984366371724
 30
0.0
 10
56.47870570882878
 20
-505.7663077309217
 30
0.0
 10
57.21827602132907
 20
-493.6422061684234
 30
0.0
 10
57.35708461507966
 20
-481.5103702309234
 30
0.0
 10
57.51147914633111
 20
-468.0107803871715
 30
0.0
 10
57.1663326619564
 20
-454.5063272621728
 30
0.0
 10
57.2007564900814
 20
-441.0043936684224
 30
0.0
 10
57.2315182088314
 20
-428.9375967934238
 30
0.0
 10
57.52914516195597
 20
-416.8716788246738
 30
0.0
 10
57.62386195882937
 20
-404.8047061684219
 30
0.0
 10
57.71582484945611
 20
-393.0911124184231
 30
0.0
 10
57.61990688070364
 20
-381.3758194496722
 30
0.0
 10
57.75760219320364
 20
-369.6629874184209
 30
0.0
 10
57.8552779744532
 20
-361.3566202309221
 30
0.0
 10
58.23162563070582
 20
-353.053885855923
 30
0.0
 10
58.43128383383009
 20
-344.7482803871717
 30
0.0
 10
58.5615963338314
 20
-339.3288272621721
 30
0.0
 10
58.60987758382907
 20
-333.9072061684237
 30
0.0
 10
58.67441859945393
 20
-328.4863467934229
 30
0.0
 10
58.78281703695393
 20
-319.378827262175
 30
0.0
 10
58.90879359945393
 20
-310.2713077309227
 30
0.0
 10
58.96469203695597
 20
-301.1633780434231
 30
0.0
 10
59.0259518025814
 20
-291.181610465298
 30
0.0
 10
59.02149867757907
 20
-281.1994034340487
 30
0.0
 10
59.03600063070553
 20
-271.2174014809234
 30
0.0
 10
59.05372524007907
 20
-259.011444449673
 30
0.0
 10
59.16868617757791
 20
-246.8040811684232
 30
0.0
 10
59.00869594320466
 20
-234.6003799965483
 30
0.0
 10
58.9600338338314
 20
-230.8895206215484
 30
0.0
 10
60.98813930257893
 20
-228.3305557777985
 30
0.0
 10
62.7439596150798
 20
-225.5310342934235
 30
0.0
 10
64.64113734945568
 20
-222.506073355923
 30
0.0
 10
66.60666469320495
 20
-219.5239737465481
 30
0.0
 10
68.91927211507937
 20
-215.938856559048
 30
0.0
 10
59.64282680258111
 20
-215.5033292152984
 30
0.0
 10
50.88262172445593
 20
-215.0920596840479
 30
0.0
 10
41.44023891195593
 20
-214.6487393715479
 30
0.0
 10
42.06133266195593
 20
-216.0796280434233
 30
0.0
 10
42.31120570883104
 20
-216.940399527798
 30
0.0
 10
42.77154750570571
 20
-217.6679581215485
 30
0.0
 10
45.16061977133086
 20
-221.4437979652985
 30
0.0
 10
47.83715297445542
 20
-225.0617276527983
 30
0.0
 10
49.92177211508078
 20
-228.995331168423
 30
0.0
 10
50.86337367758097
 20
-230.7720401527986
 30
0.0
 10
50.93477016195538
 20
-233.1531436684236
 30
0.0
 10
50.93679164633068
 20
-235.2605264809235
 30
0.0
 10
50.94727992758089
 20
-246.0932803871729
 30
0.0
 10
50.85944789633049
 20
-256.9269424965487
 30
0.0
 10
50.70604945883042
 20
-267.7589053871734
 30
0.0
 10
50.50955531820546
 20
-281.634286246549
 30
0.0
 10
50.13645961508064
 20
-295.5075284340483
 30
0.0
 10
49.99633266195542
 20
-309.3832608559233
 30
0.0
 10
49.90606899008071
 20
-318.324432730923
 30
0.0
 10
50.16944789633089
 20
-327.2686514809247
 30
0.0
 10
50.14275844320582
 20
-336.211112418423
 30
0.0
 10
50.11533656820575
 20
-345.3720108559246
 30
0.0
 10
49.86013149008068
 20
-354.532147574675
 30
0.0
 10
49.82986781820546
 20
-363.6930460121721
 30
0.0
 10
49.80224086508042
 20
-372.0533194496738
 30
0.0
 10
50.03893031820553
 20
-380.4147647621712
 30
0.0
 10
49.98068813070586
 20
-388.7745108559238
 30
0.0
 10
49.92563930258075
 20
-396.6783975746721
 30
0.0
 10
49.5375435994556
 20
-404.5799405434218
 30
0.0
 10
49.48451625570578
 20
-412.4838858559224
 30
0.0
 10
49.44010219320535
 20
-419.1022842934208
 30
0.0
 10
49.82096156820535
 20
-425.7245499184237
 30
0.0
 10
49.73474086508031
 20
-432.3414835121721
 30
0.0
 10
49.637094380706
 20
-439.8318741371722
 30
0.0
 10
49.1486861775802
 20
-447.3164639809211
 30
0.0
 10
48.97762172445528
 20
-454.8069131996735
 30
0.0
 10
48.80283656820575
 20
-462.4599014809237
 30
0.0
 10
48.803598286956
 20
-470.1171085121741
 30
0.0
 10
48.7334029744552
 20
-477.7724405434228
 30
0.0
 10
48.66405727133042
 20
-485.3374796059206
 30
0.0
 10
48.638070943206
 20
-492.9031046059235
 30
0.0
 10
48.52902797445586
 20
-500.4675577309235
 30
0.0
 10
48.33221156820582
 20
-514.1211905434238
 30
0.0
 10
47.95381313070538
 20
-527.7735342934238
 30
0.0
 10
47.89850063070571
 20
-541.4274014809234
 30
0.0
 10
47.836068990081
 20
-556.8397842934246
 30
0.0
 10
48.07536586508104
 20
-572.2530460121743
 30
0.0
 10
48.128305318206
 20
-587.666190543423
 30
0.0
 10
48.16694789633038
 20
-598.9217569496723
 30
0.0
 10
48.0998580525802
 20
-610.1776163246723
 30
0.0
 10
48.11617641195517
 20
-621.4333585121749
 30
0.0
 10
48.12068813070528
 20
-624.5484952309234
 30
0.0
 10
48.28387172445582
 20
-627.6632803871726
 30
0.0
 10
48.31012172445571
 20
-630.7787686684242
 30
0.0
 10
48.31718227133024
 20
-631.6155460121736
 30
0.0
 10
48.08840297445568
 20
-632.4544327309231
 30
0.0
 10
47.869027974456
 20
-633.980038199672
 30
0.0
 10
46.81425258383024
 20
-632.925467887173
 30
0.0
 10
45.93563930258097
 20
-632.412889762174
 30
0.0
 10
45.61568813070517
 20
-631.6622452309239
 30
0.0
 10
44.398813130706
 20
-628.8072647621739
 30
0.0
 10
43.00562953695589
 20
-625.9565616371729
 30
0.0
 10
42.32315883383035
 20
-622.9574991371737
 30
0.0
 10
39.97794399008035
 20
-612.6516788246736
 30
0.0
 10
39.07999477133035
 20
-602.1776944496742
 30
0.0
 10
38.69793422445582
 20
-591.6041006996747
 30
0.0
 10
38.06638149008086
 20
-574.1244717934242
 30
0.0
 10
37.07145961508104
 20
-556.6555069496717
 30
0.0
 10
36.03358852133078
 20
-539.1937491371709
 30
0.0
 10
35.22411586508042
 20
-525.5743350746734
 30
0.0
 10
34.02810024008068
 20
-511.9780655434215
 30
0.0
 10
33.18710414633097
 20
-498.3602335121714
 30
0.0
 10
32.86788539633017
 20
-493.1910928871721
 30
0.0
 10
33.2748482869556
 20
-487.9778311684231
 30
0.0
 10
32.97481899008017
 20
-482.8065811684237
 30
0.0
 10
32.41082484945582
 20
-473.0850577309238
 30
0.0
 10
31.48976039633089
 20
-463.3848038246715
 30
0.0
 10
30.87060024008042
 20
-453.6659171059209
 30
0.0
 10
30.06859828695542
 20
-441.0761710121724
 30
0.0
 10
29.39852016195528
 20
-428.4778116371735
 30
0.0
 10
28.70614711508097
 20
-415.8812686684241
 30
0.0
 10
28.20651820883086
 20
-406.7924991371719
 30
0.0
 10
27.7794869588306
 20
-397.6996866371728
 30
0.0
 10
27.29019984945535
 20
-388.6102725746741
 30
0.0
 10
26.73262172445538
 20
-378.2520694496734
 30
0.0
 10
26.14469203695535
 20
-367.8954483559237
 30
0.0
 10
25.56446742758089
 20
-357.5384756996709
 30
0.0
 10
25.17616664633078
 20
-350.6068936684242
 30
0.0
 10
24.70120570883046
 20
-343.6792374184224
 30
0.0
 10
24.40108852133017
 20
-336.7439053871749
 30
0.0
 10
23.80061977133028
 20
-322.8688467934226
 30
0.0
 10
23.43259242758086
 20
-308.9824210121724
 30
0.0
 10
22.6972115682056
 20
-295.1150967934236
 30
0.0
 10
22.23716274008075
 20
-286.4400577309234
 30
0.0
 10
21.82712367758086
 20
-277.6987491371738
 30
0.0
 10
20.37807094320578
 20
-269.1596768715481
 30
0.0
 10
19.19784633383097
 20
-262.2049210121731
 30
0.0
 10
16.57451625570593
 20
-255.4856534340479
 30
0.0
 10
14.46780727133046
 20
-248.7002628090486
 30
0.0
 10
12.572885396331
 20
-242.5970206215479
 30
0.0
 10
10.3647506307052
 20
-236.5886710121731
 30
0.0
 10
8.561586568205712
 20
-230.4599698402981
 30
0.0
 10
6.675717427580821
 20
-224.0501651527984
 30
0.0
 10
7.156654927580348
 20
-217.6148721840482
 30
0.0
 10
9.580033833830385
 20
-211.4278995277982
 30
0.0
 10
11.66975063070549
 20
-206.092704215298
 30
0.0
 10
15.19542445883053
 20
-201.6578311684234
 30
0.0
 10
19.01787563070593
 20
-197.4270401527983
 30
0.0
 10
22.92379359945517
 20
-193.1037881996735
 30
0.0
 10
26.91335414633068
 20
-188.8175674965487
 30
0.0
 10
30.40732875570575
 20
-184.1700870277982
 30
0.0
 10
35.13751430258071
 20
-177.8783194496737
 30
0.0
 10
36.19773891195564
 20
-170.6466495277982
 30
0.0
 10
34.36560024008031
 20
-163.023368277798
 30
0.0
 10
33.54874477133035
 20
-159.6246378090482
 30
0.0
 10
32.69163539633064
 20
-156.2241202309233
 30
0.0
 10
31.59798305258028
 20
-152.908417105923
 30
0.0
 10
31.06961391195546
 20
-151.3065225746732
 30
0.0
 10
29.95231899008104
 20
-149.8988663246737
 30
0.0
 10
28.89314906820528
 20
-148.0366397621738
 30
0.0
 10
31.431283833831
 20
-147.5552921059234
 30
0.0
 10
33.75367641195589
 20
-147.3954190590484
 30
0.0
 10
35.86056117758017
 20
-146.6369229652983
 30
0.0
 10
37.99445766195549
 20
-145.8687296059234
 30
0.0
 10
40.08616664633064
 20
-144.7298135902984
 30
0.0
 10
41.88016078695546
 20
-143.343924918423
 30
0.0
 10
43.59057094320542
 20
-142.0226065590477
 30
0.0
 10
45.66892055258086
 20
-140.7480753090485
 30
0.0
 10
46.06354945883049
 20
-138.318983512173
 30
0.0
 10
43.22002406820593
 20
-139.940887809048
 30
0.0
 10
40.59352992758068
 20
-141.7330655434234
 30
0.0
 10
37.73693813070531
 20
-143.0108487465486
 30
0.0
 10
30.429330708831
 20
-146.2795303871735
 30
0.0
 10
20.54418422445542
 20
-141.5686221840488
 30
0.0
 10
18.55861781820568
 20
-134.0609171059232
 30
0.0
 10
17.61947719320597
 20
-130.5097549965485
 30
0.0
 10
19.05306117758028
 20
-127.3948819496736
 30
0.0
 10
20.618539693206
 20
-124.4631436684231
 30
0.0
 10
22.06773891195553
 20
-121.7490811684229
 30
0.0
 10
24.0228951619556
 20
-119.3003018715481
 30
0.0
 10
25.80695766195549
 20
-116.7711905434235
 30
0.0
 10
28.07289516195578
 20
-113.5589639809232
 30
0.0
 10
29.63646938070542
 20
-109.3262979652982
 30
0.0
 10
29.5578658650802
 20
-106.2943936684233
 30
0.0
 10
29.01578578695535
 20
-106.0774210121735
 30
0.0
 10
28.42510219320593
 20
-105.8665128090479
 30
0.0
 10
27.85551234945524
 20
-105.6091104652978
 30
0.0
 10
21.58902797445535
 20
-102.7773038246733
 30
0.0
 10
20.14275844320582
 20
-95.81636632467325
 30
0.0
 10
25.16022914633049
 20
-91.1024112465484
 30
0.0
 10
28.90724086508089
 20
-87.58204015279807
 30
0.0
 10
33.09575649008093
 20
-84.515799918423
 30
0.0
 10
37.19969203695564
 20
-81.39459874654858
 30
0.0
 10
44.19985805258057
 20
-76.07071202779844
 30
0.0
 10
50.02360805258104
 20
-70.04504796529818
 30
0.0
 10
49.90038539633042
 20
-60.47731847311115
 30
0.0
 10
49.81838344320568
 20
-54.11022862936079
 30
0.0
 10
46.81457484945531
 20
-48.78035069967336
 30
0.0
 10
42.9956100057052
 20
-44.01272374654855
 30
0.0
 10
39.60965297445546
 20
-39.78571202779858
 30
0.0
 10
37.87369594320535
 20
-35.06595616842333
 30
0.0
 10
38.18966274008017
 20
-29.84995519186032
 30
0.0
 10
38.44278774008035
 20
-25.67154698873583
 30
0.0
 10
39.44758266195549
 20
-21.49608312154851
 30
0.0
 10
40.50637172445568
 20
-17.41999425436097
 30
0.0
 10
41.79270961508064
 20
-12.46791417623626
 30
0.0
 10
45.41312953695524
 20
-9.248085074673327
 30
0.0
 10
49.74016078695604
 20
-6.923627066860718
 30
0.0
 10
57.45019008382951
 20
-2.781869254360572
 30
0.0
 10
66.98726039633038
 20
-6.2158145668609
 30
0.0
 10
71.3684615682032
 20
-13.82072667623561
 30
0.0
 10
76.95388149008068
 20
-23.51605870748608
 30
0.0
 10
74.47469203695437
 20
-32.58114171529814
 30
0.0
 10
70.14229945882835
 20
-41.6163272621734
 30
0.0
 10
68.2193697713301
 20
-45.62658605123579
 30
0.0
 10
65.38102992757922
 20
-49.2236856606105
 30
0.0
 10
63.67832484945393
 20
-53.30849034811126
 30
0.0
 10
59.83483852132849
 20
-62.52892003561101
 30
0.0
 10
62.13396938070582
 20
-71.31125890279782
 30
0.0
 10
69.40647914632791
 20
-78.13250890279869
 30
0.0
 10
72.78783656820451
 20
-81.30404210592314
 30
0.0
 10
76.22260219320378
 20
-84.24779210592351
 30
0.0
 10
80.27046352133038
 20
-86.64700109029855
 30
0.0
 10
83.46019008382791
 20
-88.53761632467376
 30
0.0
 10
86.86149867757922
 20
-90.95718663717344
 30
0.0
 10
87.79120570882878
 20
-94.96186437154847
 30
0.0
 10
88.28811000570568
 20
-97.10232335592355
 30
0.0
 10
87.91776820883024
 20
-99.48181554342318
 30
0.0
 10
87.68544399007806
 20
-101.7272159340482
 30
0.0
 10
87.62790492757995
 20
-102.2832706215486
 30
0.0
 10
86.65861781820422
 20
-102.9096085121737
 30
0.0
 10
85.97869594320582
 20
-103.2031924965486
 30
0.0
 10
84.45033656820306
 20
-103.8630460121731
 30
0.0
 10
82.8406490682064
 20
-104.3345206215481
 30
0.0
 10
80.8787252400798
 20
-105.0166690590486
 30
0.0
 10
81.72452602133126
 20
-107.314422965298
 30
0.0
 10
82.32836391195451
 20
-109.8043057777986
 30
0.0
 10
83.51113734945466
 20
-111.979422965298
 30
0.0
 10
85.55852016195422
 20
-115.7445694496737
 30
0.0
 10
87.88891078695451
 20
-119.364227652798
 30
0.0
 10
90.2389010213301
 20
-122.9543546059231
 30
0.0
 10
93.45279750570626
 20
-127.8643057777981
 30
0.0
 10
93.3887252400782
 20
-134.871796012173
 30
0.0
 10
89.69447719320306
 20
-139.3393350746728
 30
0.0
 10
87.6165084432032
 20
-141.852186637173
 30
0.0
 10
84.66036586507835
 20
-143.137587027798
 30
0.0
 10
81.42153774007966
 20
-142.9320108559232
 30
0.0
 10
77.63907680258126
 20
-142.6919522621729
 30
0.0
 10
73.76805141195291
 20
-142.4894229652982
 30
0.0
 10
70.55594203695364
 20
-139.9045010902983
 30
0.0
 10
69.82633266195626
 20
-139.3173917152981
 30
0.0
 10
68.69163539632791
 20
-139.2336026527983
 30
0.0
 10
67.75228969320597
 20
-138.9210928871735
 30
0.0
 10
67.76644008382937
 20
-141.7535440590482
 30
0.0
 10
70.68669399007922
 20
-143.2193546059234
 30
0.0
 10
74.3689596150798
 20
-144.7495010902985
 30
0.0
 10
77.1589889119532
 20
-145.908866324673
 30
0.0
 10
80.30854945883038
 20
-146.2030069496732
 30
0.0
 10
83.76889125570597
 20
-146.9891592934227
 30
0.0
  0
SPLINE
  5
43
330
1F
100
AcDbEntity
  8
Layer 1
370
     0
100
AcDbSpline
210
0.0
220
0.0
230
1.0
 70
    11
 71
     3
 72
    20
 73
    16
 74
     0
 42
0.0000000001
 43
0.0000000001
 12
1.0
 22
0.0
 32
0.0
 13
1.0
 23
0.0
 33
0.0
 40
0.0
 40
0.0
 40
0.0
 40
0.0
 40
1.0
 40
1.0
 40
1.0
 40
2.0
 40
2.0
 40
2.0
 40
3.0
 40
3.0
 40
3.0
 40
4.0
 40
4.0
 40
4.0
 40
5.0
 40
5.0
 40
5.0
 40
5.0
 10
58.91254359945378
 20
-185.8630948402979
 30
0.0
 10
58.89168422445437
 20
-185.536551871548
 30
0.0
 10
58.87082484945495
 20
-185.2100089027981
 30
0.0
 10
58.84996547445553
 20
-184.8834952309235
 30
0.0
 10
57.92497524007922
 20
-184.3867374184229
 30
0.0
 10
56.91016078695611
 20
-183.3938956215479
 30
0.0
 10
56.10159633382864
 20
-183.5402628090478
 30
0.0
 10
55.37145961507849
 20
-183.6724210121729
 30
0.0
 10
54.57830531820582
 20
-184.989432730923
 30
0.0
 10
54.38468227133035
 20
-185.9048721840481
 30
0.0
 10
54.28794399008075
 20
-186.3621671059236
 30
0.0
 10
55.60762172445538
 20
-187.6797647621734
 30
0.0
 10
56.04332484945553
 20
-187.5769913246731
 30
0.0
 10
57.0769771932064
 20
-187.3330655434229
 30
0.0
 10
57.9654049275814
 20
-186.4737003090486
 30
0.0
 10
58.91254359945378
 20
-185.8630948402979
 30
0.0
  0
HATCH
  5
44
330
1F
100
AcDbEntity
  8
Layer 1
 62
     7
420
 16777215
100
AcDbHatch
 10
0.0
 20
0.0
 30
0.0
210
0.0
220
0.0
230
1.0
  2
SOLID
 70
     1
 71
     0
 91
        2
 92
        1
 93
        1
 72
     4
 94
        3
 73
     0
 74
     1
 95
      323
 96
      319
 40
0.0
 40
0.0
 40
0.0
 40
0.0
 40
1.0
 40
1.0
 40
1.0
 40
2.0
 40
2.0
 40
2.0
 40
3.0
 40
3.0
 40
3.0
 40
4.0
 40
4.0
 40
4.0
 40
5.0
 40
5.0
 40
5.0
 40
6.0
 40
6.0
 40
6.0
 40
7.0
 40
7.0
 40
7.0
 40
8.0
 40
8.0
 40
8.0
 40
9.0
 40
9.0
 40
9.0
 40
10.0
 40
10.0
 40
10.0
 40
11.0
 40
11.0
 40
11.0
 40
12.0
 40
12.0
 40
12.0
 40
13.0
 40
13.0
 40
13.0
 40
14.0
 40
14.0
 40
14.0
 40
15.0
 40
15.0
 40
15.0
 40
16.0
 40
16.0
 40
16.0
 40
17.0
 40
17.0
 40
17.0
 40
18.0
 40
18.0
 40
18.0
 40
19.0
 40
19.0
 40
19.0
 40
20.0
 40
20.0
 40
20.0
 40
21.0
 40
21.0
 40
21.0
 40
22.0
 40
22.0
 40
22.0
 40
23.0
 40
23.0
 40
23.0
 40
24.0
 40
24.0
 40
24.0
 40
25.0
 40
25.0
 40
25.0
 40
26.0
 40
26.0
 40
26.0
 40
27.0
 40
27.0
 40
27.0
 40
28.0
 40
28.0
 40
28.0
 40
29.0
 40
29.0
 40
29.0
 40
30.0
 40
30.0
 40
30.0
 40
31.0
 40
31.0
 40
31.0
 40
32.0
 40
32.0
 40
32.0
 40
33.0
 40
33.0
 40
33.0
 40
34.0
 40
34.0
 40
34.0
 40
35.0
 40
35.0
 40
35.0
 40
36.0
 40
36.0
 40
36.0
 40
37.0
 40
37.0
 40
37.0
 40
38.0
 40
38.0
 40
38.0
 40
39.0
 40
39.0
 40
39.0
 40
40.0
 40
40.0
 40
40.0
 40
41.0
 40
41.0
 40
41.0
 40
42.0
 40
42.0
 40
42.0
 40
43.0
 40
43.0
 40
43.0
 40
44.0
 40
44.0
 40
44.0
 40
45.0
 40
45.0
 40
45.0
 40
46.0
 40
46.0
 40
46.0
 40
47.0
 40
47.0
 40
47.0
 40
48.0
 40
48.0
 40
48.0
 40
49.0
 40
49.0
 40
49.0
 40
50.0
 40
50.0
 40
50.0
 40
51.0
 40
51.0
 40
51.0
 40
52.0
 40
52.0
 40
52.0
 40
53.0
 40
53.0
 40
53.0
 40
54.0
 40
54.0
 40
54.0
 40
55.0
 40
55.0
 40
55.0
 40
56.0
 40
56.0
 40
56.0
 40
57.0
 40
57.0
 40
57.0
 40
58.0
 40
58.0
 40
58.0
 40
59.0
 40
59.0
 40
59.0
 40
60.0
 40
60.0
 40
60.0
 40
61.0
 40
61.0
 40
61.0
 40
62.0
 40
62.0
 40
62.0
 40
63.0
 40
63.0
 40
63.0
 40
64.0
 40
64.0
 40
64.0
 40
65.0
 40
65.0
 40
65.0
 40
66.0
 40
66.0
 40
66.0
 40
67.0
 40
67.0
 40
67.0
 40
68.0
 40
68.0
 40
68.0
 40
69.0
 40
69.0
 40
69.0
 40
70.0
 40
70.0
 40
70.0
 40
71.0
 40
71.0
 40
71.0
 40
72.0
 40
72.0
 40
72.0
 40
73.0
 40
73.0
 40
73.0
 40
74.0
 40
74.0
 40
74.0
 40
75.0
 40
75.0
 40
75.0
 40
76.0
 40
76.0
 40
76.0
 40
77.0
 40
77.0
 40
77.0
 40
78.0
 40
78.0
 40
78.0
 40
79.0
 40
79.0
 40
79.0
 40
80.0
 40
80.0
 40
80.0
 40
81.0
 40
81.0
 40
81.0
 40
82.0
 40
82.0
 40
82.0
 40
83.0
 40
83.0
 40
83.0
 40
84.0
 40
84.0
 40
84.0
 40
85.0
 40
85.0
 40
85.0
 40
86.0
 40
86.0
 40
86.0
 40
87.0
 40
87.0
 40
87.0
 40
88.0
 40
88.0
 40
88.0
 40
89.0
 40
89.0
 40
89.0
 40
90.0
 40
90.0
 40
90.0
 40
91.0
 40
91.0
 40
91.0
 40
92.0
 40
92.0
 40
92.0
 40
93.0
 40
93.0
 40
93.0
 40
94.0
 40
94.0
 40
94.0
 40
95.0
 40
95.0
 40
95.0
 40
96.0
 40
96.0
 40
96.0
 40
97.0
 40
97.0
 40
97.0
 40
98.0
 40
98.0
 40
98.0
 40
99.0
 40
99.0
 40
99.0
 40
100.0
 40
100.0
 40
100.0
 40
101.0
 40
101.0
 40
101.0
 40
102.0
 40
102.0
 40
102.0
 40
103.0
 40
103.0
 40
103.0
 40
104.0
 40
104.0
 40
104.0
 40
105.0
 40
105.0
 40
105.0
 40
106.0
 40
106.0
 40
106.0
 40
106.0
 10
83.76889125570597
 20
-146.9891592934227
 10
79.90035609945335
 20
-151.7951651527983
 10
78.13958461508082
 20
-156.9318448402983
 10
77.40739711507922
 20
-162.4669913246735
 10
76.17874477132864
 20
-171.7549210121733
 10
77.29861781820364
 20
-180.4955264809232
 10
83.89009242758038
 20
-187.7144522621729
 10
86.6280611775801
 20
-190.7130167152982
 10
89.74308070883126
 20
-193.373260855923
 10
92.74513149007907
 20
-196.1235342934233
 10
98.53053188070407
 20
-201.4236026527979
 10
101.3481002400804
 20
-208.0903995277986
 10
101.7915084432061
 20
-215.806288199673
 10
102.3543014119532
 20
-225.599823355923
 10
99.09994594320597
 20
-234.6356241371732
 10
96.29096156820378
 20
-243.8044327309235
 10
93.93555141195611
 20
-251.4926651527985
 10
91.70491664632937
 20
-259.284315543423
 10
90.32400844320364
 20
-267.1882608559235
 10
88.83180141195407
 20
-275.7290030434224
 10
88.1588228963301
 20
-284.4367960121735
 10
87.54144984945378
 20
-293.1011124184233
 10
86.4868795369548
 20
-307.9014835121734
 10
85.77001430257951
 20
-322.7257022621743
 10
84.88234828695568
 20
-337.5382022621743
 10
83.9185103963282
 20
-353.622128043422
 10
82.98282680258126
 20
-369.7081631996725
 10
81.90634242758097
 20
-385.7847061684215
 10
81.52354945883053
 20
-391.5014053871737
 10
80.6282369588298
 20
-397.1827725746725
 10
80.20557094320611
 20
-402.8980069496711
 10
79.45334438070495
 20
-413.0698233559224
 10
79.0098189900782
 20
-423.2651358559224
 10
78.20427211507922
 20
-433.4322061684206
 10
77.21456508382835
 20
-445.9238663246715
 10
75.89034633382835
 20
-458.388924918424
 10
74.8865475057064
 20
-470.879530387173
 10
73.78835414633068
 20
-484.5448233559209
 10
72.91811977132966
 20
-498.228280387174
 10
71.89697719320611
 20
-511.8999600746711
 10
71.1433736775798
 20
-521.9903311684238
 10
70.26590297445364
 20
-532.0715616371735
 10
69.51657680257995
 20
-542.1622256996743
 10
68.19874477132907
 20
-559.9085733559223
 10
66.9172994588298
 20
-577.6577335121729
 10
65.6580904744551
 20
-595.4083585121734
 10
64.80071742758082
 20
-607.494549918425
 10
62.34147914632922
 20
-619.2453506996717
 10
58.34365688070466
 20
-630.6707803871723
 10
57.88583461508097
 20
-631.979296012174
 10
56.96087367758082
 20
-633.1243350746736
 10
56.2525045369548
 20
-634.3451944496737
 10
56.0027486775798
 20
-634.331600699672
 10
55.7529928182048
 20
-634.3180655434226
 10
55.5032369588298
 20
-634.3044717934245
 10
55.5032369588298
 20
-630.3752335121717
 10
55.46145961507864
 20
-626.4454092934247
 10
55.51085414633053
 20
-622.5168155434221
 10
55.67644008382922
 20
-609.3524991371742
 10
55.91819789633155
 20
-596.1890616371747
 10
56.04095180258082
 20
-583.0244522621724
 10
56.09819789633184
 20
-576.8823038246737
 10
55.87888149007995
 20
-570.7379288246739
 10
55.90735805258009
 20
-564.595135855925
 10
55.97951625570568
 20
-549.0291788246723
 10
56.0056783650798
 20
-533.4615811684225
 10
56.27148891195611
 20
-517.8984366371724
 10
56.47870570882878
 20
-505.7663077309217
 10
57.21827602132907
 20
-493.6422061684234
 10
57.35708461507966
 20
-481.5103702309234
 10
57.51147914633111
 20
-468.0107803871715
 10
57.1663326619564
 20
-454.5063272621728
 10
57.2007564900814
 20
-441.0043936684224
 10
57.2315182088314
 20
-428.9375967934238
 10
57.52914516195597
 20
-416.8716788246738
 10
57.62386195882937
 20
-404.8047061684219
 10
57.71582484945611
 20
-393.0911124184231
 10
57.61990688070364
 20
-381.3758194496722
 10
57.75760219320364
 20
-369.6629874184209
 10
57.8552779744532
 20
-361.3566202309221
 10
58.23162563070582
 20
-353.053885855923
 10
58.43128383383009
 20
-344.7482803871717
 10
58.5615963338314
 20
-339.3288272621721
 10
58.60987758382907
 20
-333.9072061684237
 10
58.67441859945393
 20
-328.4863467934229
 10
58.78281703695393
 20
-319.378827262175
 10
58.90879359945393
 20
-310.2713077309227
 10
58.96469203695597
 20
-301.1633780434231
 10
59.0259518025814
 20
-291.181610465298
 10
59.02149867757907
 20
-281.1994034340487
 10
59.03600063070553
 20
-271.2174014809234
 10
59.05372524007907
 20
-259.011444449673
 10
59.16868617757791
 20
-246.8040811684232
 10
59.00869594320466
 20
-234.6003799965483
 10
58.9600338338314
 20
-230.8895206215484
 10
60.98813930257893
 20
-228.3305557777985
 10
62.7439596150798
 20
-225.5310342934235
 10
64.64113734945568
 20
-222.506073355923
 10
66.60666469320495
 20
-219.5239737465481
 10
68.91927211507937
 20
-215.938856559048
 10
59.64282680258111
 20
-215.5033292152984
 10
50.88262172445593
 20
-215.0920596840479
 10
41.44023891195593
 20
-214.6487393715479
 10
42.06133266195593
 20
-216.0796280434233
 10
42.31120570883104
 20
-216.940399527798
 10
42.77154750570571
 20
-217.6679581215485
 10
45.16061977133086
 20
-221.4437979652985
 10
47.83715297445542
 20
-225.0617276527983
 10
49.92177211508078
 20
-228.995331168423
 10
50.86337367758097
 20
-230.7720401527986
 10
50.93477016195538
 20
-233.1531436684236
 10
50.93679164633068
 20
-235.2605264809235
 10
50.94727992758089
 20
-246.0932803871729
 10
50.85944789633049
 20
-256.9269424965487
 10
50.70604945883042
 20
-267.7589053871734
 10
50.50955531820546
 20
-281.634286246549
 10
50.13645961508064
 20
-295.5075284340483
 10
49.99633266195542
 20
-309.3832608559233
 10
49.90606899008071
 20
-318.324432730923
 10
50.16944789633089
 20
-327.2686514809247
 10
50.14275844320582
 20
-336.211112418423
 10
50.11533656820575
 20
-345.3720108559246
 10
49.86013149008068
 20
-354.532147574675
 10
49.82986781820546
 20
-363.6930460121721
 10
49.80224086508042
 20
-372.0533194496738
 10
50.03893031820553
 20
-380.4147647621712
 10
49.98068813070586
 20
-388.7745108559238
 10
49.92563930258075
 20
-396.6783975746721
 10
49.5375435994556
 20
-404.5799405434218
 10
49.48451625570578
 20
-412.4838858559224
 10
49.44010219320535
 20
-419.1022842934208
 10
49.82096156820535
 20
-425.7245499184237
 10
49.73474086508031
 20
-432.3414835121721
 10
49.637094380706
 20
-439.8318741371722
 10
49.1486861775802
 20
-447.3164639809211
 10
48.97762172445528
 20
-454.8069131996735
 10
48.80283656820575
 20
-462.4599014809237
 10
48.803598286956
 20
-470.1171085121741
 10
48.7334029744552
 20
-477.7724405434228
 10
48.66405727133042
 20
-485.3374796059206
 10
48.638070943206
 20
-492.9031046059235
 10
48.52902797445586
 20
-500.4675577309235
 10
48.33221156820582
 20
-514.1211905434238
 10
47.95381313070538
 20
-527.7735342934238
 10
47.89850063070571
 20
-541.4274014809234
 10
47.836068990081
 20
-556.8397842934246
 10
48.07536586508104
 20
-572.2530460121743
 10
48.128305318206
 20
-587.666190543423
 10
48.16694789633038
 20
-598.9217569496723
 10
48.0998580525802
 20
-610.1776163246723
 10
48.11617641195517
 20
-621.4333585121749
 10
48.12068813070528
 20
-624.5484952309234
 10
48.28387172445582
 20
-627.6632803871726
 10
48.31012172445571
 20
-630.7787686684242
 10
48.31718227133024
 20
-631.6155460121736
 10
48.08840297445568
 20
-632.4544327309231
 10
47.869027974456
 20
-633.980038199672
 10
46.81425258383024
 20
-632.925467887173
 10
45.93563930258097
 20
-632.412889762174
 10
45.61568813070517
 20
-631.6622452309239
 10
44.398813130706
 20
-628.8072647621739
 10
43.00562953695589
 20
-625.9565616371729
 10
42.32315883383035
 20
-622.9574991371737
 10
39.97794399008035
 20
-612.6516788246736
 10
39.07999477133035
 20
-602.1776944496742
 10
38.69793422445582
 20
-591.6041006996747
 10
38.06638149008086
 20
-574.1244717934242
 10
37.07145961508104
 20
-556.6555069496717
 10
36.03358852133078
 20
-539.1937491371709
 10
35.22411586508042
 20
-525.5743350746734
 10
34.02810024008068
 20
-511.9780655434215
 10
33.18710414633097
 20
-498.3602335121714
 10
32.86788539633017
 20
-493.1910928871721
 10
33.2748482869556
 20
-487.9778311684231
 10
32.97481899008017
 20
-482.8065811684237
 10
32.41082484945582
 20
-473.0850577309238
 10
31.48976039633089
 20
-463.3848038246715
 10
30.87060024008042
 20
-453.6659171059209
 10
30.06859828695542
 20
-441.0761710121724
 10
29.39852016195528
 20
-428.4778116371735
 10
28.70614711508097
 20
-415.8812686684241
 10
28.20651820883086
 20
-406.7924991371719
 10
27.7794869588306
 20
-397.6996866371728
 10
27.29019984945535
 20
-388.6102725746741
 10
26.73262172445538
 20
-378.2520694496734
 10
26.14469203695535
 20
-367.8954483559237
 10
25.56446742758089
 20
-357.5384756996709
 10
25.17616664633078
 20
-350.6068936684242
 10
24.70120570883046
 20
-343.6792374184224
 10
24.40108852133017
 20
-336.7439053871749
 10
23.80061977133028
 20
-322.8688467934226
 10
23.43259242758086
 20
-308.9824210121724
 10
22.6972115682056
 20
-295.1150967934236
 10
22.23716274008075
 20
-286.4400577309234
 10
21.82712367758086
 20
-277.6987491371738
 10
20.37807094320578
 20
-269.1596768715481
 10
19.19784633383097
 20
-262.2049210121731
 10
16.57451625570593
 20
-255.4856534340479
 10
14.46780727133046
 20
-248.7002628090486
 10
12.572885396331
 20
-242.5970206215479
 10
10.3647506307052
 20
-236.5886710121731
 10
8.561586568205712
 20
-230.4599698402981
 10
6.675717427580821
 20
-224.0501651527984
 10
7.156654927580348
 20
-217.6148721840482
 10
9.580033833830385
 20
-211.4278995277982
 10
11.66975063070549
 20
-206.092704215298
 10
15.19542445883053
 20
-201.6578311684234
 10
19.01787563070593
 20
-197.4270401527983
 10
22.92379359945517
 20
-193.1037881996735
 10
26.91335414633068
 20
-188.8175674965487
 10
30.40732875570575
 20
-184.1700870277982
 10
35.13751430258071
 20
-177.8783194496737
 10
36.19773891195564
 20
-170.6466495277982
 10
34.36560024008031
 20
-163.023368277798
 10
33.54874477133035
 20
-159.6246378090482
 10
32.69163539633064
 20
-156.2241202309233
 10
31.59798305258028
 20
-152.908417105923
 10
31.06961391195546
 20
-151.3065225746732
 10
29.95231899008104
 20
-149.8988663246737
 10
28.89314906820528
 20
-148.0366397621738
 10
31.431283833831
 20
-147.5552921059234
 10
33.75367641195589
 20
-147.3954190590484
 10
35.86056117758017
 20
-146.6369229652983
 10
37.99445766195549
 20
-145.8687296059234
 10
40.08616664633064
 20
-144.7298135902984
 10
41.88016078695546
 20
-143.343924918423
 10
43.59057094320542
 20
-142.0226065590477
 10
45.66892055258086
 20
-140.7480753090485
 10
46.06354945883049
 20
-138.318983512173
 10
43.22002406820593
 20
-139.940887809048
 10
40.59352992758068
 20
-141.7330655434234
 10
37.73693813070531
 20
-143.0108487465486
 10
30.429330708831
 20
-146.2795303871735
 10
20.54418422445542
 20
-141.5686221840488
 10
18.55861781820568
 20
-134.0609171059232
 10
17.61947719320597
 20
-130.5097549965485
 10
19.05306117758028
 20
-127.3948819496736
 10
20.618539693206
 20
-124.4631436684231
 10
22.06773891195553
 20
-121.7490811684229
 10
24.0228951619556
 20
-119.3003018715481
 10
25.80695766195549
 20
-116.7711905434235
 10
28.07289516195578
 20
-113.5589639809232
 10
29.63646938070542
 20
-109.3262979652982
 10
29.5578658650802
 20
-106.2943936684233
 10
29.01578578695535
 20
-106.0774210121735
 10
28.42510219320593
 20
-105.8665128090479
 10
27.85551234945524
 20
-105.6091104652978
 10
21.58902797445535
 20
-102.7773038246733
 10
20.14275844320582
 20
-95.81636632467325
 10
25.16022914633049
 20
-91.1024112465484
 10
28.90724086508089
 20
-87.58204015279807
 10
33.09575649008093
 20
-84.515799918423
 10
37.19969203695564
 20
-81.39459874654858
 10
44.19985805258057
 20
-76.07071202779844
 10
50.02360805258104
 20
-70.04504796529818
 10
49.90038539633042
 20
-60.47731847311115
 10
49.81838344320568
 20
-54.11022862936079
 10
46.81457484945531
 20
-48.78035069967336
 10
42.9956100057052
 20
-44.01272374654855
 10
39.60965297445546
 20
-39.78571202779858
 10
37.87369594320535
 20
-35.06595616842333
 10
38.18966274008017
 20
-29.84995519186032
 10
38.44278774008035
 20
-25.67154698873583
 10
39.44758266195549
 20
-21.49608312154851
 10
40.50637172445568
 20
-17.41999425436097
 10
41.79270961508064
 20
-12.46791417623626
 10
45.41312953695524
 20
-9.248085074673327
 10
49.74016078695604
 20
-6.923627066860718
 10
57.45019008382951
 20
-2.781869254360572
 10
66.98726039633038
 20
-6.2158145668609
 10
71.3684615682032
 20
-13.82072667623561
 10
76.95388149008068
 20
-23.51605870748608
 10
74.47469203695437
 20
-32.58114171529814
 10
70.14229945882835
 20
-41.6163272621734
 10
68.2193697713301
 20
-45.62658605123579
 10
65.38102992757922
 20
-49.2236856606105
 10
63.67832484945393
 20
-53.30849034811126
 10
59.83483852132849
 20
-62.52892003561101
 10
62.13396938070582
 20
-71.31125890279782
 10
69.40647914632791
 20
-78.13250890279869
 10
72.78783656820451
 20
-81.30404210592314
 10
76.22260219320378
 20
-84.24779210592351
 10
80.27046352133038
 20
-86.64700109029855
 10
83.46019008382791
 20
-88.53761632467376
 10
86.86149867757922
 20
-90.95718663717344
 10
87.79120570882878
 20
-94.96186437154847
 10
88.28811000570568
 20
-97.10232335592355
 10
87.91776820883024
 20
-99.48181554342318
 10
87.68544399007806
 20
-101.7272159340482
 10
87.62790492757995
 20
-102.2832706215486
 10
86.65861781820422
 20
-102.9096085121737
 10
85.97869594320582
 20
-103.2031924965486
 10
84.45033656820306
 20
-103.8630460121731
 10
82.8406490682064
 20
-104.3345206215481
 10
80.8787252400798
 20
-105.0166690590486
 10
81.72452602133126
 20
-107.314422965298
 10
82.32836391195451
 20
-109.8043057777986
 10
83.51113734945466
 20
-111.979422965298
 10
85.55852016195422
 20
-115.7445694496737
 10
87.88891078695451
 20
-119.364227652798
 10
90.2389010213301
 20
-122.9543546059231
 10
93.45279750570626
 20
-127.8643057777981
 10
93.3887252400782
 20
-134.871796012173
 10
89.69447719320306
 20
-139.3393350746728
 10
87.6165084432032
 20
-141.852186637173
 10
84.66036586507835
 20
-143.137587027798
 10
81.42153774007966
 20
-142.9320108559232
 10
77.63907680258126
 20
-142.6919522621729
 10
73.76805141195291
 20
-142.4894229652982
 10
70.55594203695364
 20
-139.9045010902983
 10
69.82633266195626
 20
-139.3173917152981
 10
68.69163539632791
 20
-139.2336026527983
 10
67.75228969320597
 20
-138.9210928871735
 10
67.76644008382937
 20
-141.7535440590482
 10
70.68669399007922
 20
-143.2193546059234
 10
74.3689596150798
 20
-144.7495010902985
 10
77.1589889119532
 20
-145.908866324673
 10
80.30854945883038
 20
-146.2030069496732
 10
83.76889125570597
 20
-146.9891592934227
 97
        0
 97
        0
 92
        1
 93
        1
 72
     4
 94
        3
 73
     0
 74
     1
 95
       20
 96
       16
 40
0.0
 40
0.0
 40
0.0
 40
0.0
 40
1.0
 40
1.0
 40
1.0
 40
2.0
 40
2.0
 40
2.0
 40
3.0
 40
3.0
 40
3.0
 40
4.0
 40
4.0
 40
4.0
 40
5.0
 40
5.0
 40
5.0
 40
5.0
 10
58.91254359945378
 20
-185.8630948402979
 10
58.89168422445437
 20
-185.536551871548
 10
58.87082484945495
 20
-185.2100089027981
 10
58.84996547445553
 20
-184.8834952309235
 10
57.92497524007922
 20
-184.3867374184229
 10
56.91016078695611
 20
-183.3938956215479
 10
56.10159633382864
 20
-183.5402628090478
 10
55.37145961507849
 20
-183.6724210121729
 10
54.57830531820582
 20
-184.989432730923
 10
54.38468227133035
 20
-185.9048721840481
 10
54.28794399008075
 20
-186.3621671059236
 10
55.60762172445538
 20
-187.6797647621734
 10
56.04332484945553
 20
-187.5769913246731
 10
57.0769771932064
 20
-187.3330655434229
 10
57.9654049275814
 20
-186.4737003090486
 10
58.91254359945378
 20
-185.8630948402979
 97
        0
 97
        0
 75
     2
 76
     1
 98
        0
  0
ENDSEC
  0
SECTION
  2
OBJECTS
  0
DICTIONARY
  5
C
330
0
100
AcDbDictionary
281
     1
  3
ACAD_GROUP
350
D
  3
ACAD_LAYOUT
350
1A
  3
ACAD_MATERIAL
350
3B
  3
ACAD_MLEADERSTYLE
350
46
  3
ACAD_MLINESTYLE
350
17
  3
ACAD_PLOTSETTINGS
350
19
  3
ACAD_PLOTSTYLENAME
350
E
  3
ACAD_TABLESTYLE
350
45
  3
ACAD_VISUALSTYLE
350
2A
  0
SUN
  5
3F
330
29
100
AcDbSun
 90
        1
290
     0
 63
     7
421
 16777215
 40
1.0
291
     1
 91
  2455826
 92
 54000000
292
     0
 70
     2
 71
   256
280
     1
  0
DICTIONARY
  5
D
102
{ACAD_REACTORS
330
C
102
}
330
C
100
AcDbDictionary
281
     1
  0
DICTIONARY
  5
1A
102
{ACAD_REACTORS
330
C
102
}
330
C
100
AcDbDictionary
281
     1
  3
Layout1
350
1E
  3
Layout2
350
26
  3
Model
350
22
  0
DICTIONARY
  5
3B
102
{ACAD_REACTORS
330
C
102
}
330
C
100
AcDbDictionary
281
     1
  3
ByBlock
350
3D
  3
ByLayer
350
3C
  3
Global
350
3E
  0
DICTIONARY
  5
46
102
{ACAD_REACTORS
330
C
102
}
330
C
100
AcDbDictionary
281
     1
  0
DICTIONARY
  5
17
102
{ACAD_REACTORS
330
C
102
}
330
C
100
AcDbDictionary
281
     1
  3
Standard
350
18
  0
DICTIONARY
  5
19
102
{ACAD_REACTORS
330
C
102
}
330
C
100
AcDbDictionary
281
     1
  0
ACDBDICTIONARYWDFLT
  5
E
102
{ACAD_REACTORS
330
C
102
}
330
C
100
AcDbDictionary
281
     1
  3
Normal
350
F
100
AcDbDictionaryWithDefault
340
F
  0
DICTIONARY
  5
45
102
{ACAD_REACTORS
330
C
102
}
330
C
100
AcDbDictionary
281
     1
  0
DICTIONARY
  5
2A
102
{ACAD_REACTORS
330
C
102
}
330
C
100
AcDbDictionary
281
     1
  3
2dWireframe
350
2F
  3
3D Hidden
350
31
  3
3dWireframe
350
30
  3
Basic
350
32
  3
Brighten
350
36
  3
ColorChange
350
3A
  3
Conceptual
350
34
  3
Dim
350
35
  3
Facepattern
350
39
  3
Flat
350
2B
  3
FlatWithEdges
350
2C
  3
Gouraud
350
2D
  3
GouraudWithEdges
350
2E
  3
Linepattern
350
38
  3
Realistic
350
33
  3
Thicken
350
37
  0
LAYOUT
  5
1E
102
{ACAD_REACTORS
330
1A
102
}
330
1A
100
AcDbPlotSettings
  1

  2
none_device
  4

  6

 40
0.0
 41
0.0
 42
0.0
 43
0.0
 44
0.0
 45
0.0
 46
0.0
 47
0.0
 48
0.0
 49
0.0
140
0.0
141
0.0
142
1.0
143
1.0
 70
   688
 72
     0
 73
     0
 74
     5
  7

 75
    16
 76
     0
 77
     2
 78
   300
147
1.0
148
0.0
149
0.0
100
AcDbLayout
  1
Layout1
 70
     1
 71
     1
 10
0.0
 20
0.0
 11
12.0
 21
9.0
 12
0.0
 22
0.0
 32
0.0
 14
1.000000000000000E+20
 24
1.000000000000000E+20
 34
1.000000000000000E+20
 15
-1.000000000000000E+20
 25
-1.000000000000000E+20
 35
-1.000000000000000E+20
146
0.0
 13
0.0
 23
0.0
 33
0.0
 16
1.0
 26
0.0
 36
0.0
 17
0.0
 27
1.0
 37
0.0
 76
     0
330
1B
  0
LAYOUT
  5
26
102
{ACAD_REACTORS
330
1A
102
}
330
1A
100
AcDbPlotSettings
  1

  2
none_device
  4

  6

 40
0.0
 41
0.0
 42
0.0
 43
0.0
 44
0.0
 45
0.0
 46
0.0
 47
0.0
 48
0.0
 49
0.0
140
0.0
141
0.0
142
1.0
143
1.0
 70
   688
 72
     0
 73
     0
 74
     5
  7

 75
    16
 76
     0
 77
     2
 78
   300
147
1.0
148
0.0
149
0.0
100
AcDbLayout
  1
Layout2
 70
     1
 71
     2
 10
0.0
 20
0.0
 11
0.0
 21
0.0
 12
0.0
 22
0.0
 32
0.0
 14
0.0
 24
0.0
 34
0.0
 15
0.0
 25
0.0
 35
0.0
146
0.0
 13
0.0
 23
0.0
 33
0.0
 16
1.0
 26
0.0
 36
0.0
 17
0.0
 27
1.0
 37
0.0
 76
     0
330
23
  0
LAYOUT
  5
22
102
{ACAD_REACTORS
330
1A
102
}
330
1A
100
AcDbPlotSettings
  1

  2
none_device
  4

  6

 40
0.0
 41
0.0
 42
0.0
 43
0.0
 44
0.0
 45
0.0
 46
0.0
 47
0.0
 48
0.0
 49
0.0
140
0.0
141
0.0
142
1.0
143
1.0
 70
  1712
 72
     0
 73
     0
 74
     0
  7

 75
     0
 76
     0
 77
     2
 78
   300
147
1.0
148
0.0
149
0.0
100
AcDbLayout
  1
Model
 70
     1
 71
     0
 10
0.0
 20
0.0
 11
12.0
 21
9.0
 12
0.0
 22
0.0
 32
0.0
 14
1.000000000000000E+20
 24
1.000000000000000E+20
 34
1.000000000000000E+20
 15
-1.000000000000000E+20
 25
-1.000000000000000E+20
 35
-1.000000000000000E+20
146
0.0
 13
0.0
 23
0.0
 33
0.0
 16
1.0
 26
0.0
 36
0.0
 17
0.0
 27
1.0
 37
0.0
 76
     0
330
1F
331
29
  0
MATERIAL
  5
3D
102
{ACAD_REACTORS
330
3B
102
}
330
3B
100
AcDbMaterial
  1
ByBlock
 72
     1
 94
      127
  0
MATERIAL
  5
3C
102
{ACAD_REACTORS
330
3B
102
}
330
3B
100
AcDbMaterial
  1
ByLayer
 72
     1
 94
      127
  0
MATERIAL
  5
3E
102
{ACAD_REACTORS
330
3B
102
}
330
3B
100
AcDbMaterial
  1
Global
 72
     1
 94
      127
  0
MLINESTYLE
  5
18
102
{ACAD_REACTORS
330
17
102
}
330
17
100
AcDbMlineStyle
  2
Standard
 70
     0
  3

 62
   256
 51
90.0
 52
90.0
 71
     2
 49
0.5
 62
   256
  6
BYLAYER
 49
-0.5
 62
   256
  6
BYLAYER
  0
ACDBPLACEHOLDER
  5
F
102
{ACAD_REACTORS
330
E
102
}
330
E
  0
VISUALSTYLE
  5
2F
102
{ACAD_REACTORS
330
2A
102
}
330
2A
100
AcDbVisualStyle
  2
2dWireframe
 70
     4
177
     2
291
     0
 71
     0
176
     1
 72
     2
176
     1
 73
     0
176
     1
 90
        0
176
     1
 40
-0.6
176
     1
 41
-30.0
176
     1
 62
     5
 63
     7
421
 16777215
176
     1
 74
     1
176
     1
 91
        4
176
     1
 64
     7
176
     1
 65
   257
176
     1
 75
     1
176
     1
175
     1
176
     1
 42
1.0
176
     1
 92
        0
176
     1
 66
   257
176
     1
 43
1.0
176
     1
 76
     1
176
     1
 77
     6
176
     1
 78
     2
176
     1
 67
     7
176
     1
 79
     5
176
     1
170
     0
176
     1
171
     0
176
     1
290
     0
176
     1
 93
        1
176
     1
 44
0.0
176
     1
173
     0
176
     1
  0
VISUALSTYLE
  5
31
102
{ACAD_REACTORS
330
2A
102
}
330
2A
100
AcDbVisualStyle
  2
3D Hidden
 70
     6
177
     2
291
     0
 71
     1
176
     1
 72
     2
176
     1
 73
     2
176
     1
 90
        0
176
     1
 40
-0.6
176
     1
 41
-30.0
176
     1
 62
     5
 63
     7
421
 16777215
176
     1
 74
     2
176
     1
 91
        2
176
     1
 64
     7
176
     1
 65
   257
176
     1
 75
     2
176
     1
175
     1
176
     1
 42
40.0
176
     1
 92
        0
176
     1
 66
   257
176
     1
 43
1.0
176
     1
 76
     1
176
     1
 77
     6
176
     1
 78
     2
176
     1
 67
     7
176
     1
 79
     3
176
     1
170
     0
176
     1
171
     0
176
     1
290
     0
176
     1
 93
        1
176
     1
 44
0.0
176
     1
173
     0
176
     1
  0
VISUALSTYLE
  5
30
102
{ACAD_REACTORS
330
2A
102
}
330
2A
100
AcDbVisualStyle
  2
3dWireframe
 70
     5
177
     2
291
     0
 71
     0
176
     1
 72
     2
176
     1
 73
     0
176
     1
 90
        0
176
     1
 40
-0.6
176
     1
 41
-30.0
176
     1
 62
     5
 63
     7
421
 16777215
176
     1
 74
     1
176
     1
 91
        4
176
     1
 64
     7
176
     1
 65
   257
176
     1
 75
     1
176
     1
175
     1
176
     1
 42
1.0
176
     1
 92
        0
176
     1
 66
   257
176
     1
 43
1.0
176
     1
 76
     1
176
     1
 77
     6
176
     1
 78
     2
176
     1
 67
     7
176
     1
 79
     5
176
     1
170
     0
176
     1
171
     0
176
     1
290
     0
176
     1
 93
        1
176
     1
 44
0.0
176
     1
173
     0
176
     1
  0
VISUALSTYLE
  5
32
102
{ACAD_REACTORS
330
2A
102
}
330
2A
100
AcDbVisualStyle
  2
Basic
 70
     7
177
     2
291
     1
 71
     1
176
     1
 72
     0
176
     1
 73
     1
176
     1
 90
        0
176
     1
 40
-0.6
176
     1
 41
-30.0
176
     1
 62
     5
 63
     7
421
 16777215
176
     1
 74
     0
176
     1
 91
        4
176
     1
 64
     7
176
     1
 65
   257
176
     1
 75
     1
176
     1
175
     1
176
     1
 42
1.0
176
     1
 92
        8
176
     1
 66
     7
176
     1
 43
1.0
176
     1
 76
     1
176
     1
 77
     6
176
     1
 78
     2
176
     1
 67
     7
176
     1
 79
     5
176
     1
170
     0
176
     1
171
     0
176
     1
290
     0
176
     1
 93
        1
176
     1
 44
0.0
176
     1
173
     0
176
     1
  0
VISUALSTYLE
  5
36
102
{ACAD_REACTORS
330
2A
102
}
330
2A
100
AcDbVisualStyle
  2
Brighten
 70
    12
177
     2
291
     1
 71
     2
176
     1
 72
     2
176
     1
 73
     0
176
     1
 90
        0
176
     1
 40
-0.6
176
     1
 41
-30.0
176
     1
 62
     5
 63
     7
421
 16777215
176
     1
 74
     1
176
     1
 91
        4
176
     1
 64
     7
176
     1
 65
   257
176
     1
 75
     1
176
     1
175
     1
176
     1
 42
1.0
176
     1
 92
        8
176
     1
 66
     7
176
     1
 43
1.0
176
     1
 76
     1
176
     1
 77
     6
176
     1
 78
     2
176
     1
 67
     7
176
     1
 79
     5
176
     1
170
     0
176
     1
171
     0
176
     1
290
     0
176
     1
 93
        1
176
     1
 44
50.0
176
     1
173
     0
176
     1
  0
VISUALSTYLE
  5
3A
102
{ACAD_REACTORS
330
2A
102
}
330
2A
100
AcDbVisualStyle
  2
ColorChange
 70
    16
177
     2
291
     1
 71
     2
176
     1
 72
     2
176
     1
 73
     3
176
     1
 90
        0
176
     1
 40
-0.6
176
     1
 41
-30.0
176
     1
 62
     5
 63
     8
421
  8421504
176
     1
 74
     1
176
     1
 91
        4
176
     1
 64
     7
176
     1
 65
   257
176
     1
 75
     1
176
     1
175
     1
176
     1
 42
1.0
176
     1
 92
        8
176
     1
 66
     8
424
  8421504
176
     1
 43
1.0
176
     1
 76
     1
176
     1
 77
     6
176
     1
 78
     2
176
     1
 67
     7
176
     1
 79
     5
176
     1
170
     0
176
     1
171
     0
176
     1
290
     0
176
     1
 93
        1
176
     1
 44
0.0
176
     1
173
     0
176
     1
  0
VISUALSTYLE
  5
34
102
{ACAD_REACTORS
330
2A
102
}
330
2A
100
AcDbVisualStyle
  2
Conceptual
 70
     9
177
     2
291
     0
 71
     3
176
     1
 72
     2
176
     1
 73
     0
176
     1
 90
        0
176
     1
 40
-0.6
176
     1
 41
-30.0
176
     1
 62
     5
 63
     7
421
 16777215
176
     1
 74
     2
176
     1
 91
        2
176
     1
 64
     7
176
     1
 65
   257
176
     1
 75
     1
176
     1
175
     1
176
     1
 42
40.0
176
     1
 92
        8
176
     1
 66
     7
176
     1
 43
1.0
176
     1
 76
     1
176
     1
 77
     6
176
     1
 78
     2
176
     1
 67
     7
176
     1
 79
     3
176
     1
170
     0
176
     1
171
     0
176
     1
290
     0
176
     1
 93
        1
176
     1
 44
0.0
176
     1
173
     0
176
     1
  0
VISUALSTYLE
  5
35
102
{ACAD_REACTORS
330
2A
102
}
330
2A
100
AcDbVisualStyle
  2
Dim
 70
    11
177
     2
291
     1
 71
     2
176
     1
 72
     2
176
     1
 73
     0
176
     1
 90
        0
176
     1
 40
-0.6
176
     1
 41
-30.0
176
     1
 62
     5
 63
     7
421
 16777215
176
     1
 74
     1
176
     1
 91
        4
176
     1
 64
     7
176
     1
 65
   257
176
     1
 75
     1
176
     1
175
     1
176
     1
 42
1.0
176
     1
 92
        8
176
     1
 66
     7
176
     1
 43
1.0
176
     1
 76
     1
176
     1
 77
     6
176
     1
 78
     2
176
     1
 67
     7
176
     1
 79
     5
176
     1
170
     0
176
     1
171
     0
176
     1
290
     0
176
     1
 93
        1
176
     1
 44
-50.0
176
     1
173
     0
176
     1
  0
VISUALSTYLE
  5
39
102
{ACAD_REACTORS
330
2A
102
}
330
2A
100
AcDbVisualStyle
  2
Facepattern
 70
    15
177
     2
291
     1
 71
     2
176
     1
 72
     2
176
     1
 73
     0
176
     1
 90
        0
176
     1
 40
-0.6
176
     1
 41
-30.0
176
     1
 62
     5
 63
     7
421
 16777215
176
     1
 74
     1
176
     1
 91
        4
176
     1
 64
     7
176
     1
 65
   257
176
     1
 75
     1
176
     1
175
     1
176
     1
 42
1.0
176
     1
 92
        8
176
     1
 66
     7
176
     1
 43
1.0
176
     1
 76
     1
176
     1
 77
     6
176
     1
 78
     2
176
     1
 67
     7
176
     1
 79
     5
176
     1
170
     0
176
     1
171
     0
176
     1
290
     0
176
     1
 93
        1
176
     1
 44
0.0
176
     1
173
     0
176
     1
  0
VISUALSTYLE
  5
2B
102
{ACAD_REACTORS
330
2A
102
}
330
2A
100
AcDbVisualStyle
  2
Flat
 70
     0
177
     2
291
     1
 71
     2
176
     1
 72
     1
176
     1
 73
     1
176
     1
 90
        2
176
     1
 40
-0.6
176
     1
 41
30.0
176
     1
 62
     5
 63
     7
421
 16777215
176
     1
 74
     0
176
     1
 91
        4
176
     1
 64
     7
176
     1
 65
   257
176
     1
 75
     1
176
     1
175
     1
176
     1
 42
1.0
176
     1
 92
        8
176
     1
 66
     7
176
     1
 43
1.0
176
     1
 76
     1
176
     1
 77
     6
176
     1
 78
     2
176
     1
 67
     7
176
     1
 79
     5
176
     1
170
     0
176
     1
171
     0
176
     1
290
     0
176
     1
 93
       13
176
     1
 44
0.0
176
     1
173
     0
176
     1
  0
VISUALSTYLE
  5
2C
102
{ACAD_REACTORS
330
2A
102
}
330
2A
100
AcDbVisualStyle
  2
FlatWithEdges
 70
     1
177
     2
291
     1
 71
     2
176
     1
 72
     1
176
     1
 73
     1
176
     1
 90
        2
176
     1
 40
-0.6
176
     1
 41
30.0
176
     1
 62
     5
 63
     7
421
 16777215
176
     1
 74
     1
176
     1
 91
        4
176
     1
 64
     7
176
     1
 65
   257
176
     1
 75
     1
176
     1
175
     1
176
     1
 42
1.0
176
     1
 92
        0
176
     1
 66
   257
176
     1
 43
1.0
176
     1
 76
     1
176
     1
 77
     6
176
     1
 78
     2
176
     1
 67
     7
176
     1
 79
     5
176
     1
170
     0
176
     1
171
     0
176
     1
290
     0
176
     1
 93
       13
176
     1
 44
0.0
176
     1
173
     0
176
     1
  0
VISUALSTYLE
  5
2D
102
{ACAD_REACTORS
330
2A
102
}
330
2A
100
AcDbVisualStyle
  2
Gouraud
 70
     2
177
     2
291
     1
 71
     2
176
     1
 72
     2
176
     1
 73
     1
176
     1
 90
        2
176
     1
 40
-0.6
176
     1
 41
30.0
176
     1
 62
     5
 63
     7
421
 16777215
176
     1
 74
     0
176
     1
 91
        4
176
     1
 64
     7
176
     1
 65
   257
176
     1
 75
     1
176
     1
175
     1
176
     1
 42
1.0
176
     1
 92
        0
176
     1
 66
     7
176
     1
 43
1.0
176
     1
 76
     1
176
     1
 77
     6
176
     1
 78
     2
176
     1
 67
     7
176
     1
 79
     5
176
     1
170
     0
176
     1
171
     0
176
     1
290
     0
176
     1
 93
       13
176
     1
 44
0.0
176
     1
173
     0
176
     1
  0
VISUALSTYLE
  5
2E
102
{ACAD_REACTORS
330
2A
102
}
330
2A
100
AcDbVisualStyle
  2
GouraudWithEdges
 70
     3
177
     2
291
     1
 71
     2
176
     1
 72
     2
176
     1
 73
     1
176
     1
 90
        2
176
     1
 40
-0.6
176
     1
 41
30.0
176
     1
 62
     5
 63
     7
421
 16777215
176
     1
 74
     1
176
     1
 91
        4
176
     1
 64
     7
176
     1
 65
   257
176
     1
 75
     1
176
     1
175
     1
176
     1
 42
1.0
176
     1
 92
        0
176
     1
 66
   257
176
     1
 43
1.0
176
     1
 76
     1
176
     1
 77
     6
176
     1
 78
     2
176
     1
 67
     7
176
     1
 79
     5
176
     1
170
     0
176
     1
171
     0
176
     1
290
     0
176
     1
 93
       13
176
     1
 44
0.0
176
     1
173
     0
176
     1
  0
VISUALSTYLE
  5
38
102
{ACAD_REACTORS
330
2A
102
}
330
2A
100
AcDbVisualStyle
  2
Linepattern
 70
    14
177
     2
291
     1
 71
     2
176
     1
 72
     2
176
     1
 73
     0
176
     1
 90
        0
176
     1
 40
-0.6
176
     1
 41
-30.0
176
     1
 62
     5
 63
     7
421
 16777215
176
     1
 74
     1
176
     1
 91
        4
176
     1
 64
     7
176
     1
 65
   257
176
     1
 75
     7
176
     1
175
     7
176
     1
 42
1.0
176
     1
 92
        8
176
     1
 66
     7
176
     1
 43
1.0
176
     1
 76
     1
176
     1
 77
     6
176
     1
 78
     2
176
     1
 67
     7
176
     1
 79
     5
176
     1
170
     0
176
     1
171
     0
176
     1
290
     0
176
     1
 93
        1
176
     1
 44
0.0
176
     1
173
     0
176
     1
  0
VISUALSTYLE
  5
33
102
{ACAD_REACTORS
330
2A
102
}
330
2A
100
AcDbVisualStyle
  2
Realistic
 70
     8
177
     2
291
     0
 71
     2
176
     1
 72
     2
176
     1
 73
     0
176
     1
 90
        0
176
     1
 40
-0.6
176
     1
 41
-30.0
176
     1
 62
     5
 63
     7
421
 16777215
176
     1
 74
     1
176
     1
 91
        0
176
     1
 64
     7
176
     1
 65
   257
176
     1
 75
     1
176
     1
175
     1
176
     1
 42
1.0
176
     1
 92
        8
176
     1
 66
     8
424
  7895160
176
     1
 43
1.0
176
     1
 76
     1
176
     1
 77
     6
176
     1
 78
     2
176
     1
 67
     7
176
     1
 79
     5
176
     1
170
     0
176
     1
171
     0
176
     1
290
     0
176
     1
 93
       13
176
     1
 44
0.0
176
     1
173
     0
176
     1
  0
VISUALSTYLE
  5
37
102
{ACAD_REACTORS
330
2A
102
}
330
2A
100
AcDbVisualStyle
  2
Thicken
 70
    13
177
     2
291
     1
 71
     2
176
     1
 72
     2
176
     1
 73
     0
176
     1
 90
        0
176
     1
 40
-0.6
176
     1
 41
-30.0
176
     1
 62
     5
 63
     7
421
 16777215
176
     1
 74
     1
176
     1
 91
        4
176
     1
 64
     7
176
     1
 65
   257
176
     1
 75
     1
176
     1
175
     1
176
     1
 42
1.0
176
     1
 92
       12
176
     1
 66
     7
176
     1
 43
1.0
176
     1
 76
     1
176
     1
 77
     6
176
     1
 78
     2
176
     1
 67
     7
176
     1
 79
     5
176
     1
170
     0
176
     1
171
     0
176
     1
290
     0
176
     1
 93
        1
176
     1
 44
0.0
176
     1
173
     0
176
     1
  0
ENDSEC
  0
EOF
