<svg id="Layer_1" data-name="Layer 1" xmlns="http://www.w3.org/2000/svg" xmlns:xlink="http://www.w3.org/1999/xlink" viewBox="0 0 75.44 629.2"><defs><style>.cls-1{fill:none;}.cls-2{isolation:isolate;}.cls-3{clip-path:url(#clip-path);}.cls-4{fill:#858585;}.cls-5{clip-path:url(#clip-path-2);}.cls-6{fill:#8a8a8a;}.cls-7{fill:#8f8f8f;}.cls-8{fill:#949494;}.cls-9{fill:#999;}.cls-10{fill:#9e9e9e;}.cls-11{fill:#a3a3a3;}.cls-12{fill:#a8a8a8;}.cls-13{fill:#adadad;}.cls-14{fill:#b3b3b3;}.cls-15{fill:#b8b8b8;}.cls-16{fill:#bdbdbd;}.cls-17{fill:#c2c2c2;}.cls-18{fill:#c7c7c7;}.cls-19{fill:#ccc;}.cls-20{fill:#d1d1d1;}.cls-21{fill:#d6d6d6;}.cls-22{fill:#dbdbdb;}.cls-23{fill:#e0e0e0;}.cls-24{fill:#e6e6e6;}.cls-25{fill:#ebebeb;}.cls-26{fill:#f0f0f0;}.cls-27{fill:#f5f5f5;}.cls-28{fill:#fafafa;}.cls-29{fill:#fff;}.cls-30{clip-path:url(#clip-path-3);}.cls-31{clip-path:url(#clip-path-4);}.cls-32{clip-path:url(#clip-path-5);}.cls-33{clip-path:url(#clip-path-6);}.cls-34{clip-path:url(#clip-path-7);}.cls-35{clip-path:url(#clip-path-8);}.cls-36{clip-path:url(#clip-path-9);}.cls-37{clip-path:url(#clip-path-10);}.cls-38{clip-path:url(#clip-path-11);}.cls-39{clip-path:url(#clip-path-12);}.cls-40{clip-path:url(#clip-path-13);}.cls-41{clip-path:url(#clip-path-14);}.cls-42{clip-path:url(#clip-path-15);}.cls-43{clip-path:url(#clip-path-16);}.cls-44{clip-path:url(#clip-path-17);}.cls-45{clip-path:url(#clip-path-18);}.cls-46{clip-path:url(#clip-path-19);}.cls-47{clip-path:url(#clip-path-20);}.cls-48{clip-path:url(#clip-path-21);}.cls-49{clip-path:url(#clip-path-22);}.cls-50{clip-path:url(#clip-path-23);}.cls-51{clip-path:url(#clip-path-24);}.cls-52{clip-path:url(#clip-path-25);}.cls-53{clip-path:url(#clip-path-26);}.cls-54{clip-path:url(#clip-path-27);}.cls-55{clip-path:url(#clip-path-28);}.cls-56{clip-path:url(#clip-path-29);}.cls-57{clip-path:url(#clip-path-30);}</style><clipPath id="clip-path" transform="translate(-35.92 -29.59)"><path class="cls-1" d="M78,157.52c0-.06-.08-.06-.12-.09l.08,0Z"/></clipPath><clipPath id="clip-path-2" transform="translate(-35.92 -29.59)"><path class="cls-1" d="M79.7,172.77a10.06,10.06,0,0,0-1.63.88,8.56,8.56,0,0,0-1.6,1.4,20.18,20.18,0,0,0-2,2.78c-.61,1-.79,1.27-1.24,1.92A53.4,53.4,0,0,0,68,177.64Z"/></clipPath><clipPath id="clip-path-3" transform="translate(-35.92 -29.59)"><path class="cls-1" d="M69.53,175.35a15.84,15.84,0,0,0,6.76-1.16L68,177.64C68.78,176,69.26,175.35,69.53,175.35Z"/></clipPath><clipPath id="clip-path-4" transform="translate(-35.92 -29.59)"><path class="cls-1" d="M103.1,157.51s0,0,0-.08v0a6.44,6.44,0,0,0-.07-4.54c-1.48-3.69-3-7.53-4.4-11.67-1.1-3.37-1.54-6.33-4.14-17.84l4,6.1c.52,2.3.89,4.79,1.62,7,1.26,3.77,2.7,7.38,4.14,11,2,4.92,1.94,11.93-.34,16.39-1.18,2.34-2.84,3.62-4.67,3.62Z"/></clipPath><clipPath id="clip-path-5" transform="translate(-35.92 -29.59)"><path class="cls-1" d="M103.15,157.39l-4,10c-2.75-.27-5.13-.47-7.11-3.05-.44-.59-1.14-.67-1.72-1l-2.25-13.9c8.24,4.46,9.73,4.55,11.81,7.12C100.14,157,101.19,157.18,103.15,157.39Z"/></clipPath><clipPath id="clip-path-6" transform="translate(-35.92 -29.59)"><path class="cls-1" d="M67.6,649.6a.86.86,0,0,1-.7.1c-.37-.06-.66-.11-.84.42a16.74,16.74,0,0,0-.22,4.56L65,630.36C66.78,645.82,67.39,649.75,67.6,649.6Z"/></clipPath><clipPath id="clip-path-7" transform="translate(-35.92 -29.59)"><path class="cls-1" d="M100.66,121.66c.13-.1.44-.34.87.74a24,24,0,0,1,.9,3.68l-2-.91C100.61,123,100.7,121.73,100.66,121.66Z"/></clipPath><clipPath id="clip-path-8" transform="translate(-35.92 -29.59)"><path class="cls-1" d="M100.72,121.6l0,.08a17,17,0,0,0-1.78-2,56.08,56.08,0,0,1-7.76-9.82c-6.3-9.52-8.44-22.68-5-36,1.37-5.27,3.19-9,4.11-12.18,2.12-7.26,3-12.89,1-18.48-.82-2.32-2.3-3.68-3.63-3.66l-4-10c3.56,0,7,3.29,9,8.67C96,48,94.49,57,91.83,66.06c-1.19,4-2.93,7.61-4,11.69-2.37,9.22-.95,18,3.52,24.82a49.24,49.24,0,0,0,6.69,8.52,13.78,13.78,0,0,1,4.64,8.31,34.89,34.89,0,0,1-.07,6.77,2.43,2.43,0,0,1-1,1.48c-.94.66-1.93,1.12-3.14,1.81l-4-6.1c7.2-4.08,8.06-4.49,8.62-4.88-.38.25-2,1.22-2.62,6.69l2,.91a24.46,24.46,0,0,0-.9-3.67q-.45-1.14-.87-.75Z"/></clipPath><clipPath id="clip-path-9" transform="translate(-35.92 -29.59)"><path class="cls-1" d="M100.67,121.68v0l.06-.06Z"/></clipPath><clipPath id="clip-path-10" transform="translate(-35.92 -29.59)"><path class="cls-1" d="M59.58,652.51l-2.08-.7c.1-.35-.22.32,7.47-21.45l1,26.92a6.78,6.78,0,0,0-.3-1.92,2.23,2.23,0,0,0-.87-1.19,2.5,2.5,0,0,0-.84-.34c-.6-.16-1.22-.22-1.81-.37a10.45,10.45,0,0,1-1.74-.62C59.9,652.63,59.81,652.59,59.58,652.51Z"/></clipPath><clipPath id="clip-path-11" transform="translate(-35.92 -29.59)"><path class="cls-1" d="M99.19,167.4H81.9c-2.74-.27-5.12-.47-7.1-3.05-.45-.59-1.15-.67-1.73-1H90.36c.58.32,1.28.4,1.72,1C94.06,166.93,96.44,167.13,99.19,167.4Z"/></clipPath><clipPath id="clip-path-12" transform="translate(-35.92 -29.59)"><path class="cls-1" d="M55,655.28l-4,0c0-.55,0-.13,1.58-18l7.62,19.48a3,3,0,0,0-.83-1.23,2.12,2.12,0,0,0-1.63-.26,8.42,8.42,0,0,1-1.18.08C56,655.35,55.5,655.28,55,655.28Z"/></clipPath><clipPath id="clip-path-13" transform="translate(-35.92 -29.59)"><path class="cls-1" d="M61.15,652.22c-.26-.23-.59-.51-1.3.14a1.69,1.69,0,0,0-.5,1.47,11.81,11.81,0,0,0,.84,3l-7.63-19.51C60.28,649.81,60.41,649.8,61.15,652.22Z"/></clipPath><clipPath id="clip-path-14" transform="translate(-35.92 -29.59)"><path class="cls-1" d="M83.28,658.79H66A97.89,97.89,0,0,1,65.53,647c.11-13.16.26-26.33.33-39.49,0-6.14-.1-12.29-.08-18.43,0-15.57.06-31.14.22-46.7.13-12.13.59-24.25.67-36.39.1-13.5-.12-27-.1-40.5,0-12.06.21-24.13.27-36.2,0-11.71,0-23.43.08-35.15.06-8.3.29-16.6.41-24.91.08-5.42.11-10.84.15-16.26.07-9.11.15-18.22.18-27.33,0-10,0-20,0-29.94,0-12.2.09-24.42,0-36.61,0-3.72,1.22-6.27,2.3-9.07,1.17-3,2.37-6,3.8-9.6H91.08C89.65,244,88.44,247,87.27,250c-1.08,2.8-2.32,5.35-2.29,9.07.09,12.19,0,24.41,0,36.61,0,10,0,20,0,29.94q-.06,13.66-.18,27.33c0,5.42-.07,10.84-.15,16.26-.12,8.31-.35,16.61-.42,24.91-.08,11.72,0,23.44-.08,35.15-.05,12.07-.24,24.14-.26,36.2,0,13.5.2,27,.1,40.5-.09,12.14-.54,24.26-.67,36.39-.17,15.56-.18,31.13-.23,46.7,0,6.14.13,12.29.09,18.43-.08,13.16-.23,26.33-.33,39.49A94,94,0,0,0,83.28,658.79Z"/></clipPath><clipPath id="clip-path-15" transform="translate(-35.92 -29.59)"><path class="cls-1" d="M94.75,175.35a2.61,2.61,0,0,0,1.68-.62c.32-.23.32-.23,3.79-3.3a42.08,42.08,0,0,0-3.92,15.48c-.75,9.29-.07,18,4,25.25,1.68,3,3.6,5.66,5.44,8.4,3.57,5.31,5.3,12,5.58,19.69.34,9.79-1.66,18.83-3.39,28-1.45,7.68-2.82,15.48-3.68,23.38-.91,8.54-1.33,17.25-1.71,25.92-.65,14.79-1.09,29.62-1.63,44.43-.6,16.08-1.17,32.17-1.84,48.25-.23,5.72-.79,11.39-1,17.11-.46,10.17-.73,20.37-1.23,30.54-.61,12.49-1.42,24.95-2,37.45-.68,13.66-1.21,27.35-1.84,41-.47,10.09-1,20.17-1.46,30.26q-1.23,26.61-2.38,53.24a211,211,0,0,1-4.5,35.26,30.71,30.71,0,0,1-1.29,3.68l.37-1.51s.27-1.09.4-1.89a5.53,5.53,0,0,0,.08-1,.77.77,0,0,0-.35-.72,1.12,1.12,0,0,1-.31-.36,2.65,2.65,0,0,1-.2-.47,8.36,8.36,0,0,0-.55-1.05c1.65-9.86,3.29-22.56,4.17-32.67q1.17-26.62,2.38-53.28c.46-10.14,1-20.22,1.47-30.26.61-13.64,1.16-27.33,1.84-41.08.62-12.6,1.44-25.06,2-37.43.49-10,.76-20.19,1.23-30.49.28-6.08.83-11.73,1-17,.65-16,1.23-32.13,1.83-48.18.55-14.78,1-29.64,1.64-44.55.39-8.81.82-17.86,1.79-26.93.92-8.51,2.37-16.7,3.85-24.59,1.63-8.94,3.42-16.91,3.14-24.5-.2-5.28-1.31-9.48-3.59-12.88-1.82-2.71-3.88-5.57-5.83-9-5.63-10-6.51-21.86-5.56-33.3C94.58,180.44,95.47,175.36,94.75,175.35Z"/></clipPath><clipPath id="clip-path-16" transform="translate(-35.92 -29.59)"><path class="cls-1" d="M92.81,649.6a11.59,11.59,0,0,1-2.6.06,10.13,10.13,0,0,0-2.15,0,3.24,3.24,0,0,0-2,1,6.4,6.4,0,0,0-1.37,2.5c-.23.65-.23.65-1.42,5.57A94,94,0,0,1,82.82,647c.1-13.16.25-26.33.33-39.49,0-6.14-.1-12.29-.09-18.43,0-15.57.06-31.14.23-46.7.13-12.13.58-24.25.67-36.39.1-13.5-.12-27-.1-40.5,0-12.06.21-24.13.26-36.2.06-11.71,0-23.43.08-35.15.07-8.3.3-16.6.42-24.91.08-5.42.11-10.84.15-16.26q.11-13.67.18-27.33c0-10,0-20,0-29.94,0-12.2.08-24.42,0-36.61,0-3.72,1.21-6.27,2.29-9.07,1.17-3,2.38-6,3.81-9.6L106,231.2c-7.2,18.2-8.43,21.16-9.57,24.09-1,2.62-1.4,3.6-1.35,3.63.1,12.31,0,24.57,0,36.76,0,10,0,20,0,30,0,9.15-.11,18.28-.18,27.38,0,5.48-.07,10.89-.15,16.39-.12,8.39-.35,16.65-.41,24.79-.09,11.63,0,23.33-.09,35.1,0,12.14-.24,24.2-.26,36.15,0,13.38.2,26.92.1,40.6-.09,12.35-.54,24.5-.67,36.44-.16,15.48-.15,31-.23,46.58,0,6,.13,12.12.09,18.47-.07,13.21-.22,26.38-.33,39.52A10.56,10.56,0,0,1,92.81,649.6Z"/></clipPath><clipPath id="clip-path-17" transform="translate(-35.92 -29.59)"><path class="cls-1" d="M98.7,172.78a2.58,2.58,0,0,0-.64.87,3.53,3.53,0,0,0-.27,1.4,9.94,9.94,0,0,0,.13,1.57c.16,1,.41,2.08.57,3.13A13,13,0,0,1,96,178.43c-3-2-7.6-5-7.92-29l2.25,13.9c0,2.84,1.81,4.3,4.07,5.83,1.72,1.16,3.66,1.46,5.79,2.24Z"/></clipPath><clipPath id="clip-path-18" transform="translate(-35.92 -29.59)"><path class="cls-1" d="M49.69,181.38c.15-.71.21-1,.48-2a16.66,16.66,0,0,0,.61-3.24,3.33,3.33,0,0,0-.62-2.33l4.62,5.94C50.94,180.9,49.69,181.38,49.69,181.38Z"/></clipPath><clipPath id="clip-path-19" transform="translate(-35.92 -29.59)"><path class="cls-1" d="M50,173.55c.32.37.75.89,1.12.54a3.45,3.45,0,0,0,.59-1.42,6.23,6.23,0,0,1,.36-1s.61,2,2.73,8.09Z"/></clipPath><clipPath id="clip-path-20" transform="translate(-35.92 -29.59)"><path class="cls-1" d="M91.08,240.38H73.79L56.87,239.1H74.16Z"/></clipPath><clipPath id="clip-path-21" transform="translate(-35.92 -29.59)"><path class="cls-1" d="M66.44,172.48H49.15a19.62,19.62,0,0,0,4.29-1.4,13.82,13.82,0,0,0,3.7-3.29c1.06-1.32,2.34-2.6,2.58-5H77c-.25,2.42-1.53,3.7-2.58,5a13.85,13.85,0,0,1-3.71,3.29A19.36,19.36,0,0,1,66.44,172.48Z"/></clipPath><clipPath id="clip-path-22" transform="translate(-35.92 -29.59)"><path class="cls-1" d="M74.9,181.38c-.42-.68-.59-1-1.17-2S73,178,72.55,177.29a12,12,0,0,0-1.18-1.56,8.73,8.73,0,0,0-1.62-1.42,36.32,36.32,0,0,0-3.31-1.83,19.36,19.36,0,0,0,4.28-1.4,13.85,13.85,0,0,0,3.71-3.29c1-1.32,2.33-2.6,2.58-5l12.12-19.06c-2.92,27.89-5.78,30.49-7,32a20.26,20.26,0,0,1-5.38,4.79A12.08,12.08,0,0,1,74.9,181.38Z"/></clipPath><clipPath id="clip-path-23" transform="translate(-35.92 -29.59)"><path class="cls-1" d="M78.12,658.42H60.83a10.15,10.15,0,0,1-1.39-2.32,77,77,0,0,1-2-8.7,268.93,268.93,0,0,1-2.24-31.35c-.39-17.49-1-34.95-1.64-52.42C53,550,52.31,536.42,51.79,522.8c-.2-5.16.06-10.37-.13-15.55-.35-9.72-.92-19.42-1.29-29.14-.5-12.59-.91-25.19-1.34-37.78-.3-9.09-.57-18.18-.87-27.27Q47.65,397.52,47.1,382c-.24-6.93-.53-13.86-.72-20.79-.37-13.88-.6-27.77-1.05-41.63-.28-8.68-.53-17.42-1.42-26-.73-7-2.35-13.67-3.64-20.46C39.1,267,37.74,261,36.63,254.9a46,46,0,0,1,.63-19,54.18,54.18,0,0,1,5.81-14c2.4-4.32,4.86-8.61,7-13.26,2.91-6.29,3.56-13.52,2.44-21.15-.51-3.39-1-6.79-1.71-10.1a38.14,38.14,0,0,0-1.66-4.88H66.44a39.76,39.76,0,0,1,1.66,4.88c.67,3.31,1.2,6.71,1.7,10.1,1.13,7.63.48,14.86-2.43,21.15-2.15,4.65-4.61,8.94-7,13.26a54.55,54.55,0,0,0-5.82,14,45.83,45.83,0,0,0-.62,19C55,261,56.38,267,57.55,273.14c1.3,6.79,2.92,13.51,3.64,20.46.9,8.54,1.14,17.28,1.43,26,.45,13.86.68,27.75,1.05,41.63.18,6.93.48,13.86.71,20.79q.54,15.54,1.07,31.08c.3,9.09.56,18.18.87,27.27.43,12.59.84,25.19,1.33,37.78.38,9.72.95,19.42,1.3,29.14.18,5.18-.07,10.39.13,15.55.51,13.62,1.25,27.22,1.75,40.83.64,17.47,1.25,34.93,1.64,52.42A271.13,271.13,0,0,0,74.7,647.4a74.91,74.91,0,0,0,2,8.7A9.8,9.8,0,0,0,78.12,658.42Z"/></clipPath><clipPath id="clip-path-24" transform="translate(-35.92 -29.59)"><path class="cls-1" d="M78.26,257l-.35,1.12c-1.07-3.28-2.62-6.69-4.17-10.69-.73-1.93-.95-3.19-5.2-19.08l5.62,10.74c.38,1.43.54,2.28.82,3,1.47,3.78,3.12,7.4,4.4,11.33a21.76,21.76,0,0,1,.62,6.27q0,16.23-.14,32.49c-.12,13.87-.35,27.75-.43,41.63-.06,8.94.1,17.88.09,26.83,0,9.15-.18,18.31-.2,27.48,0,8.36.13,16.72.1,25.08,0,7.9-.27,15.8-.31,23.7,0,6.63.21,13.25.16,19.87-.06,7.49-.37,15-.47,22.46-.11,7.65-.11,15.31-.15,23s-.06,15.13-.12,22.69c-.13,13.65-.36,27.3-.4,41,0,15.41.11,30.82.15,46.24,0,11.26,0,22.51,0,33.77,0,3.11.1,6.23.12,9.34,0,.84-.14,1.67-.27,3.2l0-1.66c0-.67,0-1.36-.22-1.5a.18.18,0,0,0-.1,0,.54.54,0,0,0-.16.06.45.45,0,0,1-.21.05.56.56,0,0,1-.21,0c-.08,0-.08,0-1,0,0-3-.12-6.09-.12-9.44,0-11.27,0-22.53,0-33.74,0-15.37-.17-30.8-.14-46.31,0-13.78.27-27.46.39-41.07.07-7.5.08-15.05.13-22.63s0-15.34.15-23.1.41-15.13.47-22.37c0-6.3-.19-12.9-.16-19.8,0-8.09.27-16,.31-23.71,0-8.2-.12-16.55-.1-25,0-9.27.18-18.43.2-27.47,0-8.81-.15-17.78-.09-26.9.08-14,.31-27.85.43-41.66.06-10.75.13-21.56.14-32.36,0-1.09,0-1.75,0-1.81A3.49,3.49,0,0,0,78.26,257Z"/></clipPath><clipPath id="clip-path-25" transform="translate(-35.92 -29.59)"><path class="cls-1" d="M106,231.2l-14.94,9.18L74.16,239.1l-5.62-10.74Z"/></clipPath><clipPath id="clip-path-26" transform="translate(-35.92 -29.59)"><path class="cls-1" d="M76.87,123.86l-10,6.88c-.34-.22-.7-.43-1.06-.69-3.85-2.83-4.74-9.79-1.65-14.51a116.76,116.76,0,0,1,7.41-9.7c4.31-5.33,7.9-11.35,7.82-20.91a37.1,37.1,0,0,0-4.25-16.47,29,29,0,0,1-3-14.17,102.77,102.77,0,0,1,1.42-12.43,16.8,16.8,0,0,1,5.69-10.49,6.53,6.53,0,0,1,4.35-1.78l4,10a2.15,2.15,0,0,0-1.44.59,7.05,7.05,0,0,0-2.63,4.19,88.33,88.33,0,0,0-1.24,10.52,14.89,14.89,0,0,0,1.62,7.32,50.68,50.68,0,0,1,5.6,22.59c.07,14.24-5,22.63-10.25,29-2.52,3.18-4.92,6-6.92,9a2.81,2.81,0,0,0,0-1.89C72.41,121,72.67,121.18,76.87,123.86Z"/></clipPath><clipPath id="clip-path-27" transform="translate(-35.92 -29.59)"><path class="cls-1" d="M66.85,130.74H49.56c-.34-.22-.7-.43-1.05-.69-3.86-2.83-4.75-9.79-1.66-14.51a119,119,0,0,1,7.41-9.7c4.31-5.33,7.9-11.35,7.82-20.91a37.1,37.1,0,0,0-4.25-16.47,29.25,29.25,0,0,1-3-14.17A104.83,104.83,0,0,1,56.3,41.86,16.8,16.8,0,0,1,62,31.37a6.55,6.55,0,0,1,4.35-1.78H83.62a6.53,6.53,0,0,0-4.35,1.78,16.8,16.8,0,0,0-5.69,10.49,102.77,102.77,0,0,0-1.42,12.43,29,29,0,0,0,3,14.17,37.1,37.1,0,0,1,4.25,16.47c.08,9.56-3.51,15.58-7.82,20.91a116.76,116.76,0,0,0-7.41,9.7c-3.09,4.72-2.2,11.68,1.65,14.51C66.15,130.31,66.51,130.52,66.85,130.74Z"/></clipPath><clipPath id="clip-path-28" transform="translate(-35.92 -29.59)"><path class="cls-1" d="M69.17,156.15l.82-.21a3.22,3.22,0,0,0,2.71,2.57,1,1,0,0,0,.63-.19c1.26-.9,2.71-2.5,15.8-14.61L77,162.77a62.51,62.51,0,0,1-5.13,4.69,5.31,5.31,0,0,1-3.14,1c-3.81,0-7.72-4.15-8.67-10-.58-3.55.3-6.66,1.27-9.59.89-2.72,2.1-5.17,3.19-7.7a28.27,28.27,0,0,0,2.32-10.47l10-6.88c.15,12.2-1.31,18.46-3.34,23.11-1.14,2.65-2.19,4.77-2.8,6.64C70.2,155.26,70,156,70,156A4.31,4.31,0,0,0,69.17,156.15Z"/></clipPath><clipPath id="clip-path-29" transform="translate(-35.92 -29.59)"><path class="cls-1" d="M68.74,168.51H51.45c-3.81,0-7.71-4.15-8.66-10-.58-3.55.3-6.66,1.26-9.59.89-2.72,2.1-5.17,3.2-7.7a28.45,28.45,0,0,0,2.31-10.47H66.85a28.27,28.27,0,0,1-2.32,10.47c-1.09,2.53-2.3,5-3.19,7.7-1,2.93-1.85,6-1.27,9.59C61,164.36,64.93,168.51,68.74,168.51Z"/></clipPath><clipPath id="clip-path-30" transform="translate(-35.92 -29.59)"><path class="cls-1" d="M86.37,652.22a6.65,6.65,0,0,0-3.43-.09,9.18,9.18,0,0,0-3.47,1.2,3,3,0,0,0-1.15,1.6c-.25.93-.25.93-.2,3.49a9.8,9.8,0,0,1-1.39-2.32,74.91,74.91,0,0,1-2-8.7,271.13,271.13,0,0,1-2.23-31.35c-.39-17.49-1-34.95-1.64-52.42-.5-13.61-1.24-27.21-1.75-40.83-.2-5.16,0-10.37-.13-15.55-.35-9.72-.92-19.42-1.3-29.14-.49-12.59-.9-25.19-1.33-37.78-.31-9.09-.57-18.18-.87-27.27q-.51-15.54-1.07-31.08c-.23-6.93-.53-13.86-.71-20.79-.37-13.88-.6-27.77-1.05-41.63-.29-8.68-.53-17.42-1.43-26-.72-7-2.34-13.67-3.64-20.46C56.38,267,55,261,53.92,254.9a45.83,45.83,0,0,1,.62-19,54.55,54.55,0,0,1,5.82-14c2.4-4.32,4.86-8.61,7-13.26,2.91-6.29,3.56-13.52,2.43-21.15-.5-3.39-1-6.79-1.7-10.1a39.76,39.76,0,0,0-1.66-4.88l2,1.07a5.91,5.91,0,0,0,1.59.58,4.76,4.76,0,0,0,1.84,0,11.23,11.23,0,0,0,2.84-1.2,19,19,0,0,1,2.56-1.26s.34,1.17.64,2.6c.75,3.69,1.32,7.36,1.84,10.89,1.54,10.27.63,20.59-3.5,29.5-2.36,5.09-4.94,9.68-7.36,14a43.39,43.39,0,0,0-4.65,10.94,30.16,30.16,0,0,0-.45,12.56c1.05,5.83,2.4,11.79,3.61,18.09,1.26,6.62,3,13.76,3.83,21.76,1,9.2,1.26,18.4,1.5,27.1.46,14,.69,27.91,1.06,41.73.18,6.8.47,13.69.71,20.66Q75,397,75.56,412.52c.31,9.11.57,18.21.87,27.26.43,12.59.84,25.16,1.33,37.69.37,9.59.95,19.31,1.3,29.2.2,5.78,0,11,.13,15.51.51,13.51,1.25,27.12,1.75,40.86.65,17.47,1.26,35,1.65,52.65a255.2,255.2,0,0,0,2.08,29.49A68.88,68.88,0,0,0,86.37,652.22Z"/></clipPath></defs><title>Untitled-1</title><g class="cls-2"><g class="cls-2"><g class="cls-3"><g class="cls-2"><path class="cls-4" d="M78,157.52l-.1-.09.08,0,0,.13s0,0,0,0" transform="translate(-35.92 -29.59)"/></g></g></g><g class="cls-2"><g class="cls-5"><g class="cls-2"><path class="cls-4" d="M78.38,172.44l-5.11,7.31-.08-.05,5.52-7.16-.33-.1" transform="translate(-35.92 -29.59)"/><path class="cls-6" d="M78.71,172.54l-5.52,7.16-.13-.06,5.81-7-.16-.05" transform="translate(-35.92 -29.59)"/><polyline class="cls-7" points="42.95 143 37.14 150.05 37.14 150.05 42.96 143 42.95 143"/><polyline class="cls-8" points="42.96 143 37.14 150.05 37.13 150.05 42.97 143 42.96 143"/><polyline class="cls-9" points="42.97 143 37.13 150.05 37.12 150.04 42.97 143 42.97 143"/><polyline class="cls-10" points="42.97 143 37.12 150.04 37.12 150.04 42.98 143 42.97 143"/><polyline class="cls-11" points="42.98 143 37.12 150.04 37.11 150.04 42.98 143 42.98 143"/><polyline class="cls-12" points="42.98 143 37.11 150.04 37.1 150.03 42.99 143 42.98 143"/><polyline class="cls-13" points="42.99 143 37.1 150.03 37.1 150.03 43 143.01 42.99 143"/><polyline class="cls-14" points="43 143.01 37.1 150.03 37.09 150.03 43 143.01 43 143.01"/><polyline class="cls-15" points="43 143.01 37.09 150.03 37.09 150.03 43.01 143.01 43 143.01"/><polyline class="cls-16" points="43.01 143.01 37.09 150.03 37.08 150.02 43.01 143.01 43.01 143.01"/><polyline class="cls-17" points="43.01 143.01 37.08 150.02 37.07 150.02 43.02 143.01 43.01 143.01"/><polyline class="cls-18" points="43.02 143.01 37.07 150.02 37.06 150.02 43.03 143.01 43.02 143.01"/><polyline class="cls-19" points="43.03 143.01 37.06 150.02 37.06 150.01 43.03 143.02 43.03 143.01"/><polyline class="cls-20" points="43.03 143.02 37.06 150.01 37.05 150.01 43.04 143.02 43.03 143.02"/><polyline class="cls-21" points="43.04 143.02 37.05 150.01 37.04 150.01 43.04 143.02 43.04 143.02"/><polyline class="cls-22" points="43.04 143.02 37.04 150.01 37.03 150 43.05 143.02 43.04 143.02"/><polyline class="cls-23" points="43.05 143.02 37.03 150 37.03 150 43.05 143.02 43.05 143.02"/><polyline class="cls-24" points="43.05 143.02 37.03 150 37.02 150 43.06 143.02 43.05 143.02"/><polyline class="cls-25" points="43.06 143.02 37.02 150 37.01 149.99 43.07 143.03 43.06 143.02"/><polyline class="cls-26" points="43.07 143.03 37.01 149.99 37 149.99 43.07 143.03 43.07 143.03"/><polyline class="cls-27" points="43.07 143.03 37 149.99 36.99 149.99 43.08 143.03 43.07 143.03"/><polyline class="cls-28" points="43.08 143.03 36.99 149.99 36.99 149.98 43.08 143.03 43.08 143.03"/><polyline class="cls-29" points="43.08 143.03 36.99 149.98 36.98 149.98 43.09 143.03 43.08 143.03"/><polyline class="cls-29" points="43.09 143.03 36.98 149.98 36.97 149.97 43.09 143.03 43.09 143.03"/><polyline class="cls-29" points="43.09 143.03 36.97 149.97 36.96 149.97 43.1 143.03 43.09 143.03"/><polyline class="cls-29" points="43.1 143.03 36.96 149.97 36.95 149.97 43.1 143.04 43.1 143.03"/><polyline class="cls-29" points="43.1 143.04 36.95 149.97 36.95 149.96 43.11 143.04 43.1 143.04"/><polyline class="cls-29" points="43.11 143.04 36.95 149.96 36.94 149.96 43.12 143.04 43.11 143.04"/><polyline class="cls-29" points="43.12 143.04 36.94 149.96 36.93 149.96 43.12 143.04 43.12 143.04"/><polyline class="cls-29" points="43.12 143.04 36.93 149.96 36.92 149.95 43.13 143.04 43.12 143.04"/><polyline class="cls-29" points="43.13 143.04 36.92 149.95 36.91 149.95 43.13 143.04 43.13 143.04"/><polyline class="cls-29" points="43.13 143.04 36.91 149.95 36.91 149.95 43.13 143.04 43.13 143.04"/><polyline class="cls-29" points="43.13 143.04 36.91 149.95 36.9 149.94 43.14 143.04 43.13 143.04"/><polyline class="cls-29" points="43.14 143.04 36.9 149.94 36.89 149.94 43.15 143.05 43.14 143.04"/><polyline class="cls-29" points="43.15 143.05 36.89 149.94 36.88 149.94 43.15 143.05 43.15 143.05"/><polyline class="cls-29" points="43.15 143.05 36.88 149.94 36.87 149.93 43.16 143.05 43.15 143.05"/><polyline class="cls-29" points="43.16 143.05 36.87 149.93 36.86 149.93 43.16 143.05 43.16 143.05"/><polyline class="cls-29" points="43.16 143.05 36.86 149.93 36.85 149.92 43.17 143.05 43.16 143.05"/><polyline class="cls-29" points="43.17 143.05 36.85 149.92 36.84 149.92 43.17 143.05 43.17 143.05"/><polyline class="cls-29" points="43.17 143.05 36.84 149.92 36.84 149.91 43.18 143.05 43.17 143.05"/><polyline class="cls-29" points="43.18 143.05 36.84 149.91 36.83 149.91 43.18 143.06 43.18 143.05"/><polyline class="cls-28" points="43.18 143.06 36.83 149.91 36.82 149.91 43.19 143.06 43.18 143.06"/><polyline class="cls-27" points="43.19 143.06 36.82 149.91 36.81 149.9 43.19 143.06 43.19 143.06"/><polyline class="cls-26" points="43.19 143.06 36.81 149.9 36.8 149.9 43.2 143.06 43.19 143.06"/><polyline class="cls-25" points="43.2 143.06 36.8 149.9 36.79 149.89 43.2 143.06 43.2 143.06"/><polyline class="cls-24" points="43.2 143.06 36.79 149.89 36.78 149.89 43.21 143.06 43.2 143.06"/><polyline class="cls-23" points="43.21 143.06 36.78 149.89 36.77 149.88 43.21 143.06 43.21 143.06"/><polyline class="cls-22" points="43.21 143.06 36.77 149.88 36.76 149.88 43.22 143.06 43.21 143.06"/><polyline class="cls-21" points="43.22 143.06 36.76 149.88 36.75 149.88 43.22 143.06 43.22 143.06"/><polyline class="cls-20" points="43.22 143.06 36.75 149.88 36.74 149.87 43.23 143.07 43.22 143.06"/><polyline class="cls-19" points="43.23 143.07 36.74 149.87 36.73 149.87 43.23 143.07 43.23 143.07"/><polyline class="cls-18" points="43.23 143.07 36.73 149.87 36.72 149.86 43.23 143.07 43.23 143.07"/><polyline class="cls-17" points="43.23 143.07 36.72 149.86 36.7 149.86 43.24 143.07 43.23 143.07"/><polyline class="cls-16" points="43.24 143.07 36.7 149.86 36.7 149.85 43.24 143.07 43.24 143.07"/><polyline class="cls-15" points="43.24 143.07 36.7 149.85 36.68 149.85 43.25 143.07 43.24 143.07"/><polyline class="cls-14" points="43.25 143.07 36.68 149.85 36.67 149.84 43.25 143.07 43.25 143.07"/><polyline class="cls-13" points="43.25 143.07 36.67 149.84 36.66 149.84 43.26 143.07 43.25 143.07"/><polyline class="cls-12" points="43.26 143.07 36.66 149.84 36.65 149.84 43.26 143.08 43.26 143.07"/><polyline class="cls-11" points="43.26 143.08 36.65 149.84 36.64 149.83 43.27 143.08 43.26 143.08"/><polyline class="cls-10" points="43.27 143.08 36.64 149.83 36.63 149.83 43.27 143.08 43.27 143.08"/><polyline class="cls-9" points="43.27 143.08 36.63 149.83 36.62 149.82 43.28 143.08 43.27 143.08"/><polyline class="cls-8" points="43.28 143.08 36.62 149.82 36.61 149.82 43.28 143.08 43.28 143.08"/><polyline class="cls-7" points="43.28 143.08 36.61 149.82 36.59 149.81 43.29 143.08 43.28 143.08"/><polyline class="cls-6" points="43.29 143.08 36.59 149.81 36.58 149.81 43.29 143.08 43.29 143.08"/><path class="cls-4" d="M79.21,172.67,72.5,179.4c-.77-.33-2.19-.9-4.52-1.76l11.72-4.87a3.92,3.92,0,0,1-.49-.1" transform="translate(-35.92 -29.59)"/></g></g></g><g class="cls-2"><g class="cls-30"><g class="cls-2"><path class="cls-11" d="M76.29,174.19,68,177.64l0,0,8.28-3.4h0" transform="translate(-35.92 -29.59)"/><path class="cls-10" d="M76.29,174.19,68,177.59a.89.89,0,0,0,.08-.17l8.2-3.22h0" transform="translate(-35.92 -29.59)"/><path class="cls-9" d="M76.29,174.2l-8.2,3.22a.8.8,0,0,0,.08-.16l8.12-3.06h0" transform="translate(-35.92 -29.59)"/><path class="cls-8" d="M76.29,174.2l-8.12,3.06a1.09,1.09,0,0,0,.08-.15l8-2.9h0" transform="translate(-35.92 -29.59)"/><path class="cls-7" d="M76.28,174.21l-8,2.9c0-.05,0-.1.08-.14l8-2.75h0" transform="translate(-35.92 -29.59)"/><path class="cls-6" d="M76.28,174.22l-8,2.75c0-.07.07-.13.1-.19l7.85-2.53v0" transform="translate(-35.92 -29.59)"/><path class="cls-4" d="M76.28,174.25l-7.85,2.53c.54-1,.89-1.43,1.1-1.43h6.53c.11-.59.19-1,.22-1.11" transform="translate(-35.92 -29.59)"/></g></g></g><g class="cls-2"><g class="cls-31"><g class="cls-2"><path class="cls-4" d="M94.47,123.36l4,6.1c.52,2.3.89,4.79,1.62,7,1.26,3.77,2.7,7.38,4.14,11,2,4.92,1.94,11.93-.34,16.39-1.18,2.34-2.84,3.62-4.67,3.62l4-10s-.1.07-.07,0a6.44,6.44,0,0,0-.07-4.54c-1.48-3.69-3-7.53-4.4-11.67-1.1-3.37-1.54-6.33-4.14-17.84" transform="translate(-35.92 -29.59)"/></g></g></g><g class="cls-2"><g class="cls-32"><g class="cls-2"><path class="cls-4" d="M103.15,157.39l-4,10c-2.75-.27-5.13-.47-7.11-3.05-.44-.59-1.14-.67-1.72-1l-2.25-13.9c8.24,4.46,9.73,4.55,11.81,7.12.22.39,1.27.6,3.23.81" transform="translate(-35.92 -29.59)"/></g></g></g><g class="cls-2"><path class="cls-4" d="M103.08,157.43v.09s0,0,0,0l.05-.12s-.07.05-.07,0" transform="translate(-35.92 -29.59)"/></g><g class="cls-2"><g class="cls-33"><g class="cls-2"><path class="cls-4" d="M65.84,654.68,65,630.36c1.24,10.67,1.92,15.84,2.29,18l-1.42,4.35v2" transform="translate(-35.92 -29.59)"/><path class="cls-6" d="M65.84,652.69l1.42-4.35v0l-1.43,4.29v0" transform="translate(-35.92 -29.59)"/><path class="cls-7" d="M65.84,652.67l1.43-4.29v0l-1.44,4.23v0" transform="translate(-35.92 -29.59)"/><path class="cls-8" d="M65.84,652.64l1.44-4.23v0l-1.44,4.17v0" transform="translate(-35.92 -29.59)"/><path class="cls-9" d="M65.84,652.62l1.44-4.17v0l-1.45,4.12v0" transform="translate(-35.92 -29.59)"/><path class="cls-10" d="M65.84,652.6l1.45-4.12v0l-1.45,4.06v0" transform="translate(-35.92 -29.59)"/><path class="cls-11" d="M65.84,652.58l1.45-4.06v0l-1.46,4v0" transform="translate(-35.92 -29.59)"/><path class="cls-12" d="M65.84,652.56l1.46-4v0l-1.47,4v0" transform="translate(-35.92 -29.59)"/><path class="cls-13" d="M65.84,652.54l1.47-4v0l-1.47,3.91v0" transform="translate(-35.92 -29.59)"/><path class="cls-14" d="M65.84,652.52l1.47-3.91v0l-1.48,3.84v0" transform="translate(-35.92 -29.59)"/><path class="cls-15" d="M65.84,652.49l1.48-3.84v0l-1.48,3.79v0" transform="translate(-35.92 -29.59)"/><path class="cls-16" d="M65.84,652.47l1.48-3.79v0l-1.49,3.74v0" transform="translate(-35.92 -29.59)"/><path class="cls-17" d="M65.84,652.45l1.49-3.74v0l-1.5,3.69v0" transform="translate(-35.92 -29.59)"/><path class="cls-18" d="M65.84,652.43l1.5-3.69v0l-1.5,3.64v0" transform="translate(-35.92 -29.59)"/><path class="cls-19" d="M65.84,652.41l1.5-3.64v0l-1.51,3.58v0" transform="translate(-35.92 -29.59)"/><path class="cls-20" d="M65.84,652.38l1.51-3.58v0l-1.51,3.54v0" transform="translate(-35.92 -29.59)"/><path class="cls-21" d="M65.84,652.36l1.51-3.54v0l-1.52,3.49v0" transform="translate(-35.92 -29.59)"/><path class="cls-22" d="M65.84,652.34l1.52-3.49v0l-1.52,3.44v0" transform="translate(-35.92 -29.59)"/><path class="cls-23" d="M65.84,652.32l1.52-3.44v0l-1.53,3.39v0" transform="translate(-35.92 -29.59)"/><path class="cls-24" d="M65.84,652.3l1.53-3.39v0l-1.53,3.35v0" transform="translate(-35.92 -29.59)"/><path class="cls-23" d="M65.84,652.28l1.53-3.35v0l-1.54,3.28v0" transform="translate(-35.92 -29.59)"/><path class="cls-22" d="M65.84,652.24,67.38,649v0l-1.55,3.21v0" transform="translate(-35.92 -29.59)"/><path class="cls-21" d="M65.84,652.21,67.39,649v0l-1.55,3.15v0" transform="translate(-35.92 -29.59)"/><path class="cls-20" d="M65.84,652.18,67.39,649v0l-1.56,3.09v0" transform="translate(-35.92 -29.59)"/><path class="cls-19" d="M65.84,652.15l1.56-3.09v0l-1.57,3v0" transform="translate(-35.92 -29.59)"/><path class="cls-18" d="M65.84,652.12l1.57-3v0l-1.58,3v0" transform="translate(-35.92 -29.59)"/><path class="cls-17" d="M65.84,652.09l1.58-3v0l-1.58,2.89v0" transform="translate(-35.92 -29.59)"/><path class="cls-16" d="M65.84,652.05l1.58-2.89v0L65.84,652v0" transform="translate(-35.92 -29.59)"/><path class="cls-15" d="M65.84,652l1.59-2.84v0L65.84,652v0" transform="translate(-35.92 -29.59)"/><path class="cls-14" d="M65.84,652l1.6-2.78v0L65.84,652v0" transform="translate(-35.92 -29.59)"/><path class="cls-13" d="M65.84,652l1.6-2.72v0l-1.61,2.66v0" transform="translate(-35.92 -29.59)"/><path class="cls-12" d="M65.84,651.92l1.61-2.66v0l-1.61,2.6v0" transform="translate(-35.92 -29.59)"/><path class="cls-11" d="M65.84,651.89l1.61-2.6v0l-1.62,2.55v0" transform="translate(-35.92 -29.59)"/><path class="cls-10" d="M65.84,651.86l1.62-2.55a.31.31,0,0,1,0,.08l-1.64,2.34v.13" transform="translate(-35.92 -29.59)"/><path class="cls-9" d="M65.84,651.73l1.64-2.34,0,.12-1.68,2v.24" transform="translate(-35.92 -29.59)"/><path class="cls-8" d="M65.84,651.49l1.68-2c0,.06,0,.09.07.09L65.84,651v.52" transform="translate(-35.92 -29.59)"/><path class="cls-7" d="M65.84,651l1.75-1.37h0l-1.76,1.21V651" transform="translate(-35.92 -29.59)"/></g></g></g><g class="cls-2"><g class="cls-34"><g class="cls-2"><path class="cls-4" d="M100.66,121.66l1.85-2a32.77,32.77,0,0,1-.08,6.47l-2-.91c.14-2.18.23-3.44.19-3.51" transform="translate(-35.92 -29.59)"/></g></g></g><g class="cls-2"><g class="cls-35"><g class="cls-2"><path class="cls-7" d="M87.58,39.59l-4-10a6.31,6.31,0,0,1,1.36.16l3.12,9.9a2.31,2.31,0,0,0-.52-.06" transform="translate(-35.92 -29.59)"/><path class="cls-6" d="M88.1,39.65,85,29.75a7,7,0,0,1,2,.8L88.87,40a2.56,2.56,0,0,0-.77-.33" transform="translate(-35.92 -29.59)"/><path class="cls-4" d="M88.87,40l-1.93-9.43c2.3,1.34,4.34,4,5.64,7.71C96,48,94.49,57,91.83,66.06c-1.19,4-2.93,7.61-4,11.69-2.37,9.22-.95,18,3.52,24.82a49.24,49.24,0,0,0,6.69,8.52,13.78,13.78,0,0,1,4.64,8.31,34.89,34.89,0,0,1-.07,6.77v0l-2.13-1.29,0,.26c.14-2.18.23-3.44.19-3.51a20.07,20.07,0,0,0-1.77-2,56.08,56.08,0,0,1-7.76-9.82c-6.3-9.52-8.44-22.68-5-36,1.37-5.27,3.19-9,4.11-12.18,2.12-7.26,3-12.89,1-18.48A6.18,6.18,0,0,0,88.87,40" transform="translate(-35.92 -29.59)"/><path class="cls-6" d="M100.5,124.91l2.13,1.29v0l-2.09-1.57,0,.25" transform="translate(-35.92 -29.59)"/><path class="cls-7" d="M100.53,124.66l2.09,1.57v0l-2.06-1.84,0,.25" transform="translate(-35.92 -29.59)"/><path class="cls-8" d="M100.56,124.41l2.06,1.84a2.36,2.36,0,0,1-.83,1.23l1-8.81c-.57.46-1.69,1.76-2.26,5.74" transform="translate(-35.92 -29.59)"/><path class="cls-7" d="M102.82,118.67l-1,8.81-.12.1,1.33-9-.18.13" transform="translate(-35.92 -29.59)"/><path class="cls-6" d="M103,118.54l-1.33,9,0,0,1.44-9.12-.06,0" transform="translate(-35.92 -29.59)"/><path class="cls-4" d="M103.06,118.5l-1.44,9.12,0,0c-.94.66-1.93,1.12-3.14,1.81l-4-6.1c7.2-4.08,8.06-4.49,8.62-4.88l0,0" transform="translate(-35.92 -29.59)"/></g></g></g><g class="cls-2"><g class="cls-36"><g class="cls-2"><path class="cls-4" d="M100.67,121.68l0-.09h0l-.06.06v0" transform="translate(-35.92 -29.59)"/></g></g></g><g class="cls-2"><g class="cls-37"><g class="cls-2"><path class="cls-4" d="M66.76,654.94l-9.26-3.13.09-.3,9,4.17c.08-.24.14-.49.2-.74" transform="translate(-35.92 -29.59)"/><path class="cls-6" d="M66.56,655.68l-9-4.17v0l9,4.22v0" transform="translate(-35.92 -29.59)"/><path class="cls-7" d="M66.55,655.71l-9-4.22v0l8.95,4.27v0" transform="translate(-35.92 -29.59)"/><path class="cls-8" d="M66.55,655.73l-8.95-4.27v0l8.93,4.32v0" transform="translate(-35.92 -29.59)"/><path class="cls-9" d="M66.54,655.76l-8.93-4.32v0l8.91,4.38v0" transform="translate(-35.92 -29.59)"/><path class="cls-10" d="M66.53,655.79l-8.91-4.38,0-.09,8.85,4.54,0-.07" transform="translate(-35.92 -29.59)"/><path class="cls-11" d="M66.5,655.86l-8.85-4.54c.34-1.07,1.66-4.93,7.32-21l1,26.92a11.62,11.62,0,0,0,.56-1.42" transform="translate(-35.92 -29.59)"/></g></g></g><g class="cls-2"><g class="cls-38"><g class="cls-2"><path class="cls-4" d="M99.19,167.4H81.9c-2.74-.27-5.12-.47-7.1-3.05-.45-.59-1.15-.67-1.73-1H90.36c.58.32,1.28.4,1.72,1,2,2.58,4.36,2.78,7.11,3.05" transform="translate(-35.92 -29.59)"/></g></g></g><g class="cls-2"><g class="cls-39"><g class="cls-2"><path class="cls-4" d="M60.3,655.23l-9.32.09c0-.09,0-.15,0-.27l9.31.53v-.35" transform="translate(-35.92 -29.59)"/><path class="cls-6" d="M60.3,655.58,51,655.05v0l9.31.57v0" transform="translate(-35.92 -29.59)"/><path class="cls-7" d="M60.3,655.6,51,655v0l9.31.62v0" transform="translate(-35.92 -29.59)"/><path class="cls-8" d="M60.3,655.62,51,655v0l9.3.66v0" transform="translate(-35.92 -29.59)"/><path class="cls-9" d="M60.29,655.64,51,655v0l9.3.72v0" transform="translate(-35.92 -29.59)"/><polyline class="cls-10" points="24.37 626.07 15.07 625.36 15.07 625.35 24.37 626.08 24.37 626.07"/><path class="cls-9" d="M60.29,655.67l-9.3-.73c0-.76.27-3.39,1.57-17.66l7.62,19.48s.08-.51.11-1.09" transform="translate(-35.92 -29.59)"/></g></g></g><g class="cls-2"><g class="cls-40"><g class="cls-2"><path class="cls-4" d="M60.19,656.79l-7.63-19.51c7.72,12.53,7.85,12.52,8.59,14.94l-1.57,3.58a2.48,2.48,0,0,0,.61,1" transform="translate(-35.92 -29.59)"/></g></g></g><g class="cls-2"><g class="cls-41"><g class="cls-2"><path class="cls-15" d="M83.28,658.79H66L65.9,658H83.19l.09.82" transform="translate(-35.92 -29.59)"/><path class="cls-16" d="M83.19,658H65.9c-.05-.49-.09-1-.13-1.46H83.06c0,.49.08,1,.13,1.46" transform="translate(-35.92 -29.59)"/><path class="cls-17" d="M83.06,656.51H65.77c0-.53-.08-1.06-.1-1.6H83c0,.54.07,1.07.11,1.6" transform="translate(-35.92 -29.59)"/><path class="cls-18" d="M83,654.91H65.67c0-.6-.06-1.21-.08-1.82H82.87c0,.61,0,1.22.08,1.82" transform="translate(-35.92 -29.59)"/><path class="cls-19" d="M82.87,653.09H65.59c0-.76,0-1.52,0-2.28H82.82c0,.76,0,1.52.05,2.28" transform="translate(-35.92 -29.59)"/><path class="cls-20" d="M82.82,650.81H65.54c0-1.29,0-2.57,0-3.85l0-3.15H82.85l0,3.15c0,1.28,0,2.56,0,3.85" transform="translate(-35.92 -29.59)"/><path class="cls-21" d="M82.85,643.81H65.56c.06-7.53.14-15.06.2-22.59H83.05q-.1,11.29-.2,22.59" transform="translate(-35.92 -29.59)"/><path class="cls-20" d="M83.05,621.22H65.76q.06-6.88.1-13.75c0-6.14-.1-12.29-.08-18.43,0-13.63,0-27.27.17-40.9H83.24c-.12,13.63-.14,27.27-.18,40.9,0,6.14.13,12.29.09,18.43q0,6.87-.1,13.75" transform="translate(-35.92 -29.59)"/><path class="cls-21" d="M83.24,548.14H66c0-1.93,0-3.87,0-5.8.13-11.8.56-23.59.66-35.39H84c-.1,11.8-.54,23.59-.66,35.39,0,1.93,0,3.87-.05,5.8" transform="translate(-35.92 -29.59)"/><path class="cls-20" d="M84,507H66.66c0-.33,0-.67,0-1,.1-13.5-.12-27-.1-40.5q0-6.74.08-13.45H83.94q-.06,6.72-.08,13.45c0,13.5.2,27,.1,40.5,0,.33,0,.67,0,1" transform="translate(-35.92 -29.59)"/><path class="cls-21" d="M83.94,452H66.65q.06-6.94.13-13.91H84.06c0,4.64-.09,9.28-.12,13.91" transform="translate(-35.92 -29.59)"/><path class="cls-20" d="M84.06,438.09H66.78l.06-8.84c0-11.71,0-23.43.08-35.15v-.76H84.21c0,.25,0,.51,0,.76-.08,11.72,0,23.44-.08,35.15q0,4.42-.06,8.84" transform="translate(-35.92 -29.59)"/><path class="cls-21" d="M84.21,393.34H66.92c.07-8,.3-16.1.41-24.15q.06-4.05.09-8.1H84.71q0,4.05-.09,8.1c-.12,8.05-.34,16.1-.41,24.15" transform="translate(-35.92 -29.59)"/><path class="cls-20" d="M84.71,361.09H67.42c0-2.72,0-5.44.06-8.16.07-9.11.15-18.22.18-27.33,0-10,0-20,0-29.94,0-12.2.09-24.42,0-36.61v-.26H85a1.13,1.13,0,0,0,0,.26c.09,12.19,0,24.41,0,36.61,0,10,0,20,0,29.94q-.06,13.66-.18,27.33l-.06,8.16" transform="translate(-35.92 -29.59)"/><path class="cls-21" d="M85,258.79H67.69v-.31H85v.31" transform="translate(-35.92 -29.59)"/><path class="cls-22" d="M85,258.48H67.69c0-.1,0-.2,0-.3H85c0,.1,0,.2,0,.3" transform="translate(-35.92 -29.59)"/><path class="cls-23" d="M85,258.18H67.71c0-.1,0-.2,0-.3H85c0,.1,0,.2,0,.3" transform="translate(-35.92 -29.59)"/><path class="cls-24" d="M85,257.88H67.72a2.83,2.83,0,0,0,0-.29H85c0,.1,0,.19,0,.29" transform="translate(-35.92 -29.59)"/><path class="cls-25" d="M85,257.59H67.74l0-.29H85.06l0,.29" transform="translate(-35.92 -29.59)"/><path class="cls-26" d="M85.06,257.3H67.77l0-.29H85.09l0,.29" transform="translate(-35.92 -29.59)"/><path class="cls-27" d="M85.09,257H67.8c0-.11,0-.21,0-.32H85.13c0,.11,0,.21,0,.32" transform="translate(-35.92 -29.59)"/><path class="cls-28" d="M85.13,256.69H67.85c0-.11,0-.22.05-.34H85.19l-.06.34" transform="translate(-35.92 -29.59)"/><path class="cls-29" d="M85.19,256.35H67.9c0-.13,0-.26.07-.39H85.26c0,.13-.05.26-.07.39" transform="translate(-35.92 -29.59)"/><path class="cls-29" d="M85.26,256H68l.12-.55H85.38c0,.18-.08.36-.12.55" transform="translate(-35.92 -29.59)"/><path class="cls-29" d="M85.38,255.41H68.09A38.62,38.62,0,0,1,70,250c1.17-3,2.37-6,3.8-9.6H91.08C89.65,244,88.44,247,87.27,250a38.6,38.6,0,0,0-1.89,5.43" transform="translate(-35.92 -29.59)"/></g></g></g><g class="cls-2"><g class="cls-42"><g class="cls-2"><path class="cls-8" d="M93.2,177.64l7-6.21-.21.43-6.56,5.28c-.08.16-.16.33-.25.5" transform="translate(-35.92 -29.59)"/><path class="cls-7" d="M93.45,177.14l6.56-5.28c-.07.14-.13.28-.19.41l-6.15,4.46-.22.41" transform="translate(-35.92 -29.59)"/><path class="cls-6" d="M93.67,176.73l6.15-4.46c0,.1-.1.21-.14.31l-5.86,3.88-.15.27" transform="translate(-35.92 -29.59)"/><path class="cls-4" d="M93.82,176.46l5.86-3.88a43.07,43.07,0,0,0-3.38,14.33c-.75,9.29-.07,18,4,25.25,1.68,3,3.6,5.66,5.44,8.4,3.57,5.31,5.3,12,5.58,19.69.34,9.79-1.66,18.83-3.39,28-1.45,7.68-2.82,15.48-3.68,23.38-.91,8.54-1.33,17.25-1.71,25.92-.65,14.79-1.09,29.62-1.63,44.43-.6,16.08-1.17,32.17-1.84,48.25-.23,5.72-.79,11.39-1,17.11-.46,10.17-.73,20.37-1.23,30.54-.61,12.49-1.42,24.95-2,37.45-.68,13.66-1.21,27.35-1.84,41-.47,10.09-1,20.17-1.46,30.26q-1.23,26.61-2.38,53.24a211,211,0,0,1-4.5,35.26c-.07.28-.14.55-.22.82l-1.54-4.43c-.07.21-.07.24-.09.31,1.65-9.86,3.29-22.56,4.17-32.67q1.17-26.62,2.38-53.28c.46-10.14,1-20.22,1.47-30.26.61-13.64,1.16-27.33,1.84-41.08.62-12.6,1.44-25.06,2-37.43.49-10,.76-20.19,1.23-30.49.28-6.08.83-11.73,1-17,.65-16,1.23-32.13,1.83-48.18.55-14.78,1-29.64,1.64-44.55.39-8.81.82-17.86,1.79-26.93.92-8.51,2.37-16.7,3.85-24.59,1.63-8.94,3.42-16.91,3.14-24.5-.2-5.28-1.31-9.48-3.59-12.88-1.82-2.71-3.88-5.57-5.83-9-5.63-10-6.51-21.86-5.56-33.3.53-6.5,1.8-12.87-.34-9.14" transform="translate(-35.92 -29.59)"/><path class="cls-6" d="M82.81,651.5l1.54,4.43,0,.05-1.51-4.52v0" transform="translate(-35.92 -29.59)"/><path class="cls-7" d="M82.82,651.46,84.33,656v0l-1.48-4.62,0,.05" transform="translate(-35.92 -29.59)"/><path class="cls-8" d="M82.84,651.41,84.32,656c-.3,1-.71,1.83-1,2.76l6.91-28.43c-5.84,16.53-7.06,20.12-7.35,21" transform="translate(-35.92 -29.59)"/></g></g></g><g class="cls-2"><g class="cls-43"><g class="cls-2"><path class="cls-4" d="M90.19,630.36l-6.91,28.43c-.21-1.8-.33-3.59-.4-5.37l9.6-5.08c-.37-2.14-1-7.31-2.29-18" transform="translate(-35.92 -29.59)"/><path class="cls-6" d="M92.48,648.34l-9.6,5.08v0l9.61-5v0" transform="translate(-35.92 -29.59)"/><path class="cls-7" d="M92.49,648.37l-9.61,5v0l9.61-5v0" transform="translate(-35.92 -29.59)"/><path class="cls-8" d="M92.49,648.41l-9.61,5v0l9.62-4.9v0" transform="translate(-35.92 -29.59)"/><path class="cls-9" d="M92.5,648.44l-9.62,4.9v0l9.62-4.84v0" transform="translate(-35.92 -29.59)"/><path class="cls-10" d="M92.5,648.47l-9.62,4.84v0l9.63-4.78v0" transform="translate(-35.92 -29.59)"/><path class="cls-11" d="M92.51,648.5l-9.63,4.78v0l9.63-4.72v0" transform="translate(-35.92 -29.59)"/><path class="cls-12" d="M92.51,648.53l-9.63,4.72v0l9.64-4.67v0" transform="translate(-35.92 -29.59)"/><path class="cls-13" d="M92.52,648.56l-9.64,4.67v0l9.64-4.61v0" transform="translate(-35.92 -29.59)"/><path class="cls-14" d="M92.52,648.59l-9.64,4.61v0l9.66-4.55v0" transform="translate(-35.92 -29.59)"/><path class="cls-15" d="M92.53,648.62l-9.66,4.55v0l9.67-4.49v0" transform="translate(-35.92 -29.59)"/><path class="cls-16" d="M92.54,648.65l-9.67,4.49v0l9.67-4.43v0" transform="translate(-35.92 -29.59)"/><path class="cls-17" d="M92.54,648.68l-9.67,4.43v0l9.68-4.39v0" transform="translate(-35.92 -29.59)"/><path class="cls-18" d="M92.55,648.7l-9.68,4.39v0l9.68-4.33v0" transform="translate(-35.92 -29.59)"/><path class="cls-19" d="M92.55,648.73l-9.68,4.33v0l9.69-4.27v0" transform="translate(-35.92 -29.59)"/><path class="cls-20" d="M92.56,648.76,82.87,653v0l9.69-4.21v0" transform="translate(-35.92 -29.59)"/><path class="cls-21" d="M92.56,648.79,82.87,653v0l9.7-4.17v0" transform="translate(-35.92 -29.59)"/><path class="cls-22" d="M92.57,648.81,82.87,653v0l9.7-4.11v0" transform="translate(-35.92 -29.59)"/><path class="cls-23" d="M92.57,648.84,82.87,653v0l9.71-4.06v0" transform="translate(-35.92 -29.59)"/><path class="cls-24" d="M92.58,648.86l-9.71,4.06v0l9.71-4v0" transform="translate(-35.92 -29.59)"/><path class="cls-25" d="M92.58,648.89l-9.71,4v0l9.73-4v0" transform="translate(-35.92 -29.59)"/><path class="cls-26" d="M92.59,648.91l-9.73,4h0l9.73-3.93h0" transform="translate(-35.92 -29.59)"/><path class="cls-25" d="M92.59,648.92l-9.73,3.93v-.05L92.6,649v0" transform="translate(-35.92 -29.59)"/><path class="cls-24" d="M92.6,649l-9.74,3.84v0L92.6,649v0" transform="translate(-35.92 -29.59)"/><path class="cls-23" d="M92.6,649l-9.74,3.76v0L92.61,649v0" transform="translate(-35.92 -29.59)"/><path class="cls-22" d="M92.61,649l-9.75,3.68v0l9.76-3.6v0" transform="translate(-35.92 -29.59)"/><path class="cls-21" d="M92.62,649.07l-9.76,3.6v0l9.77-3.52v0" transform="translate(-35.92 -29.59)"/><path class="cls-20" d="M92.63,649.1l-9.77,3.52v0l9.77-3.45v0" transform="translate(-35.92 -29.59)"/><path class="cls-19" d="M92.63,649.13l-9.77,3.45v-.05l9.78-3.37v0" transform="translate(-35.92 -29.59)"/><path class="cls-18" d="M92.64,649.16l-9.78,3.37v0l9.8-3.3v0" transform="translate(-35.92 -29.59)"/><path class="cls-17" d="M92.65,649.19l-9.8,3.3v0l9.8-3.22v0" transform="translate(-35.92 -29.59)"/><path class="cls-16" d="M92.65,649.22l-9.8,3.22v0l9.81-3.15v0" transform="translate(-35.92 -29.59)"/><path class="cls-15" d="M92.66,649.25l-9.81,3.15v0l9.82-3.07v0" transform="translate(-35.92 -29.59)"/><path class="cls-14" d="M92.67,649.28l-9.82,3.07v0l9.82-3v0" transform="translate(-35.92 -29.59)"/><path class="cls-13" d="M92.67,649.3l-9.82,3v-.07l9.83-2.9v0" transform="translate(-35.92 -29.59)"/><path class="cls-12" d="M92.68,649.34l-9.83,2.9c0-.08,0-.17,0-.25l9.88-2.54s0-.07,0-.11" transform="translate(-35.92 -29.59)"/><path class="cls-11" d="M92.72,649.45,82.84,652v-.25l9.91-2.21,0-.08" transform="translate(-35.92 -29.59)"/><path class="cls-10" d="M92.75,649.53l-9.91,2.21c0-.2,0-.4,0-.61l10-1.53s0,0-.06-.07" transform="translate(-35.92 -29.59)"/><path class="cls-9" d="M92.81,649.6l-10,1.53c0-1.39,0-2.78,0-4.17.1-13.16.25-26.33.33-39.49v-3.6H93.27c0,1.23,0,2.46,0,3.7-.07,13.21-.22,26.38-.33,39.52a10.45,10.45,0,0,1-.13,2.52" transform="translate(-35.92 -29.59)"/><path class="cls-8" d="M93.27,603.86H83.15c0-4.17-.07-8.33-.09-12.5H93.19c0,4.08.07,8.25.08,12.5" transform="translate(-35.92 -29.59)"/><path class="cls-9" d="M93.19,591.36H83.06V589c0-15.57.06-31.14.23-46.7.13-12.13.58-24.25.67-36.39,0-4,0-8,0-11.95H94.1q0,6,0,12.07c-.09,12.35-.54,24.5-.67,36.44-.16,15.48-.15,31-.23,46.58,0,.75,0,1.51,0,2.27" transform="translate(-35.92 -29.59)"/><path class="cls-8" d="M94.1,494H84c0-7.44-.09-14.89-.11-22.33H94c0,7.4.09,14.85.11,22.34" transform="translate(-35.92 -29.59)"/><path class="cls-9" d="M94,471.66H83.87c0-2.07,0-4.15,0-6.22,0-12.06.21-24.13.26-36.2.06-11.71,0-23.43.08-35.15.07-8.3.3-16.6.42-24.91.08-5.42.11-10.84.15-16.26q.11-13.67.18-27.33c0-10,0-20,0-29.94,0-9.32.05-18.65,0-28l10.12-.06c0,9.38,0,18.73,0,28,0,10,0,20,0,30,0,9.15-.11,18.28-.18,27.38,0,5.48-.07,10.89-.15,16.39-.12,8.39-.35,16.65-.41,24.79-.09,11.63,0,23.33-.09,35.1,0,12.14-.24,24.2-.26,36.15q0,3.09,0,6.19" transform="translate(-35.92 -29.59)"/><path class="cls-8" d="M95.14,267.64,85,267.7q0-4.33,0-8.65a1.7,1.7,0,0,1,0-.22l10.12.09h0c0,2.91,0,5.81,0,8.72" transform="translate(-35.92 -29.59)"/><path class="cls-9" d="M95.09,258.92,85,258.83c0-.5,0-1,.08-1.43l10.06,1.44a.17.17,0,0,0,0,.08" transform="translate(-35.92 -29.59)"/><path class="cls-10" d="M95.11,258.84,85.05,257.4a16,16,0,0,1,.51-2.72l9.75,3.59a4.51,4.51,0,0,0-.2.57" transform="translate(-35.92 -29.59)"/><path class="cls-11" d="M95.31,258.27l-9.75-3.59c.46-1.65,1.11-3.14,1.71-4.7,1.17-3,2.38-6,3.81-9.6L106,231.2c-7.2,18.2-8.43,21.16-9.57,24.09-.56,1.47-.93,2.42-1.14,3" transform="translate(-35.92 -29.59)"/></g></g></g><g class="cls-2"><g class="cls-44"><g class="cls-2"><path class="cls-4" d="M88.11,149.46l2.25,13.9c0,2.84,1.81,4.3,4.07,5.83.15.1.3.2.46.29l1.81,9.36-.67-.41c-3-2-7.6-5-7.92-29" transform="translate(-35.92 -29.59)"/><path class="cls-6" d="M96.7,178.84l-1.81-9.36a12.49,12.49,0,0,0,2.44,1l1.13,9.22a8.81,8.81,0,0,1-1.76-.89" transform="translate(-35.92 -29.59)"/><path class="cls-7" d="M98.46,179.73l-1.13-9.22.42.13.54,9,.17.08" transform="translate(-35.92 -29.59)"/><path class="cls-8" d="M98.29,179.65l-.54-9h0l.5,9h0" transform="translate(-35.92 -29.59)"/><path class="cls-9" d="M98.27,179.64l-.5-9h0l.47,9h0" transform="translate(-35.92 -29.59)"/><path class="cls-10" d="M98.26,179.64l-.47-9h0l.45,9h0" transform="translate(-35.92 -29.59)"/><path class="cls-11" d="M98.25,179.63l-.45-9h0l.43,9h0" transform="translate(-35.92 -29.59)"/><path class="cls-12" d="M98.24,179.63l-.43-9h0l.4,9h0" transform="translate(-35.92 -29.59)"/><path class="cls-13" d="M98.23,179.62l-.4-9h0l.38,9h0" transform="translate(-35.92 -29.59)"/><path class="cls-14" d="M98.22,179.62l-.38-9h0l.35,8.94h0" transform="translate(-35.92 -29.59)"/><path class="cls-15" d="M98.21,179.61l-.35-8.94h0l.33,8.93h0" transform="translate(-35.92 -29.59)"/><path class="cls-16" d="M98.2,179.61l-.33-8.93h0l.3,8.92h0" transform="translate(-35.92 -29.59)"/><path class="cls-17" d="M98.19,179.6l-.3-8.92h0l.28,8.92h0" transform="translate(-35.92 -29.59)"/><path class="cls-18" d="M98.18,179.6l-.28-8.92h0l.25,8.9h0" transform="translate(-35.92 -29.59)"/><path class="cls-19" d="M98.17,179.59l-.25-8.9h0l.22,8.9h0" transform="translate(-35.92 -29.59)"/><path class="cls-20" d="M98.15,179.59l-.22-8.9h0l.2,8.88h0" transform="translate(-35.92 -29.59)"/><path class="cls-21" d="M98.14,179.58l-.2-8.88h0l.17,8.88h0" transform="translate(-35.92 -29.59)"/><path class="cls-22" d="M98.13,179.58,98,170.7h0l.15,8.86h0" transform="translate(-35.92 -29.59)"/><path class="cls-23" d="M98.12,179.57,98,170.71h0l.12,8.86h0" transform="translate(-35.92 -29.59)"/><path class="cls-24" d="M98.11,179.57,98,170.71h0l.09,8.84h0" transform="translate(-35.92 -29.59)"/><path class="cls-25" d="M98.09,179.56,98,170.72h0l.06,8.83h0" transform="translate(-35.92 -29.59)"/><path class="cls-26" d="M98.08,179.55,98,170.72h0l0,8.83h0" transform="translate(-35.92 -29.59)"/><path class="cls-27" d="M98.07,179.55l0-8.83h0v8.81h0" transform="translate(-35.92 -29.59)"/><path class="cls-28" d="M98.05,179.54v-8.81h0l0,8.8h0" transform="translate(-35.92 -29.59)"/><path class="cls-27" d="M98,179.53l0-8.8h0L98,179.53h0" transform="translate(-35.92 -29.59)"/><path class="cls-26" d="M98,179.53l.06-8.79h0L98,179.52h0" transform="translate(-35.92 -29.59)"/><path class="cls-25" d="M98,179.52l.08-8.78h0l-.1,8.77h0" transform="translate(-35.92 -29.59)"/><path class="cls-24" d="M98,179.52l.1-8.77h0L98,179.51h0" transform="translate(-35.92 -29.59)"/><path class="cls-23" d="M98,179.51l.12-8.76h0L98,179.51h0" transform="translate(-35.92 -29.59)"/><path class="cls-22" d="M98,179.51l.16-8.76h0L98,179.5h0" transform="translate(-35.92 -29.59)"/><path class="cls-21" d="M98,179.5l.18-8.74h0L98,179.5h0" transform="translate(-35.92 -29.59)"/><path class="cls-20" d="M98,179.5l.2-8.74h0l-.23,8.73h0" transform="translate(-35.92 -29.59)"/><path class="cls-19" d="M97.93,179.49l.23-8.73h0l-.26,8.71h0" transform="translate(-35.92 -29.59)"/><path class="cls-18" d="M97.92,179.48l.26-8.71h0l-.28,8.71h0" transform="translate(-35.92 -29.59)"/><path class="cls-17" d="M97.91,179.48l.28-8.71h0l-.31,8.69h0" transform="translate(-35.92 -29.59)"/><path class="cls-16" d="M97.89,179.47l.31-8.69h0l-.33,8.69h0" transform="translate(-35.92 -29.59)"/><path class="cls-15" d="M97.88,179.47l.33-8.69h0l-.37,8.68h0" transform="translate(-35.92 -29.59)"/><path class="cls-14" d="M97.86,179.46l.37-8.68h0l-.39,8.66h0" transform="translate(-35.92 -29.59)"/><path class="cls-13" d="M97.85,179.45l.39-8.66h0l-.42,8.66h0" transform="translate(-35.92 -29.59)"/><path class="cls-12" d="M97.83,179.45l.42-8.66h0l-.45,8.64h0" transform="translate(-35.92 -29.59)"/><path class="cls-11" d="M97.82,179.44l.45-8.64h0l-.48,8.63h0" transform="translate(-35.92 -29.59)"/><path class="cls-10" d="M97.8,179.43l.48-8.63h0l-.5,8.63h0" transform="translate(-35.92 -29.59)"/><path class="cls-9" d="M97.79,179.43l.5-8.63h0l-.53,8.61h0" transform="translate(-35.92 -29.59)"/><path class="cls-8" d="M97.77,179.42l.53-8.61h0l-.56,8.6h0" transform="translate(-35.92 -29.59)"/><path class="cls-7" d="M97.76,179.41l.56-8.6h0l-.59,8.59h0" transform="translate(-35.92 -29.59)"/><path class="cls-6" d="M97.74,179.41l.59-8.59h0l-.62,8.58h0" transform="translate(-35.92 -29.59)"/><path class="cls-4" d="M97.72,179.4l.62-8.58c.61.18,1.24.38,1.88.61l-7,6.21c2.33.86,3.75,1.43,4.52,1.76" transform="translate(-35.92 -29.59)"/></g></g></g><g class="cls-2"><g class="cls-45"><g class="cls-2"><path class="cls-4" d="M50.16,173.78l4.62,5.94c-3.05.93-4.47,1.43-4.92,1.6l1-7.67a4.46,4.46,0,0,1-.71.13" transform="translate(-35.92 -29.59)"/><path class="cls-6" d="M50.87,173.65l-1,7.67-.17.06,1.5-7.81-.32.08" transform="translate(-35.92 -29.59)"/><path class="cls-7" d="M51.19,173.57l-1.5,7.81h0l1.54-7.82h0" transform="translate(-35.92 -29.59)"/></g></g></g><g class="cls-2"><g class="cls-46"><g class="cls-2"><path class="cls-4" d="M50.49,174.79l1.56-3.16s.61,2,2.73,8.09L50,173.55a12.14,12.14,0,0,1,.51,1.24" transform="translate(-35.92 -29.59)"/></g></g></g><g class="cls-2"><g class="cls-47"><g class="cls-2"><path class="cls-4" d="M91.08,240.38H73.79L56.87,239.1H74.16l16.92,1.28" transform="translate(-35.92 -29.59)"/></g></g></g><g class="cls-2"><g class="cls-48"><g class="cls-2"><path class="cls-19" d="M66.44,172.48H49.15l.55-.16H67l-.54.16" transform="translate(-35.92 -29.59)"/><path class="cls-18" d="M67,172.32H49.7c.58-.16,1.14-.28,1.68-.43H68.67c-.55.15-1.11.27-1.69.43" transform="translate(-35.92 -29.59)"/><path class="cls-19" d="M68.67,171.89H51.38c.26-.07.52-.15.77-.24H69.44c-.25.09-.51.17-.77.24" transform="translate(-35.92 -29.59)"/><path class="cls-20" d="M69.44,171.65H52.15a4.09,4.09,0,0,0,.49-.18H69.93a4.09,4.09,0,0,1-.49.18" transform="translate(-35.92 -29.59)"/><path class="cls-21" d="M69.93,171.47H52.64l.39-.17H70.32l-.39.17" transform="translate(-35.92 -29.59)"/><path class="cls-22" d="M70.32,171.3H53l.32-.17H70.64l-.32.17" transform="translate(-35.92 -29.59)"/><path class="cls-23" d="M70.64,171.13H53.35l.09,0,.4-.25H71.13c-.13.09-.27.17-.41.25l-.08,0" transform="translate(-35.92 -29.59)"/><path class="cls-24" d="M71.13,170.83H53.84l.63-.43H71.76l-.63.43" transform="translate(-35.92 -29.59)"/><path class="cls-25" d="M71.76,170.4H54.47c.22-.17.45-.35.67-.54H72.43l-.67.54" transform="translate(-35.92 -29.59)"/><path class="cls-26" d="M72.43,169.86H55.14c.24-.2.48-.42.72-.65H73.14c-.23.23-.47.45-.71.65" transform="translate(-35.92 -29.59)"/><path class="cls-27" d="M73.14,169.21H55.86c.26-.25.51-.52.76-.8H73.91c-.25.28-.51.55-.77.8" transform="translate(-35.92 -29.59)"/><path class="cls-28" d="M73.91,168.41H56.62c.18-.2.35-.41.52-.62.35-.44.72-.86,1.07-1.33H75.49c-.35.47-.71.89-1.06,1.33-.17.21-.34.42-.52.62" transform="translate(-35.92 -29.59)"/><path class="cls-29" d="M75.49,166.46H58.21c.18-.25.36-.5.53-.78H76a9,9,0,0,1-.54.78" transform="translate(-35.92 -29.59)"/><path class="cls-29" d="M76,165.68H58.74c.12-.2.24-.41.35-.64H76.38c-.11.23-.23.44-.35.64" transform="translate(-35.92 -29.59)"/><path class="cls-29" d="M76.38,165H59.09a6.59,6.59,0,0,0,.48-1.36H76.86a7.24,7.24,0,0,1-.48,1.36" transform="translate(-35.92 -29.59)"/><path class="cls-29" d="M76.86,163.68H59.57a1.84,1.84,0,0,0,0-.25H76.91c0,.09,0,.17,0,.25" transform="translate(-35.92 -29.59)"/><path class="cls-29" d="M76.91,163.43H59.62l0-.17H76.94l0,.17" transform="translate(-35.92 -29.59)"/><path class="cls-28" d="M76.94,163.26H59.65l0-.17H77l0,.17" transform="translate(-35.92 -29.59)"/><path class="cls-27" d="M77,163.09H59.68c0-.05,0-.1,0-.15H77a.77.77,0,0,0,0,.15" transform="translate(-35.92 -29.59)"/><path class="cls-26" d="M77,162.94H59.7c0-.05,0-.1,0-.15H77c0,.05,0,.1,0,.15" transform="translate(-35.92 -29.59)"/><path class="cls-25" d="M77,162.79H59.72v0H77v0" transform="translate(-35.92 -29.59)"/></g></g></g><g class="cls-2"><g class="cls-49"><g class="cls-2"><path class="cls-4" d="M80,179.72l-13.55-7.24c.64-.2,1.27-.34,1.87-.5l6.82,9.32c.5-.18,1.92-.68,4.86-1.58" transform="translate(-35.92 -29.59)"/><path class="cls-6" d="M75.13,181.3,68.31,172l.07,0,6.69,9.36.06,0" transform="translate(-35.92 -29.59)"/><path class="cls-7" d="M75.07,181.32,68.38,172h.06L75,181.34l0,0" transform="translate(-35.92 -29.59)"/><path class="cls-8" d="M75,181.34,68.44,172l.75-.22L75,181.36c-.11,0-.11,0,0,0" transform="translate(-35.92 -29.59)"/><path class="cls-9" d="M75,181.36l-5.79-9.63a6.83,6.83,0,0,0,1.53-.65c.19-.11.37-.22.56-.35l6.3,9.25c-.27.18-.53.35-.8.51a16.42,16.42,0,0,1-1.8.87" transform="translate(-35.92 -29.59)"/><path class="cls-10" d="M77.58,180l-6.3-9.25a14.21,14.21,0,0,0,3.15-2.94l.29-.36,7.8,7.83-.36.44A20.57,20.57,0,0,1,77.58,180" transform="translate(-35.92 -29.59)"/><path class="cls-11" d="M82.52,175.26l-7.8-7.83A17.85,17.85,0,0,0,76,165.8l8.87,4.38a14.5,14.5,0,0,1-2.31,5.08" transform="translate(-35.92 -29.59)"/><path class="cls-12" d="M84.83,170.18,76,165.8a8.06,8.06,0,0,0,.39-.71l9.58.72c-.38,1.77-.75,3.2-1.1,4.37" transform="translate(-35.92 -29.59)"/><path class="cls-11" d="M85.93,165.81l-9.58-.72a6.35,6.35,0,0,0,.5-1.37L87.91,154c-.68,5.08-1.35,8.92-2,11.83" transform="translate(-35.92 -29.59)"/><path class="cls-10" d="M87.91,154l-11.06,9.74a9,9,0,0,0,.16-.95l12.12-19.06c-.41,3.89-.81,7.3-1.22,10.27" transform="translate(-35.92 -29.59)"/></g></g></g><g class="cls-2"><g class="cls-50"><g class="cls-2"><path class="cls-4" d="M78.12,658.42H60.83c-.49-.8-.93-1.29-1.19-1.81H76.93c.26.52.69,1,1.19,1.81" transform="translate(-35.92 -29.59)"/><path class="cls-6" d="M76.93,656.61H59.64a1.3,1.3,0,0,1-.08-.17H76.84l.09.17" transform="translate(-35.92 -29.59)"/><path class="cls-7" d="M76.84,656.44H59.56l-.05-.12H76.8s0,.08,0,.12" transform="translate(-35.92 -29.59)"/><path class="cls-8" d="M76.8,656.32H59.51l0-.09H76.77l0,.09" transform="translate(-35.92 -29.59)"/><path class="cls-9" d="M76.77,656.23H59.48l0-.09H76.74l0,.09" transform="translate(-35.92 -29.59)"/><path class="cls-10" d="M76.74,656.14H59.45v0c-.41-1.57-.85-3.14-1.24-4.74H75.48c.39,1.6.84,3.17,1.25,4.74v0" transform="translate(-35.92 -29.59)"/><path class="cls-11" d="M75.48,651.36H58.2c-.13-.51-.24-1-.35-1.53H75.13c.11.51.23,1,.35,1.53" transform="translate(-35.92 -29.59)"/><path class="cls-12" d="M75.13,649.83H57.85c-.08-.37-.15-.74-.22-1.12H74.91c.07.38.15.75.22,1.12" transform="translate(-35.92 -29.59)"/><path class="cls-13" d="M74.91,648.71H57.63q-.09-.45-.15-.9H74.76l.15.9" transform="translate(-35.92 -29.59)"/><path class="cls-14" d="M74.76,647.81H57.48a2.9,2.9,0,0,1-.06-.41c-.11-.77-.21-1.53-.31-2.3H74.4c.09.77.2,1.53.3,2.3l.06.41" transform="translate(-35.92 -29.59)"/><path class="cls-15" d="M74.4,645.1H57.11c-.21-1.62-.39-3.25-.56-4.88H73.83c.17,1.63.36,3.26.57,4.88" transform="translate(-35.92 -29.59)"/><path class="cls-16" d="M73.83,640.22H56.55c-.19-1.8-.35-3.59-.49-5.39H73.35c.14,1.8.3,3.59.48,5.39" transform="translate(-35.92 -29.59)"/><path class="cls-17" d="M73.35,634.83H56.06c-.16-2.06-.29-4.12-.41-6.18H72.94q.16,3.09.41,6.18" transform="translate(-35.92 -29.59)"/><path class="cls-18" d="M72.94,628.65H55.65q-.21-3.82-.33-7.66H72.61q.12,3.84.33,7.66" transform="translate(-35.92 -29.59)"/><path class="cls-19" d="M72.61,621H55.32c-.06-1.65-.1-3.29-.14-4.94q-.33-14.88-.84-29.74H71.63q.5,14.87.84,29.74c0,1.65.08,3.29.14,4.94" transform="translate(-35.92 -29.59)"/><path class="cls-18" d="M71.63,586.31H54.34Q54,575,53.54,563.63C53,550,52.31,536.42,51.79,522.8c0-.16,0-.31,0-.47H69.06c0,.16,0,.31,0,.47.51,13.62,1.25,27.22,1.75,40.83.27,7.56.55,15.12.8,22.68" transform="translate(-35.92 -29.59)"/><path class="cls-19" d="M69.06,522.33H51.77c0-.81,0-1.61-.05-2.41H69c0,.8,0,1.6,0,2.41" transform="translate(-35.92 -29.59)"/><path class="cls-20" d="M69,519.92H51.72c0-3.32,0-6.65,0-10H69c0,3.32,0,6.65,0,10" transform="translate(-35.92 -29.59)"/><path class="cls-19" d="M69,510H51.72c0-.8,0-1.6,0-2.39H69c0,.79,0,1.59.05,2.39" transform="translate(-35.92 -29.59)"/><path class="cls-18" d="M69,507.56H51.67c0-.11,0-.21,0-.31-.35-9.72-.92-19.42-1.29-29.14-.5-12.59-.91-25.19-1.34-37.78,0-.43,0-.87,0-1.3H66.28c0,.43,0,.87,0,1.3.43,12.59.84,25.19,1.33,37.78.38,9.72.95,19.42,1.3,29.14,0,.1,0,.2,0,.31" transform="translate(-35.92 -29.59)"/><path class="cls-19" d="M66.28,439H49c-.29-8.66-.54-17.31-.83-26l0-.84H65.42l0,.84c.28,8.66.54,17.31.83,26" transform="translate(-35.92 -29.59)"/><path class="cls-18" d="M65.42,412.22H48.13q-.5-15.12-1-30.24c-.18-5.09-.38-10.19-.55-15.28H63.84c.16,5.09.37,10.19.54,15.28q.53,15.12,1,30.24" transform="translate(-35.92 -29.59)"/><path class="cls-19" d="M63.84,366.7H46.55c-.06-1.84-.12-3.67-.17-5.51-.37-13.88-.6-27.77-1.05-41.63,0-1.32-.08-2.64-.13-4H62.49c0,1.32.08,2.64.13,4,.45,13.86.68,27.75,1.05,41.63,0,1.84.1,3.67.17,5.51" transform="translate(-35.92 -29.59)"/><path class="cls-18" d="M62.49,315.6H45.2c-.12-3.8-.26-7.61-.47-11.4H62c.21,3.79.35,7.6.48,11.4" transform="translate(-35.92 -29.59)"/><path class="cls-17" d="M62,304.2H44.73c-.11-1.92-.23-3.84-.38-5.75H61.63q.23,2.87.38,5.75" transform="translate(-35.92 -29.59)"/><path class="cls-16" d="M61.63,298.45H44.35c-.12-1.5-.25-3-.41-4.49H61.23c.15,1.49.29,3,.4,4.49" transform="translate(-35.92 -29.59)"/><path class="cls-15" d="M61.23,294H43.94l0-.36c-.07-.65-.15-1.29-.23-1.93H61c.08.64.16,1.28.22,1.93,0,.12,0,.24,0,.36" transform="translate(-35.92 -29.59)"/><path class="cls-14" d="M61,291.67H43.68c-.11-.86-.23-1.72-.36-2.57H60.61c.13.85.25,1.71.36,2.57" transform="translate(-35.92 -29.59)"/><path class="cls-13" d="M60.61,289.1H43.32c-.18-1.19-.39-2.38-.6-3.56H60c.21,1.18.41,2.37.6,3.56" transform="translate(-35.92 -29.59)"/><path class="cls-12" d="M60,285.54H42.72c-.76-4.16-1.66-8.27-2.45-12.4C39.1,267,37.74,261,36.63,254.9H53.92C55,261,56.38,267,57.55,273.14c.79,4.13,1.7,8.24,2.46,12.4" transform="translate(-35.92 -29.59)"/><path class="cls-13" d="M53.92,254.9H36.63c-.07-.39-.14-.78-.2-1.17H53.72c.06.39.13.78.2,1.17" transform="translate(-35.92 -29.59)"/><path class="cls-14" d="M53.72,253.73H36.43c0-.38-.11-.76-.15-1.13H53.56c0,.37.1.75.16,1.13" transform="translate(-35.92 -29.59)"/><path class="cls-15" d="M53.56,252.6H36.28c-.05-.36-.09-.73-.13-1.09H53.44c0,.36.08.73.12,1.09" transform="translate(-35.92 -29.59)"/><path class="cls-16" d="M53.44,251.51H36.15q-.06-.52-.09-1H53.34c0,.35.06.7.1,1" transform="translate(-35.92 -29.59)"/><path class="cls-17" d="M53.34,250.46H36.06c0-.34-.05-.68-.07-1H53.27c0,.34,0,.68.07,1" transform="translate(-35.92 -29.59)"/><path class="cls-18" d="M53.27,249.44H36c0-.33,0-.66-.05-1H53.23c0,.33,0,.66,0,1" transform="translate(-35.92 -29.59)"/><path class="cls-19" d="M53.23,248.45H35.94c0-.32,0-.64,0-.95H53.21c0,.31,0,.63,0,.95" transform="translate(-35.92 -29.59)"/><path class="cls-20" d="M53.21,247.5H35.92v-.93H53.21c0,.31,0,.62,0,.93" transform="translate(-35.92 -29.59)"/><path class="cls-21" d="M53.21,246.57H35.92c0-.3,0-.59,0-.89H53.22c0,.3,0,.59,0,.89" transform="translate(-35.92 -29.59)"/><path class="cls-22" d="M53.22,245.68H35.94l0-.88H53.26c0,.29,0,.58,0,.88" transform="translate(-35.92 -29.59)"/><path class="cls-23" d="M53.26,244.8H36c0-.29,0-.58.05-.87H53.31c0,.29,0,.58-.05.87" transform="translate(-35.92 -29.59)"/><path class="cls-24" d="M53.31,243.93H36c0-.29,0-.58.07-.87H53.37l-.06.87" transform="translate(-35.92 -29.59)"/><path class="cls-25" d="M53.37,243.06H36.09c0-.29,0-.58.08-.88H53.46c0,.3-.06.59-.09.88" transform="translate(-35.92 -29.59)"/><path class="cls-26" d="M53.46,242.18H36.17c0-.3.06-.6.1-.9H53.56c0,.3-.07.6-.1.9" transform="translate(-35.92 -29.59)"/><path class="cls-27" d="M53.56,241.28H36.27c0-.32.08-.65.13-1H53.69c0,.31-.09.64-.13,1" transform="translate(-35.92 -29.59)"/><path class="cls-28" d="M53.69,240.32H36.4c.05-.36.11-.71.17-1.07H53.85c-.06.36-.11.71-.16,1.07" transform="translate(-35.92 -29.59)"/><path class="cls-29" d="M53.85,239.25H36.57c.07-.41.14-.82.22-1.23H54.08c-.08.41-.16.82-.23,1.23" transform="translate(-35.92 -29.59)"/><path class="cls-29" d="M54.08,238H36.79c.11-.55.22-1.1.35-1.65H54.43c-.13.55-.25,1.1-.35,1.65" transform="translate(-35.92 -29.59)"/><path class="cls-29" d="M54.43,236.37H37.14l.12-.5a47.44,47.44,0,0,1,3.46-9.51H58a48.08,48.08,0,0,0-3.47,9.51c0,.17-.07.33-.11.5" transform="translate(-35.92 -29.59)"/><path class="cls-29" d="M58,226.36H40.72c.74-1.54,1.54-3,2.35-4.49,2.18-3.91,4.4-7.81,6.39-12H66.75c-2,4.15-4.21,8.05-6.39,12-.82,1.46-1.61,2.95-2.35,4.49" transform="translate(-35.92 -29.59)"/><path class="cls-29" d="M66.75,209.91H49.46c.21-.43.42-.86.62-1.3a31,31,0,0,0,2.06-6H69.42a30.93,30.93,0,0,1-2,6c-.21.44-.41.87-.62,1.3" transform="translate(-35.92 -29.59)"/><path class="cls-29" d="M69.42,202.57H52.14c.08-.37.16-.74.23-1.11H69.66q-.1.56-.24,1.11" transform="translate(-35.92 -29.59)"/><path class="cls-29" d="M69.66,201.46H52.37c.06-.29.11-.59.16-.88H69.82c0,.29-.1.59-.16.88" transform="translate(-35.92 -29.59)"/><path class="cls-28" d="M69.82,200.58H52.53l.12-.77H69.94l-.12.77" transform="translate(-35.92 -29.59)"/><path class="cls-27" d="M69.94,199.81H52.65c0-.25.07-.49.1-.73H70c0,.24-.07.48-.1.73" transform="translate(-35.92 -29.59)"/><path class="cls-26" d="M70,199.08H52.75c0-.24.06-.47.08-.71H70.12c0,.24-.05.47-.08.71" transform="translate(-35.92 -29.59)"/><path class="cls-25" d="M70.12,198.37H52.83c0-.23.05-.47.07-.7H70.18l-.06.7" transform="translate(-35.92 -29.59)"/><path class="cls-24" d="M70.18,197.67H52.9c0-.24,0-.48.05-.72H70.24l-.06.72" transform="translate(-35.92 -29.59)"/><path class="cls-23" d="M70.24,197H53c0-.24,0-.48,0-.73H70.28c0,.25,0,.49,0,.73" transform="translate(-35.92 -29.59)"/><path class="cls-22" d="M70.28,196.22H53l0-.77H70.31l0,.77" transform="translate(-35.92 -29.59)"/><path class="cls-21" d="M70.31,195.45H53c0-.27,0-.54,0-.81H70.32c0,.27,0,.54,0,.81" transform="translate(-35.92 -29.59)"/><path class="cls-20" d="M70.32,194.64H53c0-.28,0-.57,0-.86H70.32c0,.29,0,.58,0,.86" transform="translate(-35.92 -29.59)"/><path class="cls-19" d="M70.32,193.78H53c0-.3,0-.61,0-.91H70.3c0,.3,0,.61,0,.91" transform="translate(-35.92 -29.59)"/><path class="cls-18" d="M70.3,192.87H53c0-.33,0-.66,0-1H70.26c0,.32,0,.65,0,1" transform="translate(-35.92 -29.59)"/><path class="cls-17" d="M70.26,191.89H53c0-.35,0-.71-.07-1.06H70.19c0,.35,0,.71.07,1.06" transform="translate(-35.92 -29.59)"/><path class="cls-16" d="M70.19,190.83H52.9c0-.38-.06-.76-.1-1.14H70.08c0,.38.08.76.11,1.14" transform="translate(-35.92 -29.59)"/><path class="cls-15" d="M70.08,189.69H52.8c0-.4-.09-.81-.14-1.22H69.94c.06.41.1.82.14,1.22" transform="translate(-35.92 -29.59)"/><path class="cls-14" d="M69.94,188.47H52.66c0-.33-.09-.67-.14-1l-.36-2.37H69.45c.12.79.24,1.58.35,2.37,0,.34.1.68.14,1" transform="translate(-35.92 -29.59)"/><path class="cls-13" d="M69.45,185.09H52.16c-.27-1.75-.55-3.48-.86-5.2H68.58c.32,1.72.6,3.45.87,5.2" transform="translate(-35.92 -29.59)"/><path class="cls-12" d="M68.58,179.89H51.3c-.16-.85-.32-1.7-.49-2.53l0-.11H68.08l0,.11c.17.83.33,1.68.48,2.53" transform="translate(-35.92 -29.59)"/><path class="cls-11" d="M68.08,177.25H50.79c0-.1,0-.21-.07-.31H68c0,.1,0,.21.07.31" transform="translate(-35.92 -29.59)"/><path class="cls-10" d="M68,176.94H50.72c0-.13-.06-.25-.1-.37H67.91c0,.12.06.24.1.37" transform="translate(-35.92 -29.59)"/><path class="cls-9" d="M67.91,176.57H50.62c0-.17-.09-.33-.14-.49H67.76l.15.49" transform="translate(-35.92 -29.59)"/><path class="cls-8" d="M67.76,176.08H50.48c-.09-.27-.18-.53-.28-.8H67.49c.1.27.19.53.27.8" transform="translate(-35.92 -29.59)"/><path class="cls-7" d="M67.49,175.28H50.2c-.27-.73-.58-1.49-.88-2.33H66.6c.31.84.62,1.6.89,2.33" transform="translate(-35.92 -29.59)"/><path class="cls-8" d="M66.6,173H49.32c-.06-.16-.12-.31-.17-.47H66.44c0,.16.11.31.16.47" transform="translate(-35.92 -29.59)"/></g></g></g><g class="cls-2"><g class="cls-51"><g class="cls-2"><path class="cls-4" d="M68.54,228.36l5.62,10.74c.38,1.43.54,2.28.82,3,1.47,3.78,3.12,7.4,4.4,11.33a21.76,21.76,0,0,1,.62,6.27q0,16.23-.14,32.49c-.12,13.87-.35,27.75-.43,41.63-.06,8.94.1,17.88.09,26.83,0,9.15-.18,18.31-.2,27.48,0,8.36.13,16.72.1,25.08,0,7.9-.27,15.8-.31,23.7,0,6.63.21,13.25.16,19.87-.06,7.49-.37,15-.47,22.46-.11,7.65-.11,15.31-.15,23s-.06,15.13-.12,22.69c-.13,13.65-.36,27.3-.4,41,0,15.41.11,30.82.15,46.24,0,11.26,0,22.51,0,33.77,0,3.11.1,6.23.12,9.34,0,.14,0,.28,0,.42L76.2,655v.29c0-3-.12-6.09-.12-9.44,0-11.27,0-22.53,0-33.74,0-15.37-.17-30.8-.14-46.31,0-13.78.27-27.46.39-41.07.07-7.5.08-15.05.13-22.63s0-15.34.15-23.1.41-15.13.47-22.37c0-6.3-.19-12.9-.16-19.8,0-8.09.27-16,.31-23.71,0-8.2-.12-16.55-.1-25,0-9.27.18-18.43.2-27.47,0-8.81-.15-17.78-.09-26.9.08-14,.31-27.85.43-41.66.06-10.75.13-21.56.14-32.36,0-1.51-.06-2.2.1-1.58-1.07-3.28-2.62-6.69-4.17-10.69-.73-1.93-.95-3.19-5.2-19.08" transform="translate(-35.92 -29.59)"/><path class="cls-6" d="M76.2,655l2.18.61v.05l-2.17-.7v0" transform="translate(-35.92 -29.59)"/><path class="cls-7" d="M76.21,655l2.17.7c0,.7-.15,1.48-.26,2.73l-.35-21.14c-1.32,14.61-1.53,17-1.56,17.71" transform="translate(-35.92 -29.59)"/></g></g></g><g class="cls-2"><g class="cls-52"><g class="cls-2"><path class="cls-4" d="M106,231.2l-14.94,9.18L74.16,239.1l-5.62-10.74L106,231.2" transform="translate(-35.92 -29.59)"/></g></g></g><g class="cls-2"><g class="cls-53"><g class="cls-2"><path class="cls-4" d="M76.87,123.86l-10,6.88c-.34-.22-.7-.43-1.06-.69a8.42,8.42,0,0,1-2.87-4.1l9.5-4.61c0-.25-.09-.43-.12-.4s.37.24,4.57,2.92" transform="translate(-35.92 -29.59)"/><path class="cls-6" d="M72.42,121.34,62.92,126a11,11,0,0,1-.4-1.45l9.93-2.94,0-.22" transform="translate(-35.92 -29.59)"/><path class="cls-7" d="M72.45,121.56l-9.93,2.94c-.08-.41-.15-.82-.19-1.24l10.14-1.5a1.5,1.5,0,0,0,0-.2" transform="translate(-35.92 -29.59)"/><path class="cls-8" d="M72.47,121.76l-10.14,1.5c0-.41-.06-.82-.06-1.24l10.21,0a1.48,1.48,0,0,0,0-.21" transform="translate(-35.92 -29.59)"/><path class="cls-9" d="M72.48,122l-10.21,0a13.33,13.33,0,0,1,.08-1.41l10.13,1.58V122" transform="translate(-35.92 -29.59)"/><path class="cls-10" d="M72.48,122.19l-10.13-1.58a12.6,12.6,0,0,1,.45-2.18l9.65,4.08c0-.1,0-.2,0-.32" transform="translate(-35.92 -29.59)"/><path class="cls-11" d="M72.45,122.51l-9.65-4.08a11,11,0,0,1,1.34-2.89c1.1-1.68,2.27-3.27,3.47-4.8l7.83,7.8c-1.11,1.41-2.16,2.82-3.12,4.29a.74.74,0,0,0,.13-.32" transform="translate(-35.92 -29.59)"/><path class="cls-10" d="M75.44,118.54l-7.83-7.8c1.29-1.67,2.62-3.28,3.94-4.9l.39-.49,7.77,7.87-.47.58c-1.31,1.66-2.59,3.2-3.8,4.74" transform="translate(-35.92 -29.59)"/><path class="cls-11" d="M79.71,113.22l-7.77-7.87a33.35,33.35,0,0,0,6-10.77l9.56,4.32a42.78,42.78,0,0,1-7.84,14.32" transform="translate(-35.92 -29.59)"/><path class="cls-10" d="M87.55,98.9,78,94.58a28.75,28.75,0,0,0,1.16-5.4l10,1.9a43.85,43.85,0,0,1-1.61,7.82" transform="translate(-35.92 -29.59)"/><path class="cls-9" d="M89.16,91.08l-10-1.9a36,36,0,0,0,.22-4.12L89.49,85a52.86,52.86,0,0,1-.33,6.08" transform="translate(-35.92 -29.59)"/><path class="cls-8" d="M89.49,85l-10.12.06v-.13c0-1.18-.08-2.31-.2-3.42l10-1.68c.17,1.58.27,3.24.29,5V85" transform="translate(-35.92 -29.59)"/><path class="cls-7" d="M89.2,79.83l-10,1.68a34.45,34.45,0,0,0-.65-3.77l9.8-3.26a52.85,52.85,0,0,1,.88,5.35" transform="translate(-35.92 -29.59)"/><path class="cls-6" d="M88.32,74.48l-9.8,3.26A36,36,0,0,0,77,72.61l9.27-5.09a50.78,50.78,0,0,1,2.1,7" transform="translate(-35.92 -29.59)"/><path class="cls-4" d="M86.22,67.52,77,72.61c-.55-1.44-1.17-2.82-1.83-4.15A26,26,0,0,1,74,65.92l9.24-5.15q.28.72.63,1.44c.82,1.65,1.61,3.42,2.33,5.31" transform="translate(-35.92 -29.59)"/><path class="cls-6" d="M83.26,60.77,74,65.92A27.42,27.42,0,0,1,72.84,62l9.78-3.3a15.46,15.46,0,0,0,.64,2.08" transform="translate(-35.92 -29.59)"/><path class="cls-7" d="M82.62,58.69,72.84,62a30.07,30.07,0,0,1-.53-3.2l10-1.71a15,15,0,0,0,.27,1.61" transform="translate(-35.92 -29.59)"/><path class="cls-8" d="M82.35,57.08l-10,1.71a30.49,30.49,0,0,1-.17-3.21l10.12-.07a13.64,13.64,0,0,0,.09,1.57" transform="translate(-35.92 -29.59)"/><path class="cls-9" d="M82.26,55.51l-10.12.07c0-.43,0-.86,0-1.29.06-1.78.22-3.56.42-5.33l10,1.68c-.17,1.48-.29,2.9-.34,4.25,0,.21,0,.42,0,.62" transform="translate(-35.92 -29.59)"/><path class="cls-10" d="M82.61,50.64,72.58,49c.27-2.38.63-4.76,1-7.1a21.94,21.94,0,0,1,.57-2.53l9.54,4.26a5.49,5.49,0,0,0-.18.78c-.35,2.18-.67,4.28-.9,6.27" transform="translate(-35.92 -29.59)"/><path class="cls-11" d="M83.69,43.59l-9.54-4.26a16.47,16.47,0,0,1,2.78-5.49l7.94,7.64a6.32,6.32,0,0,0-1.18,2.11" transform="translate(-35.92 -29.59)"/><path class="cls-10" d="M84.87,41.48l-7.94-7.64a16.2,16.2,0,0,1,2.34-2.47,7.22,7.22,0,0,1,.85-.66L86.43,40a2.77,2.77,0,0,0-.29.22,12.8,12.8,0,0,0-1.27,1.3" transform="translate(-35.92 -29.59)"/><path class="cls-9" d="M86.43,40l-6.31-9.25a6.75,6.75,0,0,1,1.64-.81L87,39.69a2,2,0,0,0-.54.27" transform="translate(-35.92 -29.59)"/><path class="cls-8" d="M87,39.69,81.76,29.9a5.38,5.38,0,0,1,1.57-.3l4.16,10a1.84,1.84,0,0,0-.52.1" transform="translate(-35.92 -29.59)"/><path class="cls-7" d="M87.49,39.59l-4.16-10h.29l4,10h-.09" transform="translate(-35.92 -29.59)"/></g></g></g><g class="cls-2"><g class="cls-54"><g class="cls-2"><path class="cls-4" d="M66.85,130.74H49.56c-.34-.22-.7-.43-1.05-.69a8,8,0,0,1-2.35-2.84H63.45a8.05,8.05,0,0,0,2.34,2.84c.36.26.72.47,1.06.69" transform="translate(-35.92 -29.59)"/><path class="cls-6" d="M63.45,127.21H46.16c-.1-.2-.19-.41-.28-.62H63.17c.08.21.18.42.28.62" transform="translate(-35.92 -29.59)"/><path class="cls-7" d="M63.17,126.59H45.88c-.07-.15-.13-.31-.19-.47H63c.06.16.12.32.19.47" transform="translate(-35.92 -29.59)"/><path class="cls-8" d="M63,126.12H45.69l-.15-.44H62.83l.15.44" transform="translate(-35.92 -29.59)"/><path class="cls-9" d="M62.83,125.68H45.54c0-.12-.08-.25-.11-.38H62.71l.12.38" transform="translate(-35.92 -29.59)"/><path class="cls-10" d="M62.71,125.3H45.43c0-.13-.07-.25-.1-.37H62.62l.09.37" transform="translate(-35.92 -29.59)"/><path class="cls-11" d="M62.62,124.93H45.33c0-.12,0-.23-.08-.34H62.54c0,.11.05.22.08.34" transform="translate(-35.92 -29.59)"/><path class="cls-12" d="M62.54,124.59H45.25a3.4,3.4,0,0,0-.07-.34H62.47c0,.11,0,.22.07.34" transform="translate(-35.92 -29.59)"/><path class="cls-13" d="M62.47,124.25H45.18c0-.11,0-.21,0-.32H62.42c0,.11,0,.21,0,.32" transform="translate(-35.92 -29.59)"/><path class="cls-14" d="M62.42,123.93H45.13c0-.1,0-.21,0-.32H62.37c0,.11,0,.22.05.32" transform="translate(-35.92 -29.59)"/><path class="cls-15" d="M62.37,123.61H45.09c0-.1,0-.2,0-.3H62.34l0,.3" transform="translate(-35.92 -29.59)"/><path class="cls-16" d="M62.34,123.31H45.05a2.64,2.64,0,0,1,0-.29H62.31l0,.29" transform="translate(-35.92 -29.59)"/><path class="cls-17" d="M62.31,123H45c0-.1,0-.2,0-.29H62.29a2.64,2.64,0,0,1,0,.29" transform="translate(-35.92 -29.59)"/><path class="cls-18" d="M62.29,122.73H45c0-.09,0-.18,0-.27H62.28c0,.09,0,.18,0,.27" transform="translate(-35.92 -29.59)"/><path class="cls-19" d="M62.28,122.46H45v-.27H62.27a2.44,2.44,0,0,1,0,.27" transform="translate(-35.92 -29.59)"/><path class="cls-20" d="M62.27,122.19H45v-.27H62.27v.27" transform="translate(-35.92 -29.59)"/><path class="cls-21" d="M62.27,121.92H45v-.24H62.28c0,.08,0,.16,0,.24" transform="translate(-35.92 -29.59)"/><path class="cls-22" d="M62.28,121.68H45c0-.08,0-.16,0-.24H62.29a1.93,1.93,0,0,0,0,.24" transform="translate(-35.92 -29.59)"/><path class="cls-23" d="M62.29,121.44H45c0-.08,0-.17,0-.25H62.3c0,.08,0,.17,0,.25" transform="translate(-35.92 -29.59)"/><path class="cls-24" d="M62.3,121.19H45a1.94,1.94,0,0,0,0-.24H62.32c0,.08,0,.16,0,.24" transform="translate(-35.92 -29.59)"/><path class="cls-25" d="M62.32,121H45l0-.24H62.34c0,.08,0,.16,0,.24" transform="translate(-35.92 -29.59)"/><path class="cls-26" d="M62.34,120.71H45.06a2.11,2.11,0,0,1,0-.25H62.37l0,.25" transform="translate(-35.92 -29.59)"/><path class="cls-27" d="M62.37,120.46H45.08c0-.08,0-.16,0-.24H62.4l0,.24" transform="translate(-35.92 -29.59)"/><path class="cls-28" d="M62.4,120.22H45.12c0-.11,0-.21.05-.32H62.45c0,.11,0,.21-.05.32" transform="translate(-35.92 -29.59)"/><path class="cls-29" d="M62.45,119.9H45.17c0-.1,0-.21,0-.31H62.51l-.06.31" transform="translate(-35.92 -29.59)"/><path class="cls-29" d="M62.51,119.59H45.22c0-.15.07-.3.1-.45H62.61c0,.15-.07.3-.1.45" transform="translate(-35.92 -29.59)"/><path class="cls-29" d="M62.61,119.14H45.32a11.34,11.34,0,0,1,.84-2.37H63.44a11.91,11.91,0,0,0-.83,2.37" transform="translate(-35.92 -29.59)"/><path class="cls-29" d="M63.44,116.77H46.16a9.56,9.56,0,0,1,.51-.94H64c-.19.31-.36.62-.52.94" transform="translate(-35.92 -29.59)"/><path class="cls-29" d="M64,115.83H46.67l.18-.29c.77-1.18,1.57-2.31,2.4-3.4H66.53c-.82,1.09-1.62,2.22-2.39,3.4a2.29,2.29,0,0,0-.18.29" transform="translate(-35.92 -29.59)"/><path class="cls-28" d="M66.53,112.14H49.25c1.63-2.18,3.33-4.23,5-6.3.45-.56.9-1.12,1.33-1.7H72.88c-.44.58-.88,1.14-1.33,1.7-1.68,2.07-3.38,4.12-5,6.3" transform="translate(-35.92 -29.59)"/><path class="cls-29" d="M72.88,104.14H55.59c.76-1,1.49-2.06,2.16-3.16H75c-.67,1.1-1.39,2.15-2.15,3.16" transform="translate(-35.92 -29.59)"/><path class="cls-29" d="M75,101H57.75a30.15,30.15,0,0,0,1.5-2.75H76.53A27.9,27.9,0,0,1,75,101" transform="translate(-35.92 -29.59)"/><path class="cls-29" d="M76.53,98.23H59.25a28.12,28.12,0,0,0,2-5.82H78.59a28.13,28.13,0,0,1-2.06,5.82" transform="translate(-35.92 -29.59)"/><path class="cls-29" d="M78.59,92.41H61.3c.08-.33.15-.66.21-1H78.8l-.21,1" transform="translate(-35.92 -29.59)"/><path class="cls-29" d="M78.8,91.41H61.51c.05-.24.09-.48.13-.72H78.93c0,.24-.08.48-.13.72" transform="translate(-35.92 -29.59)"/><path class="cls-28" d="M78.93,90.69H61.64c0-.23.08-.45.11-.68H79c0,.23-.07.45-.11.68" transform="translate(-35.92 -29.59)"/><path class="cls-27" d="M79,90H61.75c0-.21.06-.41.08-.62H79.12c0,.21-.05.41-.08.62" transform="translate(-35.92 -29.59)"/><path class="cls-26" d="M79.12,89.39H61.83c0-.2.05-.41.07-.62H79.19c0,.21,0,.42-.07.62" transform="translate(-35.92 -29.59)"/><path class="cls-25" d="M79.19,88.77H61.9l.06-.6H79.25l-.06.6" transform="translate(-35.92 -29.59)"/><path class="cls-24" d="M79.25,88.17H62c0-.2,0-.41,0-.62H79.29c0,.21,0,.42,0,.62" transform="translate(-35.92 -29.59)"/><path class="cls-23" d="M79.29,87.55H62l0-.64H79.33c0,.22,0,.43,0,.64" transform="translate(-35.92 -29.59)"/><path class="cls-22" d="M79.33,86.91H62l0-.66H79.35c0,.22,0,.44,0,.66" transform="translate(-35.92 -29.59)"/><path class="cls-21" d="M79.35,86.25H62.07c0-.24,0-.48,0-.73H79.37c0,.25,0,.49,0,.73" transform="translate(-35.92 -29.59)"/><path class="cls-20" d="M79.37,85.52H62.08v-.73H79.37v.73" transform="translate(-35.92 -29.59)"/><path class="cls-19" d="M79.37,84.79H62.08c0-.24,0-.48,0-.72H79.35c0,.24,0,.48,0,.72" transform="translate(-35.92 -29.59)"/><path class="cls-18" d="M79.35,84.07H62.06c0-.24,0-.49,0-.73H79.32l0,.73" transform="translate(-35.92 -29.59)"/><path class="cls-17" d="M79.32,83.34H62c0-.26,0-.51-.05-.76H79.27c0,.25,0,.5,0,.76" transform="translate(-35.92 -29.59)"/><path class="cls-16" d="M79.27,82.58H62c0-.26,0-.52-.07-.78H79.2c0,.26,0,.52.07.78" transform="translate(-35.92 -29.59)"/><path class="cls-15" d="M79.2,81.8H61.91L61.82,81H79.1c0,.27.07.54.1.82" transform="translate(-35.92 -29.59)"/><path class="cls-14" d="M79.1,81H61.82l-.12-.84H79q.08.42.12.84" transform="translate(-35.92 -29.59)"/><path class="cls-13" d="M79,80.14H61.7l-.15-.9H78.83q.09.45.15.9" transform="translate(-35.92 -29.59)"/><path class="cls-12" d="M78.83,79.24H61.55c-.06-.32-.12-.63-.19-.95H78.65c.06.32.13.63.18.95" transform="translate(-35.92 -29.59)"/><path class="cls-11" d="M78.65,78.29H61.36c-.07-.34-.15-.68-.23-1H78.41c.09.34.16.68.24,1" transform="translate(-35.92 -29.59)"/><path class="cls-10" d="M78.41,77.27H61.13c-.1-.38-.19-.76-.3-1.13H78.12c.1.37.2.75.29,1.13" transform="translate(-35.92 -29.59)"/><path class="cls-9" d="M78.12,76.14H60.83c-.12-.44-.25-.87-.39-1.3H77.73c.14.43.27.86.39,1.3" transform="translate(-35.92 -29.59)"/><path class="cls-8" d="M77.73,74.84H60.44c-.16-.53-.34-1-.53-1.57H77.2c.18.52.36,1,.53,1.57" transform="translate(-35.92 -29.59)"/><path class="cls-7" d="M77.2,73.27H59.91c-.25-.69-.52-1.37-.81-2H76.39c.28.68.55,1.36.81,2" transform="translate(-35.92 -29.59)"/><path class="cls-6" d="M76.39,71.22H59.1c-.4-.94-.82-1.86-1.27-2.76-.25-.51-.48-1-.7-1.53H74.42c.22.51.45,1,.7,1.53.44.9.87,1.82,1.27,2.76" transform="translate(-35.92 -29.59)"/><path class="cls-7" d="M74.42,66.93H57.13c-.19-.45-.36-.9-.53-1.36H73.89c.16.46.34.91.53,1.36" transform="translate(-35.92 -29.59)"/><path class="cls-8" d="M73.89,65.57H56.6c-.14-.37-.27-.75-.39-1.13H73.5c.12.38.25.76.39,1.13" transform="translate(-35.92 -29.59)"/><path class="cls-9" d="M73.5,64.44H56.21c-.1-.33-.2-.66-.29-1H73.2c.1.33.19.66.3,1" transform="translate(-35.92 -29.59)"/><path class="cls-10" d="M73.2,63.45H55.92c-.09-.3-.17-.61-.24-.92H73l.24.92" transform="translate(-35.92 -29.59)"/><path class="cls-11" d="M73,62.53H55.68c-.07-.28-.13-.56-.19-.84H72.77c.06.28.13.56.19.84" transform="translate(-35.92 -29.59)"/><path class="cls-12" d="M72.77,61.69H55.49c-.06-.27-.11-.54-.16-.81H72.61c0,.27.11.54.16.81" transform="translate(-35.92 -29.59)"/><path class="cls-13" d="M72.61,60.88H55.33c0-.26-.09-.51-.13-.77H72.48c0,.26.09.51.13.77" transform="translate(-35.92 -29.59)"/><path class="cls-14" d="M72.48,60.11H55.2c0-.25-.08-.5-.11-.75H72.38c0,.25.07.5.1.75" transform="translate(-35.92 -29.59)"/><path class="cls-15" d="M72.38,59.36H55.09c0-.24-.06-.49-.08-.73H72.29l.09.73" transform="translate(-35.92 -29.59)"/><path class="cls-16" d="M72.29,58.63H55c0-.24,0-.48-.07-.72H72.23l.06.72" transform="translate(-35.92 -29.59)"/><path class="cls-17" d="M72.23,57.91H54.94c0-.23,0-.46,0-.69H72.18c0,.23,0,.46,0,.69" transform="translate(-35.92 -29.59)"/><path class="cls-18" d="M72.18,57.22H54.9c0-.23,0-.46,0-.68H72.15l0,.68" transform="translate(-35.92 -29.59)"/><path class="cls-19" d="M72.15,56.54H54.87c0-.22,0-.45,0-.67H72.14c0,.22,0,.45,0,.67" transform="translate(-35.92 -29.59)"/><path class="cls-20" d="M72.14,55.87H54.85v-.65H72.14v.65" transform="translate(-35.92 -29.59)"/><path class="cls-21" d="M72.14,55.22H54.85c0-.21,0-.42,0-.64H72.15c0,.22,0,.43,0,.64" transform="translate(-35.92 -29.59)"/><path class="cls-22" d="M72.15,54.58H54.86a2.71,2.71,0,0,0,0-.29l0-.59H72.18c0,.2,0,.39,0,.59s0,.2,0,.29" transform="translate(-35.92 -29.59)"/><path class="cls-23" d="M72.18,53.7H54.9L55,52.54H72.25c0,.38,0,.77-.07,1.16" transform="translate(-35.92 -29.59)"/><path class="cls-24" d="M72.25,52.54H55c0-.43.06-.86.1-1.29H72.35c0,.43-.07.86-.1,1.29" transform="translate(-35.92 -29.59)"/><path class="cls-25" d="M72.35,51.25H55.06c0-.49.09-1,.14-1.47H72.49c0,.49-.1,1-.14,1.47" transform="translate(-35.92 -29.59)"/><path class="cls-26" d="M72.49,49.78H55.2c.06-.61.13-1.21.21-1.81H72.69c-.07.6-.14,1.2-.2,1.81" transform="translate(-35.92 -29.59)"/><path class="cls-27" d="M72.69,48H55.41c.1-.86.22-1.72.35-2.58H73c-.12.86-.24,1.72-.35,2.58" transform="translate(-35.92 -29.59)"/><path class="cls-28" d="M73,45.39H55.76c.17-1.18.35-2.36.54-3.53l0-.19H73.61l0,.19c-.18,1.17-.37,2.35-.54,3.53" transform="translate(-35.92 -29.59)"/><path class="cls-29" d="M73.61,41.67H56.33l.09-.52H73.71c0,.17-.07.35-.1.52" transform="translate(-35.92 -29.59)"/><path class="cls-29" d="M73.71,41.15H56.42l.15-.68H73.85c0,.22-.1.45-.14.68" transform="translate(-35.92 -29.59)"/><path class="cls-29" d="M73.85,40.47H56.57a17.75,17.75,0,0,1,1.3-3.77H75.16a17.75,17.75,0,0,0-1.31,3.77" transform="translate(-35.92 -29.59)"/><path class="cls-29" d="M75.16,36.7H57.87c.24-.5.5-1,.77-1.42H75.93a14.75,14.75,0,0,0-.77,1.42" transform="translate(-35.92 -29.59)"/><path class="cls-29" d="M75.93,35.28H58.64c.27-.44.55-.85.85-1.25H76.78c-.3.4-.58.81-.85,1.25" transform="translate(-35.92 -29.59)"/><path class="cls-28" d="M76.78,34H59.49A12.65,12.65,0,0,1,60.35,33H77.63c-.29.33-.58.68-.85,1.05" transform="translate(-35.92 -29.59)"/><path class="cls-27" d="M77.63,33H60.35c.28-.32.58-.63.88-.92H78.51c-.3.29-.59.6-.88.92" transform="translate(-35.92 -29.59)"/><path class="cls-26" d="M78.51,32.06H61.23c.24-.24.5-.47.75-.69l.09-.08H79.36l-.09.08c-.26.22-.51.45-.76.69" transform="translate(-35.92 -29.59)"/><path class="cls-25" d="M79.36,31.29H62.07c.15-.13.29-.24.44-.35H79.8a4.82,4.82,0,0,0-.44.35" transform="translate(-35.92 -29.59)"/><path class="cls-24" d="M79.8,30.94H62.51l.41-.29H80.21l-.41.29" transform="translate(-35.92 -29.59)"/><path class="cls-23" d="M80.21,30.65H62.92l.4-.24H80.61l-.4.24" transform="translate(-35.92 -29.59)"/><path class="cls-22" d="M80.61,30.41H63.32l.38-.2H81l-.38.2" transform="translate(-35.92 -29.59)"/><path class="cls-21" d="M81,30.21H63.7l.37-.16H81.36l-.37.16" transform="translate(-35.92 -29.59)"/><path class="cls-20" d="M81.36,30.05H64.07l.37-.14H81.73l-.37.14" transform="translate(-35.92 -29.59)"/><path class="cls-19" d="M81.73,29.91H64.44l.36-.11H82.09l-.36.11" transform="translate(-35.92 -29.59)"/><path class="cls-18" d="M82.09,29.8H64.8l.37-.09H82.46a2.22,2.22,0,0,0-.37.09" transform="translate(-35.92 -29.59)"/><path class="cls-17" d="M82.46,29.71H65.17a2.38,2.38,0,0,1,.37-.06H82.82l-.36.06" transform="translate(-35.92 -29.59)"/><path class="cls-16" d="M82.82,29.65H65.54l.37,0H83.2l-.38,0" transform="translate(-35.92 -29.59)"/><path class="cls-15" d="M83.2,29.61H65.91l.38,0H83.58l-.38,0" transform="translate(-35.92 -29.59)"/><path class="cls-14" d="M83.58,29.59h0" transform="translate(-35.92 -29.59)"/></g></g></g><g class="cls-2"><g class="cls-55"><g class="cls-2"><path class="cls-4" d="M89.13,143.71,77,162.77a62.51,62.51,0,0,1-5.13,4.69,5.31,5.31,0,0,1-3.14,1c-3.12,0-6.3-2.78-7.88-7l9.3-4.95a3.22,3.22,0,0,0,2.54,2,1,1,0,0,0,.63-.19c1.26-.9,2.71-2.5,15.8-14.61" transform="translate(-35.92 -29.59)"/><path class="cls-6" d="M70.16,156.55l-9.3,4.95a17.24,17.24,0,0,1-.59-2L70,156.13a2.58,2.58,0,0,0,.14.42" transform="translate(-35.92 -29.59)"/><path class="cls-7" d="M70,156.13l-9.75,3.37c-.08-.33-.14-.66-.2-1s-.07-.5-.1-.74L70,156v-.05l0,.19" transform="translate(-35.92 -29.59)"/><path class="cls-8" d="M70,156l-10,1.77c0-.43-.07-.85-.08-1.26L70,156s0,0,0,0" transform="translate(-35.92 -29.59)"/><path class="cls-9" d="M70,156l-10.12.49a15.35,15.35,0,0,1,.06-1.67l10.1,1.06a.49.49,0,0,1,0,.12" transform="translate(-35.92 -29.59)"/><path class="cls-10" d="M70.05,155.89,60,154.83a22.44,22.44,0,0,1,.93-4.47l9.58,4.12c-.22.74-.34,1.2-.41,1.41" transform="translate(-35.92 -29.59)"/><path class="cls-11" d="M70.46,154.48l-9.58-4.12c.14-.49.3-1,.46-1.45.89-2.72,2.1-5.17,3.19-7.7a26.71,26.71,0,0,0,1.12-3.09l9.52,4.14A32.15,32.15,0,0,1,73.53,147c-1.14,2.65-2.19,4.77-2.8,6.64l-.27.87" transform="translate(-35.92 -29.59)"/><path class="cls-10" d="M75.17,142.26l-9.52-4.14a30.3,30.3,0,0,0,1-4.94l10-1.26a53.23,53.23,0,0,1-1.53,10.34" transform="translate(-35.92 -29.59)"/><path class="cls-9" d="M76.7,131.92l-10,1.26a18.85,18.85,0,0,0,.15-2.3l10-6.44c0,2.79,0,5.27-.17,7.48" transform="translate(-35.92 -29.59)"/><path class="cls-8" d="M76.87,124.44l-10,6.44v-.14l10-6.88v.58" transform="translate(-35.92 -29.59)"/></g></g></g><g class="cls-2"><g class="cls-56"><g class="cls-2"><path class="cls-4" d="M68.74,168.51H51.45c-2.73,0-5.5-2.13-7.21-5.49H61.53c1.71,3.36,4.48,5.49,7.21,5.49" transform="translate(-35.92 -29.59)"/><path class="cls-6" d="M61.53,163H44.24c-.14-.29-.28-.58-.41-.89H61.11c.13.31.27.6.42.89" transform="translate(-35.92 -29.59)"/><path class="cls-7" d="M61.11,162.13H43.83c-.1-.23-.19-.47-.28-.71H60.83c.09.24.19.48.28.71" transform="translate(-35.92 -29.59)"/><path class="cls-8" d="M60.83,161.42H43.55a6.26,6.26,0,0,1-.21-.61H60.62l.21.61" transform="translate(-35.92 -29.59)"/><path class="cls-9" d="M60.62,160.81H43.34c-.06-.18-.12-.37-.17-.56H60.46c0,.19.11.38.16.56" transform="translate(-35.92 -29.59)"/><path class="cls-10" d="M60.46,160.25H43.17c0-.16-.09-.33-.13-.5H60.33c0,.17.08.34.13.5" transform="translate(-35.92 -29.59)"/><path class="cls-11" d="M60.33,159.75H43c0-.16-.07-.32-.11-.48H60.22c0,.16.07.32.11.48" transform="translate(-35.92 -29.59)"/><path class="cls-12" d="M60.22,159.27H42.93l-.09-.45H60.13l.09.45" transform="translate(-35.92 -29.59)"/><path class="cls-13" d="M60.13,158.82H42.84c0-.11,0-.21-.05-.32a.5.5,0,0,1,0-.12H60.06s0,.08,0,.12l.06.32" transform="translate(-35.92 -29.59)"/><path class="cls-14" d="M60.06,158.38H42.77l-.06-.38H60l.06.38" transform="translate(-35.92 -29.59)"/><path class="cls-15" d="M60,158H42.71l0-.34H60c0,.11,0,.23,0,.34" transform="translate(-35.92 -29.59)"/><path class="cls-16" d="M60,157.66H42.68c0-.11,0-.23,0-.34H59.93l0,.34" transform="translate(-35.92 -29.59)"/><path class="cls-17" d="M59.93,157.32H42.64c0-.11,0-.22,0-.32H59.91c0,.1,0,.21,0,.32" transform="translate(-35.92 -29.59)"/><path class="cls-18" d="M59.91,157H42.62c0-.11,0-.21,0-.32H59.9c0,.11,0,.21,0,.32" transform="translate(-35.92 -29.59)"/><path class="cls-19" d="M59.9,156.68H42.61c0-.1,0-.2,0-.31H59.89c0,.11,0,.21,0,.31" transform="translate(-35.92 -29.59)"/><path class="cls-20" d="M59.89,156.37H42.6v-.3H59.89v.3" transform="translate(-35.92 -29.59)"/><path class="cls-21" d="M59.89,156.07H42.6c0-.09,0-.19,0-.29H59.89v.29" transform="translate(-35.92 -29.59)"/><path class="cls-22" d="M59.89,155.78H42.61a2.71,2.71,0,0,1,0-.29H59.9c0,.09,0,.19,0,.29" transform="translate(-35.92 -29.59)"/><path class="cls-23" d="M59.9,155.49H42.62c0-.1,0-.2,0-.3H59.92c0,.1,0,.2,0,.3" transform="translate(-35.92 -29.59)"/><path class="cls-24" d="M59.92,155.19H42.63l0-.29H59.94c0,.09,0,.19,0,.29" transform="translate(-35.92 -29.59)"/><path class="cls-25" d="M59.94,154.9H42.66l0-.31H60l0,.31" transform="translate(-35.92 -29.59)"/><path class="cls-26" d="M60,154.59H42.69l0-.33H60c0,.11,0,.22,0,.33" transform="translate(-35.92 -29.59)"/><path class="cls-27" d="M60,154.26H42.72c0-.12,0-.24.05-.36H60.06c0,.12,0,.24-.05.36" transform="translate(-35.92 -29.59)"/><path class="cls-28" d="M60.06,153.9H42.77c0-.13,0-.27.07-.4H60.12l-.06.4" transform="translate(-35.92 -29.59)"/><path class="cls-29" d="M60.12,153.5H42.84a4.54,4.54,0,0,1,.09-.51H60.21l-.09.51" transform="translate(-35.92 -29.59)"/><path class="cls-29" d="M60.21,153H42.93c0-.25.1-.5.16-.75H60.37c0,.25-.11.5-.16.75" transform="translate(-35.92 -29.59)"/><path class="cls-29" d="M60.37,152.24H43.09c.26-1.14.6-2.25,1-3.33.89-2.72,2.1-5.17,3.2-7.7a29.32,29.32,0,0,0,1.64-5.08H66.18a30.22,30.22,0,0,1-1.65,5.08c-1.09,2.53-2.3,5-3.19,7.7-.36,1.08-.7,2.19-1,3.33" transform="translate(-35.92 -29.59)"/><path class="cls-29" d="M66.18,136.13H48.89c.08-.34.15-.68.22-1H66.4c-.07.34-.14.68-.22,1" transform="translate(-35.92 -29.59)"/><path class="cls-29" d="M66.4,135.11H49.11c0-.24.09-.49.13-.73H66.53c0,.24-.09.49-.13.73" transform="translate(-35.92 -29.59)"/><path class="cls-28" d="M66.53,134.38H49.24c0-.2.07-.4.1-.6H66.62l-.09.6" transform="translate(-35.92 -29.59)"/><path class="cls-27" d="M66.62,133.78H49.34l.06-.51H66.69c0,.17,0,.34-.07.51" transform="translate(-35.92 -29.59)"/><path class="cls-26" d="M66.69,133.27H49.4c0-.15,0-.29.05-.44H66.74c0,.15,0,.29,0,.44" transform="translate(-35.92 -29.59)"/><path class="cls-25" d="M66.74,132.83H49.45c0-.14,0-.27,0-.41H66.78c0,.14,0,.27,0,.41" transform="translate(-35.92 -29.59)"/><path class="cls-24" d="M66.78,132.42H49.49l0-.37H66.81l0,.37" transform="translate(-35.92 -29.59)"/><path class="cls-23" d="M66.81,132.05H49.52c0-.12,0-.24,0-.35H66.83c0,.11,0,.23,0,.35" transform="translate(-35.92 -29.59)"/><path class="cls-22" d="M66.83,131.7H49.54c0-.11,0-.22,0-.33H66.84c0,.11,0,.22,0,.33" transform="translate(-35.92 -29.59)"/><path class="cls-21" d="M66.84,131.37H49.55c0-.1,0-.2,0-.3H66.85c0,.1,0,.2,0,.3" transform="translate(-35.92 -29.59)"/><path class="cls-20" d="M66.85,131.07H49.56v-.3H66.85v.3" transform="translate(-35.92 -29.59)"/><path class="cls-19" d="M66.85,130.77H49.56v0H66.85v0" transform="translate(-35.92 -29.59)"/></g></g></g><g class="cls-2"><g class="cls-57"><g class="cls-2"><path class="cls-4" d="M77.77,637.28l.35,21.14a11,11,0,0,1-1.38-2.27l9.58-4.08c-.7-2.28-1-2.53-8.55-14.79" transform="translate(-35.92 -29.59)"/><path class="cls-6" d="M86.32,652.07l-9.58,4.08v0c-.5-1.92-1.06-3.84-1.5-5.81L85,647.1c.33,1.45.81,3.14,1.33,5.12l-.05-.15" transform="translate(-35.92 -29.59)"/><path class="cls-7" d="M85,647.1l-9.81,3.19c-.21-.95-.39-1.91-.53-2.89q-.39-2.85-.71-5.7l10-1.8c.2,1.77.41,3.53.66,5.28.08.58.21,1.22.37,1.92" transform="translate(-35.92 -29.59)"/><path class="cls-8" d="M84,639.9l-10,1.8c-.93-8.46-1.33-17-1.52-25.65-.39-17.49-1-34.95-1.64-52.42-.5-13.61-1.24-27.21-1.75-40.83C69,521.39,69,520,69,518.55l10.12-.24c0,1.34,0,2.63.07,3.87.51,13.51,1.25,27.12,1.75,40.86.65,17.47,1.26,35,1.65,52.65.18,8.27.56,16.36,1.42,24.21" transform="translate(-35.92 -29.59)"/><path class="cls-9" d="M79.12,518.31,69,518.55c0-2.31,0-4.63,0-6.94l10.12-.22c0,2.43,0,4.74,0,6.92" transform="translate(-35.92 -29.59)"/><path class="cls-8" d="M79.14,511.39,69,511.61c0-1.45,0-2.91-.07-4.36-.35-9.72-.92-19.42-1.3-29.14-.49-12.59-.9-25.19-1.33-37.78-.31-9.09-.57-18.18-.87-27.27q-.51-15.54-1.07-31.08c-.23-6.93-.53-13.86-.71-20.79-.37-13.88-.6-27.77-1.05-41.63-.29-8.68-.53-17.42-1.43-26,0-.13,0-.26,0-.38l10-1.73c0,.14,0,.29,0,.44,1,9.2,1.26,18.4,1.5,27.1.46,14,.69,27.91,1.06,41.73.18,6.8.47,13.69.71,20.66Q75,397,75.56,412.52c.31,9.11.57,18.21.87,27.26.43,12.59.84,25.16,1.33,37.69.37,9.59.95,19.31,1.3,29.2,0,1.62.08,3.19.08,4.72" transform="translate(-35.92 -29.59)"/><path class="cls-7" d="M71.18,291.49l-10,1.73c-.74-6.82-2.32-13.42-3.6-20.08C56.38,267,55,261,53.92,254.9c-.19-1-.34-2.06-.45-3.08l10-1.74c.07.67.17,1.33.29,2,1.05,5.83,2.4,11.79,3.61,18.09,1.24,6.5,2.92,13.5,3.78,21.32" transform="translate(-35.92 -29.59)"/><path class="cls-8" d="M63.5,250.08l-10,1.74a44.24,44.24,0,0,1-.26-4.73L63.33,247a28.57,28.57,0,0,0,.17,3.07" transform="translate(-35.92 -29.59)"/><path class="cls-9" d="M63.33,247l-10.12.08a43.55,43.55,0,0,1,.3-5.36l10,1.75a32.27,32.27,0,0,0-.2,3.53" transform="translate(-35.92 -29.59)"/><path class="cls-10" d="M63.53,243.48l-10-1.75a48.55,48.55,0,0,1,1-5.86c.18-.72.37-1.43.58-2.13L64.65,238c-.15.5-.29,1-.41,1.51a34.29,34.29,0,0,0-.71,4" transform="translate(-35.92 -29.59)"/><path class="cls-11" d="M64.65,238l-9.53-4.27a57.19,57.19,0,0,1,5.24-11.87c2.4-4.32,4.86-8.61,7-13.26a29.75,29.75,0,0,0,1.51-4l9.52,4.34a42.24,42.24,0,0,1-2.15,5.68c-2.36,5.09-4.94,9.68-7.36,14A47.63,47.63,0,0,0,64.65,238" transform="translate(-35.92 -29.59)"/><path class="cls-10" d="M78.4,208.94l-9.52-4.34a33,33,0,0,0,1.19-5.84l10,1.94a48.37,48.37,0,0,1-1.69,8.24" transform="translate(-35.92 -29.59)"/><path class="cls-9" d="M80.09,200.7l-10-1.94a36.69,36.69,0,0,0,.25-4.6l10.13.11a52.74,52.74,0,0,1-.36,6.43" transform="translate(-35.92 -29.59)"/><path class="cls-8" d="M80.45,194.27l-10.13-.11a46.37,46.37,0,0,0-.27-4.81l10-1.67a61,61,0,0,1,.36,6.59" transform="translate(-35.92 -29.59)"/><path class="cls-7" d="M80.09,187.68l-10,1.67c-.07-.62-.15-1.26-.25-1.89-.5-3.39-1-6.79-1.7-10.1l-.06-.25,9.76-3.38c0,.17.08.33.11.5.75,3.69,1.32,7.36,1.84,10.89.13.86.24,1.71.34,2.56" transform="translate(-35.92 -29.59)"/><path class="cls-6" d="M77.8,173.73,68,177.11a13.77,13.77,0,0,0-.58-1.9l9.81-3.57c0-.13.24.81.53,2.09" transform="translate(-35.92 -29.59)"/><path class="cls-4" d="M77.27,171.64l-9.81,3.57c-.31-.85-.67-1.72-1-2.73L80,179.72c-2-5.8-2.66-7.9-2.72-8.08" transform="translate(-35.92 -29.59)"/></g></g></g><path class="cls-4" d="M87.58,39.59c1.33,0,2.81,1.34,3.63,3.66,2,5.59,1.15,11.22-1,18.48-.92,3.17-2.74,6.91-4.11,12.18-3.44,13.28-1.3,26.44,5,36a56.08,56.08,0,0,0,7.76,9.82,20.07,20.07,0,0,1,1.77,2c0,.07,0,1.33-.19,3.51.62-5.47,2.24-6.44,2.62-6.69-.56.39-1.42.8-8.62,4.88,2.6,11.51,3,14.47,4.14,17.84,1.39,4.14,2.92,8,4.4,11.67a6.44,6.44,0,0,1,.07,4.54c0,.05,0,0,.07,0-2-.21-3-.42-3.23-.81-2.08-2.57-3.57-2.66-11.81-7.12.32,23.95,4.87,27,7.92,29,2.61,1.72,4.89,2.06-2.83-.79,3-6,1.54.9,1,8-1,11.44-.07,23.27,5.56,33.3,2,3.47,4,6.33,5.83,9,2.28,3.4,3.39,7.6,3.59,12.88.28,7.59-1.51,15.56-3.14,24.5-1.48,7.89-2.93,16.08-3.85,24.59-1,9.07-1.4,18.12-1.79,26.93-.65,14.91-1.09,29.77-1.64,44.55-.6,16.05-1.18,32.16-1.83,48.18-.21,5.3-.76,10.95-1,17-.47,10.3-.74,20.48-1.23,30.49-.6,12.37-1.42,24.83-2,37.43-.68,13.75-1.23,27.44-1.84,41.08-.47,10-1,20.12-1.47,30.26Q88,592.53,86.89,619.14C86,629.25,84.37,642,82.72,651.81c.1-.35-.22.32,7.47-21.45,2.75,23.58,2.73,20.33,2.75,16.72.11-13.14.26-26.31.33-39.52,0-6.35-.1-12.51-.09-18.47.08-15.53.07-31.1.23-46.58.13-11.94.58-24.09.67-36.44.1-13.68-.12-27.22-.1-40.6,0-12,.21-24,.26-36.15.06-11.77,0-23.47.09-35.1.06-8.14.29-16.4.41-24.79.08-5.5.14-10.91.15-16.39.07-9.1.15-18.23.18-27.38,0-10,0-20,0-30,0-12.19.09-24.45,0-36.76,0,0,.34-1,1.35-3.63,1.14-2.93,2.37-5.89,9.57-24.09l-37.48-2.84c4.25,15.89,4.47,17.15,5.2,19.08,1.55,4,3.1,7.41,4.17,10.69-.16-.62-.1.07-.1,1.58,0,10.8-.08,21.61-.14,32.36-.12,13.81-.35,27.7-.43,41.66-.06,9.12.1,18.09.09,26.9,0,9-.18,18.2-.2,27.47,0,8.5.13,16.85.1,25,0,7.71-.27,15.62-.31,23.71,0,6.9.21,13.5.16,19.8-.06,7.24-.36,14.69-.47,22.37s-.11,15.46-.15,23.1-.06,15.13-.13,22.63c-.12,13.61-.35,27.29-.39,41.07,0,15.51.11,30.94.14,46.31,0,11.21,0,22.47,0,33.74,0,3.35.1,6.49.12,9.44,0-.55,0-.13,1.57-18,7.72,12.53,7.86,12.52,8.6,14.94a68.88,68.88,0,0,1-1.7-7,255.2,255.2,0,0,1-2.08-29.49c-.39-17.61-1-35.18-1.65-52.65-.5-13.74-1.24-27.35-1.75-40.86-.18-4.53.07-9.73-.13-15.51-.35-9.89-.93-19.61-1.3-29.2-.49-12.53-.9-25.1-1.33-37.69-.3-9-.56-18.15-.87-27.26q-.51-15.56-1.06-31.1c-.24-7-.53-13.86-.71-20.66-.37-13.82-.6-27.74-1.06-41.73-.24-8.7-.54-17.9-1.5-27.1-.85-8-2.57-15.14-3.83-21.76-1.21-6.3-2.56-12.26-3.61-18.09a30.16,30.16,0,0,1,.45-12.56,43.39,43.39,0,0,1,4.65-10.94c2.42-4.28,5-8.87,7.36-14,4.13-8.91,5-19.23,3.5-29.5-.52-3.53-1.09-7.2-1.84-10.89-.69-3.32-1.64-5.21,2.08,5.49-7.09,2.17-5.34,2-3.21.77a20.26,20.26,0,0,0,5.38-4.79c1.19-1.5,4-4.1,7-32C76,155.82,74.59,157.42,73.33,158.32a1,1,0,0,1-.63.19A3.22,3.22,0,0,1,70,155.94c0,.33.11-.36.74-2.33s1.66-4,2.8-6.64c2-4.65,3.49-10.91,3.34-23.11-4.2-2.68-4.46-2.83-4.57-2.92a2.81,2.81,0,0,1,0,1.89c2-3.07,4.4-5.85,6.92-9,5.2-6.37,10.32-14.76,10.25-29a50.68,50.68,0,0,0-5.6-22.59,14.89,14.89,0,0,1-1.62-7.32,88.33,88.33,0,0,1,1.24-10.52,7.05,7.05,0,0,1,2.63-4.19A2.15,2.15,0,0,1,87.58,39.59Z" transform="translate(-35.92 -29.59)"/></g></svg>